<svg xmlns="http://www.w3.org/2000/svg" width="55" height="58" fill="none" viewBox="0 0 55 58">
  <path fill="#61D85A" stroke="#000" stroke-linecap="round" stroke-linejoin="round" d="M27.5 54.98c13.606 0 24.635-11.632 24.635-25.98S41.105 3.02 27.5 3.02C13.894 3.02 2.865 14.653 2.865 29S13.895 54.98 27.5 54.98Z"/>
  <path stroke="#000" stroke-linecap="round" stroke-linejoin="round" stroke-width=".521" d="m40.732 40.48-.001-22.96-11.684 15.422H43.47m-31.94-7.816a7.973 7.973 0 0 1 .522-2.94 7.657 7.657 0 0 1 1.557-2.5 7.205 7.205 0 0 1 2.351-1.673 6.89 6.89 0 0 1 2.78-.588c.956 0 1.9.2 2.782.588.88.388 1.68.957 2.35 1.674a7.645 7.645 0 0 1 1.557 2.5 7.97 7.97 0 0 1 .523 2.94 7.43 7.43 0 0 1-.509 2.927 7.114 7.114 0 0 1-1.603 2.45c-2.918 2.7-12.31 9.975-12.31 9.975h14.422"/>
</svg>
