<svg xmlns="http://www.w3.org/2000/svg" width="26" height="25" fill="none" viewBox="0 0 26 25">
  <path fill="#000" d="M20.222 2.865H5.118a2.083 2.083 0 0 0-2.083 2.083v15.104a2.083 2.083 0 0 0 2.083 2.084h15.104a2.083 2.083 0 0 0 2.083-2.084V4.948a2.083 2.083 0 0 0-2.083-2.083Z"/>
  <path stroke="#fff" stroke-linecap="round" stroke-linejoin="round" stroke-width=".521" d="M5.118 12.161a1.042 1.042 0 0 1 2.083 0m0 0v1.72m0-1.72a1.042 1.042 0 0 1 2.083 0v1.72M5.118 11.12v2.76m11.458 0v-1.719a1.042 1.042 0 0 0-2.083 0m0 1.72V11.12m-2.604 2.76a1.042 1.042 0 0 1-1.042-1.042v-.677a1.042 1.042 0 0 1 2.083 0v.678a1.042 1.042 0 0 1-1.041 1.041Zm7.291 0a1.042 1.042 0 0 1-1.041-1.042v-.677a1.042 1.042 0 0 1 2.083 0v.678a1.042 1.042 0 0 1-1.042 1.041Z"/>
</svg>
