<svg xmlns="http://www.w3.org/2000/svg" width="55" height="58" fill="none" viewBox="0 0 55 58">
  <path fill="#000" stroke="#000" stroke-linecap="round" stroke-linejoin="round" d="M44.115 6.646h-33.23c-1.215 0-2.38.51-3.24 1.416a4.97 4.97 0 0 0-1.343 3.417v35.042a4.97 4.97 0 0 0 1.343 3.418 4.466 4.466 0 0 0 3.24 1.415h33.23a4.465 4.465 0 0 0 3.24-1.415 4.97 4.97 0 0 0 1.343-3.418V11.479a4.97 4.97 0 0 0-1.342-3.417 4.466 4.466 0 0 0-3.241-1.416Z"/>
  <path stroke="#fff" stroke-linecap="round" stroke-linejoin="round" stroke-width=".521" d="M10.885 28.215c0-.641.242-1.256.672-1.71a2.233 2.233 0 0 1 1.62-.707c.608 0 1.19.255 1.62.708.43.453.672 1.068.672 1.709m0 0v3.987m0-3.987c0-.641.241-1.256.671-1.71a2.233 2.233 0 0 1 1.62-.707c.608 0 1.191.255 1.62.708.43.453.672 1.068.672 1.709v3.987m-9.167-6.404v6.404m25.209 0v-3.987c0-.641-.242-1.256-.671-1.71a2.233 2.233 0 0 0-1.62-.707c-.609 0-1.192.255-1.621.708a2.485 2.485 0 0 0-.672 1.709m0 3.987v-6.404m-5.729 6.404c-.607 0-1.19-.255-1.62-.708a2.485 2.485 0 0 1-.671-1.709v-1.57c0-.641.241-1.256.67-1.71a2.233 2.233 0 0 1 1.621-.707c.608 0 1.191.255 1.62.708.43.453.672 1.068.672 1.709v1.57c0 .641-.242 1.256-.671 1.71a2.233 2.233 0 0 1-1.62.707Zm16.042 0c-.608 0-1.19-.255-1.62-.708a2.485 2.485 0 0 1-.672-1.709v-1.57c0-.641.242-1.256.672-1.71a2.233 2.233 0 0 1 1.62-.707c.608 0 1.19.255 1.62.708.43.453.672 1.068.672 1.709v1.57c0 .641-.242 1.256-.672 1.71a2.233 2.233 0 0 1-1.62.707Z"/>
</svg>
