<svg xmlns="http://www.w3.org/2000/svg" width="25" height="25" fill="none" viewBox="0 0 25 25">
  <path fill="#000" d="M21.094 17.299V7.702a3.118 3.118 0 1 0-3.796-3.796H7.703a3.119 3.119 0 1 0-3.796 3.796v9.596a3.119 3.119 0 1 0 3.796 3.796H17.3a3.118 3.118 0 1 0 3.795-3.796Zm-.782-14.174a1.562 1.562 0 1 1 0 3.125 1.562 1.562 0 0 1 0-3.125ZM3.125 4.688a1.563 1.563 0 1 1 3.125 0 1.563 1.563 0 0 1-3.125 0Zm1.563 17.187a1.563 1.563 0 1 1 0-3.126 1.563 1.563 0 0 1 0 3.126Zm12.61-2.344H7.703A3.125 3.125 0 0 0 5.469 17.3V7.702a3.125 3.125 0 0 0 2.233-2.233h9.597a3.125 3.125 0 0 0 2.232 2.233v9.596a3.118 3.118 0 0 0-2.232 2.233Zm3.015 2.344a1.563 1.563 0 1 1 0-3.127 1.563 1.563 0 0 1 0 3.127Z"/>
</svg>
