<svg width="25" height="25" viewBox="0 0 25 25" fill="none" xmlns="http://www.w3.org/2000/svg">
<path d="M21.0937 17.2985V7.70165C21.6269 7.56504 22.1143 7.28978 22.5067 6.90383C22.899 6.51788 23.1822 6.03499 23.3276 5.50418C23.4729 4.97337 23.4752 4.41355 23.3342 3.88157C23.1933 3.34959 22.914 2.86438 22.5249 2.47523C22.1357 2.08607 21.6505 1.80683 21.1185 1.66584C20.5865 1.52485 20.0267 1.52715 19.4959 1.6725C18.9651 1.81785 18.4822 2.10107 18.0963 2.4934C17.7103 2.88574 17.4351 3.37322 17.2984 3.90634H7.70156C7.56494 3.37322 7.28969 2.88574 6.90374 2.4934C6.51779 2.10107 6.0349 1.81785 5.50409 1.6725C4.97328 1.52715 4.41346 1.52485 3.88148 1.66584C3.34949 1.80683 2.86429 2.08607 2.47514 2.47523C2.08598 2.86438 1.80673 3.34959 1.66575 3.88157C1.52476 4.41355 1.52706 4.97337 1.67241 5.50418C1.81775 6.03499 2.10097 6.51788 2.49331 6.90383C2.88565 7.28978 3.37312 7.56504 3.90625 7.70165V17.2985C3.37312 17.4351 2.88565 17.7104 2.49331 18.0963C2.10097 18.4823 1.81775 18.9652 1.67241 19.496C1.52706 20.0268 1.52476 20.5866 1.66575 21.1186C1.80673 21.6506 2.08598 22.1358 2.47514 22.525C2.86429 22.9141 3.34949 23.1934 3.88148 23.3343C4.41346 23.4753 4.97328 23.473 5.50409 23.3277C6.0349 23.1823 6.51779 22.8991 6.90374 22.5068C7.28969 22.1144 7.56494 21.627 7.70156 21.0938H17.2984C17.4351 21.627 17.7103 22.1144 18.0963 22.5068C18.4822 22.8991 18.9651 23.1823 19.4959 23.3277C20.0267 23.473 20.5865 23.4753 21.1185 23.3343C21.6505 23.1934 22.1357 22.9141 22.5249 22.525C22.914 22.1358 23.1933 21.6506 23.3342 21.1186C23.4752 20.5866 23.4729 20.0268 23.3276 19.496C23.1822 18.9652 22.899 18.4823 22.5067 18.0963C22.1143 17.7104 21.6269 17.4351 21.0937 17.2985ZM20.3125 3.12509C20.6215 3.12509 20.9236 3.21673 21.1806 3.38842C21.4375 3.56011 21.6378 3.80414 21.7561 4.08965C21.8743 4.37516 21.9053 4.68932 21.845 4.99242C21.7847 5.29551 21.6359 5.57392 21.4174 5.79244C21.1988 6.01096 20.9204 6.15978 20.6173 6.22007C20.3142 6.28035 20.0001 6.24941 19.7146 6.13115C19.429 6.01289 19.185 5.81262 19.0133 5.55567C18.8416 5.29872 18.75 4.99662 18.75 4.68759C18.75 4.27319 18.9146 3.87576 19.2076 3.58273C19.5007 3.28971 19.8981 3.12509 20.3125 3.12509ZM3.125 4.68759C3.125 4.37856 3.21664 4.07646 3.38833 3.81951C3.56002 3.56256 3.80404 3.36229 4.08955 3.24403C4.37506 3.12576 4.68923 3.09482 4.99233 3.15511C5.29542 3.2154 5.57383 3.36421 5.79235 3.58273C6.01087 3.80125 6.15968 4.07966 6.21997 4.38276C6.28026 4.68586 6.24932 5.00002 6.13106 5.28553C6.0128 5.57104 5.81253 5.81507 5.55558 5.98676C5.29862 6.15845 4.99653 6.25009 4.6875 6.25009C4.2731 6.25009 3.87567 6.08547 3.58264 5.79244C3.28962 5.49942 3.125 5.10199 3.125 4.68759ZM4.6875 21.8751C4.37846 21.8751 4.07637 21.7834 3.81942 21.6118C3.56247 21.4401 3.3622 21.196 3.24394 20.9105C3.12567 20.625 3.09473 20.3109 3.15502 20.0078C3.21531 19.7047 3.36412 19.4263 3.58264 19.2077C3.80116 18.9892 4.07957 18.8404 4.38267 18.7801C4.68576 18.7198 4.99993 18.7508 5.28544 18.869C5.57095 18.9873 5.81498 19.1876 5.98667 19.4445C6.15836 19.7015 6.25 20.0036 6.25 20.3126C6.25 20.727 6.08538 21.1244 5.79235 21.4174C5.49933 21.7105 5.1019 21.8751 4.6875 21.8751ZM17.2984 19.5313H7.70156C7.56117 18.9944 7.28033 18.5046 6.88791 18.1122C6.4955 17.7198 6.00566 17.4389 5.46875 17.2985V7.70165C6.00566 7.56126 6.4955 7.28042 6.88791 6.88801C7.28033 6.49559 7.56117 6.00575 7.70156 5.46884H17.2984C17.4388 6.00575 17.7197 6.49559 18.1121 6.88801C18.5045 7.28042 18.9943 7.56126 19.5312 7.70165V17.2985C18.994 17.4382 18.5037 17.7188 18.1112 18.1113C17.7187 18.5038 17.4381 18.9941 17.2984 19.5313ZM20.3125 21.8751C20.0035 21.8751 19.7014 21.7834 19.4444 21.6118C19.1875 21.4401 18.9872 21.196 18.8689 20.9105C18.7507 20.625 18.7197 20.3109 18.78 20.0078C18.8403 19.7047 18.9891 19.4263 19.2076 19.2077C19.4262 18.9892 19.7046 18.8404 20.0077 18.7801C20.3108 18.7198 20.6249 18.7508 20.9104 18.869C21.1959 18.9873 21.44 19.1876 21.6117 19.4445C21.7834 19.7015 21.875 20.0036 21.875 20.3126C21.8744 20.7268 21.7096 21.1239 21.4167 21.4168C21.1238 21.7097 20.7267 21.8745 20.3125 21.8751Z" fill="black"/>
</svg>
