<svg xmlns="http://www.w3.org/2000/svg" width="58" height="58" fill="none" viewBox="0 0 58 58">
  <path fill="#011034" d="M49.3 49.01v-7.25c0-2.03-.29-4.06-1.45-6.09-1.16-2.03-2.61-3.77-4.64-4.93C41.18 29.29 36.83 29 34.8 29l-4.64 4.93 1.74 3.77v8.7L29 49.59l-2.9-3.19v-8.7l2.03-3.77L23.2 29c-2.32 0-6.67.29-8.7 1.74-2.03 1.16-3.19 2.9-4.35 4.93-1.16 2.03-1.45 3.77-1.45 6.09v7.25S16.24 52.2 29 52.2c12.76 0 20.3-3.19 20.3-3.19ZM29 6.09c-5.51 0-8.7 5.22-7.83 11.02.87 5.8 3.77 9.86 7.83 9.86 4.06 0 6.96-4.06 7.83-9.86.87-6.09-2.32-11.02-7.83-11.02Z"/>
</svg>
