<svg xmlns="http://www.w3.org/2000/svg" width="25" height="25" fill="none" viewBox="0 0 25 25">
  <g clip-path="url(#a)">
    <path fill="#000" d="M22.396 4.167h-2.778V6.25a1.527 1.527 0 1 1-3.055 0V4.167h-8.09V6.25a1.528 1.528 0 0 1-3.056 0V4.167H2.639a1.236 1.236 0 0 0-1.25 1.257v15.541a1.236 1.236 0 0 0 1.215 1.257h19.792a1.234 1.234 0 0 0 1.215-1.257V5.424a1.237 1.237 0 0 0-1.215-1.257ZM6.944 18.055H5.556v-1.388h1.388v1.388Zm0-3.472H5.556v-1.389h1.388v1.39Zm0-3.472H5.556V9.722h1.388v1.389Zm4.167 6.944H9.722v-1.388h1.39v1.388Zm0-3.472H9.722v-1.389h1.39v1.39Zm0-3.472H9.722V9.722h1.39v1.389Zm4.167 6.944h-1.39v-1.388h1.39v1.388Zm0-3.472h-1.39v-1.389h1.39v1.39Zm0-3.472h-1.39V9.722h1.39v1.389Zm4.167 6.944h-1.39v-1.388h1.39v1.388Zm0-3.472h-1.39v-1.389h1.39v1.39Zm0-3.472h-1.39V9.722h1.39v1.389Z"/>
    <path fill="#000" d="M6.944 6.944a.694.694 0 0 0 .695-.694V2.083a.694.694 0 0 0-1.389 0V6.25a.694.694 0 0 0 .694.694Zm11.111 0a.695.695 0 0 0 .695-.694V2.083a.695.695 0 0 0-1.389 0V6.25a.694.694 0 0 0 .694.694Z"/>
  </g>
  <defs>
    <clipPath id="a">
      <path fill="#fff" d="M0 0h25v25H0z"/>
    </clipPath>
  </defs>
</svg>
