<svg xmlns="http://www.w3.org/2000/svg" width="58" height="58" fill="none" viewBox="0 0 58 58">
  <path fill="#011034" d="M47.125 7.25h-5.438V5.437a1.813 1.813 0 0 0-3.624 0V7.25H19.936V5.437a1.813 1.813 0 0 0-3.625 0V7.25h-5.437a3.625 3.625 0 0 0-3.625 3.625v36.25a3.625 3.625 0 0 0 3.625 3.625h36.25a3.625 3.625 0 0 0 3.625-3.625v-36.25a3.625 3.625 0 0 0-3.625-3.625Zm-21.75 34.438a1.812 1.812 0 0 1-3.625 0v-11.57l-1.001.503a1.814 1.814 0 0 1-1.623-3.244l3.625-1.813a1.814 1.814 0 0 1 2.624 1.622v14.5Zm12.688-1.813a1.812 1.812 0 0 1 0 3.625h-7.25a1.812 1.812 0 0 1-1.45-2.9l6.52-8.693a1.811 1.811 0 0 0-1.128-2.872 1.813 1.813 0 0 0-1.888.871 1.81 1.81 0 0 1-3.038.229 1.813 1.813 0 0 1-.1-2.041 5.438 5.438 0 1 1 9.05 5.992l-4.342 5.789h3.626Zm-27.188-21.75v-7.25h5.438v1.813a1.812 1.812 0 0 0 3.625 0v-1.813h18.125v1.813a1.812 1.812 0 0 0 3.624 0v-1.813h5.438v7.25h-36.25Z"/>
</svg>
