<svg xmlns="http://www.w3.org/2000/svg" width="25" height="25" fill="none" viewBox="0 0 25 25">
  <path fill="#000" d="m22.5 11.688-4.792-3.855V5.208a1.99 1.99 0 0 0-1.885-2.083H3.948a1.99 1.99 0 0 0-1.865 2.083v10.417a2.083 2.083 0 0 0 1.25 1.958 3.125 3.125 0 1 0 5.834.125h6.625a3.124 3.124 0 1 0 5.875 0h.208a1.042 1.042 0 0 0 1.042-1.041V12.5a1.041 1.041 0 0 0-.417-.813ZM20.833 13v2.625h-3.125V10.5l3.125 2.5ZM7.292 18.75a1.042 1.042 0 1 1-2.084 0 1.042 1.042 0 0 1 2.084 0Zm12.5 0a1.041 1.041 0 1 1-2.083 0 1.041 1.041 0 0 1 2.083 0Z"/>
</svg>
