<svg xmlns="http://www.w3.org/2000/svg" width="58" height="58" fill="none" viewBox="0 0 58 58">
  <path fill="#011034" d="m38.667 14.5 7.25 9.667h4.833A4.817 4.817 0 0 1 55.583 29v7.25H50.75a7.25 7.25 0 0 1-14.5 0h-14.5a7.25 7.25 0 1 1-14.5 0H2.417V29a4.817 4.817 0 0 1 4.833-4.833L14.5 14.5h24.167Zm-13.292 3.625h-9.063l-4.567 6.042h13.63v-6.042Zm3.625 0v6.042h12.422l-4.568-6.042H29Zm-14.5 14.5a3.625 3.625 0 1 0 0 7.25 3.625 3.625 0 0 0 0-7.25Zm29 0a3.625 3.625 0 1 0 0 7.25 3.625 3.625 0 0 0 0-7.25Z"/>
</svg>
