<svg xmlns="http://www.w3.org/2000/svg" width="58" height="58" fill="none" viewBox="0 0 58 58">
  <path fill="#011034" fill-rule="evenodd" d="M43.81 20.303c4.886-.876 8.053-4.347 7.927-6.977-.203-4.245-3.268-6.378-9.875-6.405h-.084a1.44 1.44 0 0 1-1.434-1.283 1.235 1.235 0 0 1 1.16-1.37l.24-.015c1.965-.125 4.138-.197 5.31.08 4.89 1.16 7.603 4.107 7.83 8.842.182 3.766-2.62 7.447-6.563 10.357a5.754 5.754 0 0 1-.115.083c.764 1.336 1.251 2.828 1.466 4.477.743 4.772.052 7.74.582 9.706.531 1.967 2.948 3.045 3.901 5.242.953 2.196.777 3.16.498 4.889-.165 1.025-.538 2.525-1.117 4.497a1.05 1.05 0 0 1-1.008.754h-3.491c-.58 0-1.05-.47-1.05-1.05v-.53a1.05 1.05 0 0 1 1.061-1.05c.471.006.873-.118 1.206-.373.84-.642.91-1 .91-2.25 0-.832-.303-1.67-.91-2.513-2.434-1.582-4.47-2.82-6.265-3.728-.184 1.824-.55 3.484-1.09 4.977-.57 1.57-1.56 3.568-2.97 5.993a1.05 1.05 0 0 1-.909.523h-2.763c-.57 0-1.035-.454-1.049-1.023l-.012-.477a1.05 1.05 0 0 1 1-1.077l1.445-.068a1.05 1.05 0 0 0 .94-.7c.479-1.36.676-2.694.59-4.007-.097-1.48-.589-3.497-1.476-6.055-3.687-.033-11.167 1.567-12.89 1.71a7.33 7.33 0 0 1-1.25-.006 14.604 14.604 0 0 0-.646 3.354c-.107 1.378-.116 3.803-.03 7.273a1.05 1.05 0 0 1-1.05 1.076h-2.87c-.58 0-1.05-.47-1.05-1.05v-.721c0-.58.47-1.05 1.05-1.05h.443a1.019 1.019 0 0 0 .957-1.37 28.81 28.81 0 0 1-1.265-4.525l-3.45 8.079a1.052 1.052 0 0 1-.967.637h-3.811c-.58 0-1.052-.47-1.052-1.05v-.537c0-.51.366-.946.867-1.034l1.815-.322a1.05 1.05 0 0 0 .593-.327c.738-.81 1.212-1.822 1.425-3.031.527-2.984.86-3.307 0-6.176-.28-.938-2.332-1.851-3.645-6.004-.842-2.657-1.588-7.172-2.24-13.543a1.05 1.05 0 0 0-.876-.93l-2.017-.327a1.055 1.055 0 0 1-.742-.51l-1.597-2.76a1.092 1.092 0 0 0-.043-.069 1.284 1.284 0 0 1-.247-.737c0-.203.053-.413.159-.63a1.06 1.06 0 0 1 .224-.304l2.087-1.96c.145-.138.25-.314.3-.508l.118-.469c.105-.417.337-.793.663-1.075.627-.54 1.09-.903 1.39-1.087.372-.23 1.147-.505 2.322-.825-.597-.835-.924-1.565-.982-2.191-.088-.94-.163-1.87.217-1.906.255-.024.9.676 1.934 2.1-.08-1.799.1-2.594.546-2.384.445.21 1.42 1.422 2.93 3.639L16.489 9.9a7.35 7.35 0 0 1 1.542 2.82c.743 2.59 1.452 4.453 2.123 5.592 1.2 2.032 2.672 4.535 7.455 4.164 4.782-.37 6.39-1.338 9.576-1.84a45.253 45.253 0 0 1 4.922-.477 6.567 6.567 0 0 1 1.704.144Z" clip-rule="evenodd"/>
</svg>
