<svg xmlns="http://www.w3.org/2000/svg" width="58" height="58" fill="none" viewBox="0 0 58 58">
  <path fill="#011034" d="M38.063 46.23c-2.006 0-3.626-2.03-3.626-4.543 0-2.489 1.62-4.519 3.626-4.519 2.005 0 3.624 2.03 3.624 4.52 0 2.513-1.619 4.543-3.624 4.543ZM29 27.188c-2.997 0-5.438-2.03-5.438-4.519 0-2.513 2.441-4.543 5.438-4.543s5.438 2.03 5.438 4.543c0 2.49-2.441 4.52-5.438 4.52Zm-9.063 19.044c-2.005 0-3.625-2.03-3.625-4.544 0-2.489 1.62-4.519 3.625-4.519 2.006 0 3.625 2.03 3.625 4.52 0 2.513-1.619 4.543-3.625 4.543ZM29 19.937c.99 0 1.813.822 1.813 1.813 0 .99-.822 1.812-1.813 1.812-.99 0-1.813-.821-1.813-1.812 0-.99.822-1.813 1.813-1.813ZM45.313 29a5.22 5.22 0 0 0-2.2.483c-1.16-1.474-2.73-2.73-4.615-3.697 1.377-1.934 2.199-4.278 2.199-6.815v-.145a5.84 5.84 0 0 0 4.615-5.728c0-3.214-2.634-5.848-5.848-5.848-1.667 0-3.214.7-4.229 1.812a11.624 11.624 0 0 0-12.47 0c-1.015-1.111-2.562-1.812-4.23-1.812-3.213 0-5.848 2.634-5.848 5.848 0 2.804 1.982 5.148 4.592 5.728v.145c0 2.537.846 4.906 2.2 6.815-1.861.966-3.432 2.223-4.592 3.697a5.412 5.412 0 0 0-7.637 4.954 5.415 5.415 0 0 0 5.438 5.438h.144c-.096.58-.145 1.208-.145 1.812 0 5.003 3.239 9.063 7.25 9.063 2.441 0 4.592-1.523 5.921-3.843a22.12 22.12 0 0 0 3.142.218 22.11 22.11 0 0 0 3.142-.218c1.329 2.32 3.48 3.843 5.92 3.843 4.012 0 7.25-4.06 7.25-9.063 0-.604-.048-1.232-.145-1.812h.145a5.415 5.415 0 0 0 5.438-5.438A5.415 5.415 0 0 0 45.312 29Z"/>
</svg>
