<svg xmlns="http://www.w3.org/2000/svg" width="58" height="58" fill="none" viewBox="0 0 58 58">
  <path fill="#011034" d="M15.1 3.785 8.823 5.352 3.92 16.8l3.77 2.514 3.111-6.219 1.932.555-1.707 17.004h16.75l1.043-9.958.102-.917h.51l-.612-6.129 1.937-.555 3.104 6.22 3.772-2.515-4.905-11.448-6.276-1.567c-.623.438-1.382.703-2.209.9-1.065.25-2.265.367-3.466.367s-2.402-.116-3.467-.367c-.827-.197-1.586-.46-2.209-.9Zm15.656 18.033-.17 1.586h20.255l-.17-1.586H30.756Zm-.385 3.625-3.025 28.773h7.103l5.267-24.57h1.994l5.268 24.57h7.102l-3.024-28.773H30.37Z"/>
</svg>
