<svg xmlns="http://www.w3.org/2000/svg" width="55" height="58" fill="none" viewBox="0 0 55 58">
  <path fill="#61D85A" d="M49.054 0H5.946c-1.577 0-3.09.66-4.204 1.837C.626 3.012 0 4.607 0 6.27v45.46c0 1.663.626 3.258 1.742 4.434C2.857 57.338 4.369 58 5.946 58h43.108c1.577 0 3.09-.66 4.204-1.837C54.374 54.989 55 53.393 55 51.73V6.27c0-1.663-.626-3.258-1.742-4.433C52.143.66 50.631 0 49.054 0Z"/>
  <path fill="#000" d="M27.488 41.36c-2.613 0-4.893-.587-6.84-1.76-1.92-1.2-3.413-2.88-4.48-5.04-1.04-2.16-1.56-4.72-1.56-7.68 0-2.24.293-4.24.88-6 .613-1.787 1.48-3.293 2.6-4.52a11.214 11.214 0 0 1 4.04-2.88c1.6-.693 3.387-1.04 5.36-1.04 2.667 0 4.96.587 6.88 1.76 1.947 1.173 3.44 2.84 4.48 5 1.067 2.133 1.6 4.68 1.6 7.64 0 2.24-.307 4.253-.92 6.04s-1.48 3.307-2.6 4.56c-1.12 1.253-2.48 2.227-4.08 2.92-1.573.667-3.36 1-5.36 1Zm0-2.92c2.027 0 3.733-.453 5.12-1.36 1.413-.907 2.493-2.227 3.24-3.96.747-1.733 1.12-3.813 1.12-6.24 0-3.653-.827-6.48-2.48-8.48-1.627-2.027-3.96-3.04-7-3.04-1.973 0-3.667.453-5.08 1.36-1.387.907-2.453 2.227-3.2 3.96-.747 1.707-1.12 3.773-1.12 6.2 0 3.627.827 6.467 2.48 8.52 1.653 2.027 3.96 3.04 6.92 3.04Z"/>
</svg>
