<svg xmlns="http://www.w3.org/2000/svg" width="51" height="50" fill="none" viewBox="0 0 51 50">
  <path fill="#61D85A" d="M44.764 0H5.575A5.405 5.405 0 0 0 .17 5.405v39.19A5.405 5.405 0 0 0 5.575 50h39.19a5.405 5.405 0 0 0 5.405-5.405V5.405A5.405 5.405 0 0 0 44.764 0Z"/>
  <path fill="#000" d="M25.16 36.315c-2.287 0-4.282-.513-5.986-1.54-1.68-1.05-2.986-2.52-3.92-4.41-.91-1.89-1.365-4.13-1.365-6.72 0-1.96.257-3.71.77-5.25.537-1.563 1.295-2.882 2.275-3.955a9.811 9.811 0 0 1 3.535-2.52c1.4-.607 2.964-.91 4.69-.91 2.334 0 4.34.513 6.02 1.54 1.704 1.027 3.01 2.485 3.92 4.375.934 1.867 1.4 4.095 1.4 6.685 0 1.96-.268 3.722-.805 5.285-.536 1.563-1.295 2.893-2.275 3.99a10.112 10.112 0 0 1-3.57 2.555c-1.376.583-2.94.875-4.69.875Zm0-2.555c1.773 0 3.266-.397 4.48-1.19 1.236-.793 2.181-1.948 2.834-3.465.654-1.517.98-3.337.98-5.46 0-3.197-.723-5.67-2.17-7.42-1.423-1.773-3.465-2.66-6.125-2.66-1.726 0-3.208.397-4.445 1.19-1.213.793-2.146 1.948-2.8 3.465-.653 1.493-.98 3.302-.98 5.425 0 3.173.724 5.658 2.17 7.455 1.447 1.773 3.465 2.66 6.055 2.66Z"/>
</svg>
