<svg xmlns="http://www.w3.org/2000/svg" width="40" height="40" fill="none" viewBox="0 0 40 40">
  <path fill="#FFC107" d="M36.343 16.736H35v-.07H20v6.667h9.42C28.044 27.214 24.351 30 20 30c-5.523 0-10-4.478-10-10 0-5.523 4.477-10 10-10 2.55 0 4.868.962 6.634 2.532l4.714-4.714C28.372 5.044 24.39 3.333 20 3.333 10.796 3.333 3.333 10.796 3.333 20S10.796 36.667 20 36.667 36.667 29.204 36.667 20c0-1.118-.115-2.208-.325-3.264Z"/>
  <path fill="#FF3D00" d="m5.255 12.242 5.476 4.016C12.213 12.59 15.8 10 20 10c2.55 0 4.868.962 6.634 2.532l4.714-4.714C28.372 5.044 24.39 3.333 20 3.333c-6.402 0-11.953 3.614-14.745 8.91Z"/>
  <path fill="#4CAF50" d="M20 36.667c4.305 0 8.217-1.648 11.174-4.327l-5.158-4.365A9.925 9.925 0 0 1 20 30c-4.335 0-8.016-2.764-9.402-6.622l-5.435 4.188c2.758 5.397 8.36 9.1 14.837 9.1Z"/>
  <path fill="#1976D2" d="M36.343 16.736H35v-.07H20v6.667h9.42a10.034 10.034 0 0 1-3.407 4.643l.003-.002 5.158 4.365c-.365.332 5.493-4.006 5.493-12.339a16.72 16.72 0 0 0-.325-3.264Z"/>
</svg>
