<svg xmlns="http://www.w3.org/2000/svg" width="25" height="25" fill="none" viewBox="0 0 25 25">
  <path fill="#049CE4" d="m6.027 8.156 5.914-6.351a.775.775 0 0 1 1.118-.008l5.914 6.351c.437.466.093 1.222-.555 1.222h-2.844c-.273 0-.5.221-.5.488v4.058a.917.917 0 0 1-.93.909h-3.296c-.508 0-.93-.405-.922-.9v-4.06a.498.498 0 0 0-.5-.488H6.582c-.648 0-.992-.747-.555-1.22Zm3.692 8.108H4.688a.783.783 0 0 0-.782.781c0 .43.352.782.781.782h1.735v4.82c0 .43.351.781.781.781.43 0 .781-.351.781-.781v-4.82H9.72c.43 0 .781-.352.781-.782a.779.779 0 0 0-.781-.78Zm7.336.008h2.164c1.18 0 2.14.96 2.14 2.14 0 1.18-.96 2.141-2.14 2.141h-1.383v2.102c0 .43-.352.781-.781.781a.784.784 0 0 1-.782-.781v-5.602c0-.43.352-.781.782-.781Zm.78 2.719h1.384c.32 0 .578-.258.578-.578a.577.577 0 0 0-.578-.579h-1.383v1.157ZM10.5 20.983a2.459 2.459 0 0 0 2.46 2.453 2.464 2.464 0 0 0 2.462-2.453v-2.25a2.459 2.459 0 0 0-2.461-2.453 2.459 2.459 0 0 0-2.461 2.453v2.25Zm1.563-2.25a.899.899 0 0 1 1.796 0v2.25a.899.899 0 0 1-1.796 0v-2.25Z"/>
</svg>
