<svg width="136" height="25" viewBox="0 0 136 25" fill="none" xmlns="http://www.w3.org/2000/svg">
<path d="M12.5 0L15.3064 8.63729H24.3882L17.0409 13.9754L19.8473 22.6127L12.5 17.2746L5.15268 22.6127L7.95911 13.9754L0.611794 8.63729H9.69357L12.5 0Z" fill="#FFC107"/>
<path d="M39.6071 0L42.2131 8.63729H50.6462L43.8237 13.9754L46.4296 22.6127L39.6071 17.2746L32.7846 22.6127L35.3906 13.9754L28.5681 8.63729H37.0012L39.6071 0Z" fill="#FFC107"/>
<path d="M66.7143 0L69.5207 8.63729H78.6025L71.2552 13.9754L74.0616 22.6127L66.7143 17.2746L59.367 22.6127L62.1734 13.9754L54.8261 8.63729H63.9079L66.7143 0Z" fill="#FFC107"/>
<path d="M94.7143 1.61804L97.0452 8.7918L97.1574 9.13729H97.5207H105.064L98.9613 13.5709L98.6674 13.7844L98.7797 14.1299L101.111 21.3037L95.0082 16.8701L94.7143 16.6565L94.4204 16.8701L88.318 21.3037L90.6489 14.1299L90.7612 13.7844L90.4673 13.5709L84.3649 9.13729H91.9079H92.2711L92.3834 8.7918L94.7143 1.61804Z" stroke="#737070"/>
<path d="M122.714 1.61804L125.045 8.7918L125.157 9.13729H125.521H133.064L126.961 13.5709L126.667 13.7844L126.78 14.1299L129.111 21.3037L123.008 16.8701L122.714 16.6565L122.42 16.8701L116.318 21.3037L118.649 14.1299L118.761 13.7844L118.467 13.5709L112.365 9.13729H119.908H120.271L120.383 8.7918L122.714 1.61804Z" stroke="#737070"/>
</svg>
