<svg xmlns="http://www.w3.org/2000/svg" width="58" height="58" fill="none" viewBox="0 0 58 58">
  <path fill="#011034" d="M53.934 12.76H4.084c-1.603 0-2.915 1.458-2.915 2.9s1.312 2.899 2.915 2.899h.704v5.8h48.513v-5.8h.633c1.604 0 2.915-1.457 2.915-2.899s-1.31-2.9-2.915-2.9ZM29.01 21.483c-.805 0-1.457-.671-1.457-1.498 0-.828.652-1.5 1.457-1.5.806 0 1.457.672 1.457 1.5 0 .827-.65 1.498-1.457 1.498ZM4.79 35.958H53.3V26.68H4.788v9.278Zm24.22-6.234c.806 0 1.457.67 1.457 1.497 0 .829-.65 1.5-1.457 1.5-.805 0-1.457-.671-1.457-1.5 0-.827.652-1.497 1.457-1.497ZM4.79 43.958v6.744c0 .824.103 1.5.904 1.5h5.828c.802 0 1.165-.676 1.165-1.5V46.4h32.718v4.303c0 .824.292 1.5 1.092 1.5h5.83c.798 0 .974-.676.974-1.5V38.28H4.788v5.678Zm24.22-2.996c.806 0 1.457.672 1.457 1.497 0 .83-.65 1.498-1.457 1.498-.805 0-1.457-.668-1.457-1.498 0-.824.652-1.497 1.457-1.497Z"/>
</svg>
