<svg xmlns="http://www.w3.org/2000/svg" width="58" height="58" fill="none" viewBox="0 0 58 58">
  <path fill="#011034" d="M14.5 7.25a4.833 4.833 0 0 0-4.833 4.833v26.584H14.5v2.416a2.424 2.424 0 0 0 2.417 2.417h2.416a2.424 2.424 0 0 0 2.417-2.417v-2.416h14.5v2.416a2.424 2.424 0 0 0 2.417 2.417h2.416a2.424 2.424 0 0 0 2.417-2.417v-2.416h4.833V12.083A4.834 4.834 0 0 0 43.5 7.25h-29ZM29 16.917v-4.834h14.5v4.834H29Zm0 4.833h14.5v4.833H29V21.75Zm-9.667-9.667v9.667h4.834l-7.25 14.5v-9.667h-4.834l7.25-14.5Zm33.834 36.25v4.834H4.833v-4.834h48.334Z"/>
</svg>
