<svg xmlns="http://www.w3.org/2000/svg" width="278" height="72" fill="none" viewBox="0 0 278 72">
  <path fill="#000" d="M53.276 46.354c-.45 1.118-.875 2.273-1.375 3.395-1.64 3.683-3.906 6.959-6.59 9.944-1.148 1.279-2.482 2.334-4.118 2.948-1.737.65-3.485.577-5.218.046-1.2-.37-2.37-.835-3.56-1.242-1.643-.559-3.328-.902-5.08-.805-1.595.09-3.127.462-4.61 1.025-1.38.521-2.747 1.055-4.197 1.355-2.21.458-4.152-.129-5.915-1.444-1.811-1.35-3.22-3.075-4.577-4.853-1.864-2.441-3.451-5.043-4.685-7.857C1.92 45.59.857 42.198.354 38.657c-.559-3.943-.548-7.879.705-11.71 1.48-4.537 4.215-8.059 8.546-10.228 2.318-1.159 4.778-1.718 7.369-1.569 1.688.093 3.283.63 4.871 1.181 1.308.455 2.632.884 3.94 1.35 1.077.38 2.095.141 3.12-.213 1.822-.622 3.64-1.26 5.482-1.83 2.11-.656 4.257-.85 6.463-.518 2.229.336 4.35.947 6.303 2.084 1.759 1.02 3.205 2.378 4.401 4.08-4.9 2.968-7.42 7.247-7.014 13.02.41 5.758 3.638 9.556 8.736 12.05Z"/>
  <path fill="#000" d="M39.873.005c0 .857.066 1.699-.01 2.526-.263 2.898-1.524 5.37-3.376 7.557-1.353 1.593-2.91 2.956-4.816 3.868-1.553.743-3.186 1.097-4.947.951-.156-.871-.113-1.753.008-2.632.434-3.102 1.87-5.716 3.995-7.965 1.396-1.476 3.102-2.515 4.965-3.306C36.913.49 38.175.133 39.498.005c.11-.011.215 0 .375 0Zm38.892 48.519h11.459l-3.528-9.36c-1.077-2.843-1.876-5.18-2.398-7.006a43.09 43.09 0 0 1-1.82 6.453l-3.713 9.913Zm-9.751 13.877L81.99 28.606h4.818L100.642 62.4h-5.095l-3.941-10.235h-14.13L73.763 62.4h-4.75Zm38.429-12.102c0 3.151.637 5.479 1.912 6.984 1.275 1.508 2.821 2.26 4.634 2.26 1.846 0 3.425-.78 4.737-2.34 1.313-1.56 1.971-3.976 1.971-7.25 0-3.12-.641-5.456-1.925-7.008-1.283-1.553-2.816-2.328-4.596-2.328-1.771 0-3.333.826-4.692 2.478-1.362 1.653-2.041 4.053-2.041 7.204Zm-3.759 21.484V37.92h3.784v3.182c.887-1.246 1.896-2.18 3.016-2.802 1.121-.622 2.484-.933 4.08-.933 2.092 0 3.937.538 5.533 1.613 1.6 1.076 2.805 2.594 3.621 4.553.813 1.96 1.221 4.108 1.221 6.444 0 2.504-.45 4.76-1.35 6.766-.9 2.005-2.204 3.542-3.917 4.61-1.716 1.068-3.516 1.602-5.404 1.602-1.383 0-2.625-.292-3.725-.877-1.1-.583-2-1.32-2.709-2.212v11.917h-4.15Zm30.014-21.484c0 3.151.641 5.48 1.913 6.984 1.277 1.507 2.822 2.26 4.635 2.26 1.844 0 3.424-.78 4.739-2.34 1.312-1.56 1.97-3.976 1.97-7.25 0-3.12-.641-5.456-1.926-7.008-1.281-1.552-2.818-2.328-4.597-2.328-1.77 0-3.332.825-4.691 2.478-1.363 1.652-2.043 4.054-2.043 7.204Zm-3.756 21.484V37.92h3.782v3.182c.892-1.246 1.896-2.18 3.021-2.802 1.121-.622 2.48-.933 4.077-.933 2.09 0 3.938.538 5.535 1.613 1.597 1.076 2.805 2.594 3.619 4.553.813 1.96 1.22 4.108 1.22 6.444 0 2.504-.45 4.76-1.346 6.765-.9 2.006-2.207 3.543-3.921 4.61-1.714 1.069-3.514 1.603-5.406 1.603-1.385 0-2.622-.292-3.722-.877-1.099-.583-2.003-1.321-2.709-2.212v11.917h-4.15Zm38.381-20.239 4.221-.368c.197 1.69.662 3.076 1.393 4.16.731 1.083 1.862 1.96 3.398 2.627 1.54.67 3.269 1.004 5.191 1.004 1.701 0 3.21-.255 4.515-.762 1.306-.506 2.281-1.201 2.92-2.085.635-.885.956-1.85.956-2.894 0-1.06-.308-1.987-.924-2.777-.616-.792-1.627-1.456-3.044-1.994-.905-.355-2.91-.904-6.014-1.649-3.104-.746-5.278-1.448-6.524-2.11-1.614-.845-2.819-1.894-3.61-3.146-.791-1.252-1.186-2.654-1.186-4.207 0-1.706.483-3.3 1.453-4.784.97-1.481 2.382-2.607 4.239-3.376 1.862-.77 3.927-1.153 6.203-1.153 2.506 0 4.713.404 6.626 1.21 1.917.807 3.388 1.994 4.418 3.562 1.026 1.568 1.582 3.342 1.656 5.324l-4.286.324c-.23-2.137-1.011-3.75-2.34-4.842-1.329-1.09-3.292-1.636-5.89-1.636-2.704 0-4.676.495-5.913 1.486s-1.853 2.187-1.853 3.585c0 1.215.437 2.213 1.31 2.997.865.784 3.108 1.587 6.746 2.409 3.632.822 6.129 1.541 7.481 2.156 1.967.907 3.416 2.055 4.354 3.447.938 1.39 1.407 2.992 1.407 4.805 0 1.798-.515 3.493-1.545 5.084-1.03 1.59-2.511 2.827-4.437 3.712-1.927.883-4.102 1.324-6.511 1.324-3.058 0-5.623-.446-7.688-1.337-2.069-.891-3.688-2.232-4.865-4.022s-1.793-3.815-1.857-6.074Zm41.541 7.146.601 3.664c-1.169.247-2.215.37-3.134.37-1.506 0-2.674-.238-3.505-.715-.83-.477-1.412-1.102-1.75-1.88-.342-.775-.511-2.408-.511-4.897V41.147h-3.04V37.92h3.04v-6.063l4.128-2.49v8.553h4.171v3.227h-4.171v14.315c0 1.183.071 1.944.221 2.282.145.338.385.606.713.807.328.2.802.3 1.417.3.46 0 1.069-.053 1.82-.16Zm6.777-8.53c0 3.135.687 5.482 2.053 7.043 1.366 1.558 3.086 2.338 5.164 2.338 2.059 0 3.774-.783 5.14-2.351 1.37-1.566 2.053-3.957 2.053-7.17 0-3.026-.687-5.32-2.063-6.88-1.376-1.56-3.086-2.34-5.13-2.34-2.078 0-3.798.776-5.164 2.328-1.366 1.552-2.053 3.896-2.053 7.032Zm-4.263 0c0-4.533 1.259-7.891 3.778-10.074 2.107-1.813 4.675-2.72 7.702-2.72 3.367 0 6.118 1.102 8.254 3.308 2.136 2.205 3.202 5.25 3.202 9.14 0 3.15-.47 5.628-1.419 7.434-.945 1.806-2.32 3.208-4.122 4.207-1.807.999-3.779 1.5-5.915 1.5-3.429 0-6.2-1.1-8.312-3.298-2.112-2.198-3.168-5.364-3.168-9.497Zm27.755 12.241v-24.48h3.736v3.71c.951-1.737 1.828-2.881 2.636-3.434a4.613 4.613 0 0 1 2.666-.83c1.397 0 2.815.445 4.261 1.336l-1.427 3.85c-1.015-.6-2.031-.898-3.042-.898-.907 0-1.724.272-2.443.817-.723.546-1.239 1.303-1.546 2.27-.461 1.476-.694 3.09-.694 4.842V62.4h-4.147Zm18.904-14.592h13.668c-.183-2.06-.703-3.605-1.565-4.634-1.321-1.6-3.035-2.398-5.141-2.398-1.908 0-3.509.637-4.81 1.913-1.295 1.276-2.015 2.982-2.152 5.119Zm13.623 6.708 4.289.53c-.678 2.504-1.928 4.449-3.759 5.833-1.826 1.381-4.162 2.074-7.008 2.074-3.58 0-6.421-1.104-8.517-3.308-2.096-2.206-3.147-5.298-3.147-9.28 0-4.117 1.061-7.314 3.183-9.59 2.121-2.274 4.87-3.41 8.252-3.41 3.274 0 5.947 1.114 8.022 3.342 2.071 2.228 3.112 5.364 3.112 9.405 0 .247-.011.616-.026 1.107h-18.254c.153 2.688.913 4.75 2.28 6.178 1.367 1.429 3.076 2.143 5.121 2.143 1.52 0 2.82-.399 3.891-1.197 1.076-.8 1.928-2.076 2.561-3.827ZM71.495 21.756h3.998c1.238 0 2.206-.118 2.907-.345.702-.231 1.262-.557 1.681-.972.588-.588 1.047-1.38 1.372-2.37.33-.992.494-2.195.494-3.61 0-1.96-.322-3.464-.964-4.518-.643-1.05-1.427-1.756-2.344-2.116-.666-.255-1.736-.38-3.21-.38h-3.934v14.31Zm-2.48 2.21V5.234h6.454c1.454 0 2.567.086 3.335.267 1.074.247 1.987.693 2.747 1.34.987.835 1.728 1.904 2.218 3.202.49 1.3.733 2.786.733 4.455 0 1.423-.165 2.68-.498 3.782-.333 1.097-.756 2.006-1.278 2.727-.52.721-1.089 1.285-1.704 1.7-.62.412-1.364.726-2.238.941-.874.212-1.877.318-3.01.318h-6.76Zm20.111-6.786c0 1.737.381 3.04 1.14 3.907.757.862 1.712 1.295 2.863 1.295 1.139 0 2.09-.437 2.847-1.303.758-.87 1.14-2.194 1.14-3.975 0-1.676-.382-2.947-1.144-3.814-.766-.866-1.712-1.295-2.843-1.295-1.151 0-2.106.429-2.864 1.287-.758.862-1.139 2.162-1.139 3.898Zm-2.362 0c0-2.514.698-4.375 2.097-5.582 1.163-1.007 2.587-1.508 4.268-1.508 1.865 0 3.389.61 4.572 1.833 1.187 1.223 1.777 2.911 1.777 5.065 0 1.749-.261 3.12-.786 4.123a5.567 5.567 0 0 1-2.287 2.33 6.666 6.666 0 0 1-3.276.83c-1.901 0-3.437-.61-4.609-1.825-1.17-1.219-1.756-2.976-1.756-5.266Zm17.917 6.786-4.157-13.57h2.38l2.157 7.832.805 2.913c.037-.145.269-1.078.703-2.797l2.16-7.949h2.363l2.033 7.87.677 2.595.781-2.62 2.326-7.845h2.235l-4.243 13.57h-2.388l-2.16-8.129-.525-2.31-2.747 10.44h-2.4Zm16.393-.001V10.393h2.072v1.928c.998-1.486 2.434-2.232 4.316-2.232.821 0 1.57.144 2.257.438.686.295 1.2.678 1.541 1.158.341.476.577 1.045.716 1.701.084.424.126 1.17.126 2.234v8.345h-2.299v-8.256c0-.936-.088-1.636-.27-2.1-.176-.467-.496-.837-.951-1.111-.455-.278-.99-.417-1.604-.417-.977 0-1.824.312-2.535.935-.712.619-1.066 1.799-1.066 3.537v7.412h-2.303Zm14.503 0V5.232h2.302v18.733h-2.302Zm7.375-6.785c0 1.737.378 3.04 1.137 3.904.756.865 1.711 1.296 2.861 1.296 1.142 0 2.092-.434 2.848-1.302.759-.87 1.137-2.195 1.137-3.976 0-1.677-.378-2.948-1.142-3.814-.764-.865-1.71-1.296-2.843-1.296-1.15 0-2.105.43-2.861 1.29-.759.861-1.137 2.16-1.137 3.897Zm-2.366 0c0-2.513.699-4.375 2.097-5.585 1.168-1.005 2.587-1.507 4.267-1.507 1.867 0 3.39.611 4.575 1.834 1.185 1.222 1.776 2.91 1.776 5.066 0 1.747-.261 3.12-.786 4.122a5.561 5.561 0 0 1-2.288 2.332 6.66 6.66 0 0 1-3.277.83c-1.901 0-3.434-.61-4.606-1.828-1.172-1.217-1.758-2.973-1.758-5.265Zm24.077-.026c-.837.34-2.086.63-3.756.87-.948.135-1.616.288-2.011.459a1.965 1.965 0 0 0-1.222 1.84c0 .614.23 1.125.695 1.533.465.41 1.143.613 2.038.613.886 0 1.674-.192 2.365-.58.686-.387 1.196-.919 1.519-1.591.248-.52.372-1.287.372-2.3v-.844Zm.191 5.137c-.851.724-1.675 1.235-2.459 1.534a7.102 7.102 0 0 1-2.538.447c-1.492 0-2.635-.364-3.437-1.093-.801-.729-1.2-1.659-1.2-2.792a3.777 3.777 0 0 1 1.639-3.144 5.672 5.672 0 0 1 1.656-.754c.452-.118 1.134-.234 2.047-.345 1.856-.22 3.224-.484 4.101-.791.005-.316.014-.516.014-.602 0-.936-.222-1.596-.656-1.98-.585-.52-1.457-.779-2.618-.779-1.08 0-1.882.19-2.396.569-.514.378-.899 1.05-1.143 2.012l-2.25-.306c.204-.963.541-1.74 1.01-2.333.47-.593 1.147-1.047 2.033-1.368.886-.319 1.909-.478 3.078-.478 1.161 0 2.1.136 2.822.41.726.272 1.258.614 1.599 1.026.341.415.58.937.717 1.567.076.39.116 1.099.116 2.122v3.065c0 2.139.048 3.49.146 4.059.097.565.292 1.108.58 1.628h-2.401c-.239-.476-.394-1.034-.46-1.674Zm7.23-5.098c0 1.737.366 3.036 1.102 3.897.731.86 1.597 1.29 2.59 1.29 1.007 0 1.86-.411 2.564-1.234.704-.82 1.056-2.076 1.056-3.762 0-1.858-.356-3.22-1.074-4.088-.717-.87-1.598-1.304-2.645-1.304-1.024 0-1.878.417-2.564 1.252-.686.835-1.029 2.15-1.029 3.949Zm7.272 6.772v-1.712c-.862 1.346-2.126 2.019-3.796 2.019a5.336 5.336 0 0 1-2.984-.894c-.907-.598-1.607-1.43-2.108-2.499-.496-1.07-.745-2.298-.745-3.686 0-1.355.226-2.584.678-3.688.451-1.102 1.128-1.948 2.031-2.536.903-.588 1.914-.881 3.029-.881.817 0 1.543.172 2.184.517a4.56 4.56 0 0 1 1.557 1.348v-6.72h2.289v18.732h-2.135Zm14.531-6.786c0 1.738.377 3.04 1.136 3.905.758.864 1.712 1.296 2.862 1.296 1.14 0 2.094-.434 2.847-1.302.759-.87 1.14-2.195 1.14-3.976 0-1.677-.381-2.948-1.144-3.814-.763-.864-1.708-1.296-2.843-1.296-1.15 0-2.104.43-2.862 1.29-.759.86-1.136 2.16-1.136 3.897Zm-2.364 0c0-2.512.698-4.374 2.094-5.584 1.168-1.005 2.592-1.508 4.268-1.508 1.866 0 3.392.612 4.574 1.834 1.186 1.223 1.777 2.912 1.777 5.067 0 1.746-.26 3.12-.786 4.12a5.575 5.575 0 0 1-2.285 2.334 6.678 6.678 0 0 1-3.28.83c-1.899 0-3.435-.61-4.607-1.828-1.173-1.218-1.755-2.973-1.755-5.265Zm15.409 6.787V10.395h2.07v1.929c.995-1.49 2.435-2.236 4.321-2.236.815 0 1.568.147 2.255.441.687.294 1.199.679 1.54 1.157.341.477.578 1.042.715 1.7.085.425.128 1.17.128 2.235v8.345h-2.303V15.71c0-.936-.09-1.637-.265-2.101a2.219 2.219 0 0 0-.952-1.112c-.455-.276-.99-.416-1.606-.416-.981 0-1.824.312-2.535.934-.71.622-1.066 1.8-1.066 3.539v7.412h-2.302Zm26.845-2.057.334 2.032a8.532 8.532 0 0 1-1.736.203c-.837 0-1.485-.13-1.945-.395-.459-.264-.783-.611-.972-1.041-.184-.43-.28-1.336-.28-2.716v-7.809h-1.688v-1.788h1.688V7.034l2.287-1.38v4.74h2.312v1.79h-2.312v7.935c0 .657.039 1.078.121 1.266a.963.963 0 0 0 .397.447c.184.111.445.166.788.166.256 0 .59-.03 1.006-.09Zm2.253 2.057V5.233h2.301v6.72c1.072-1.243 2.424-1.864 4.061-1.864 1.003 0 1.878.198 2.62.593.743.396 1.274.945 1.588 1.642.325.698.482 1.713.482 3.042v8.6h-2.301v-8.6c0-1.15-.251-1.987-.747-2.51-.497-.526-1.205-.787-2.114-.787a3.72 3.72 0 0 0-1.922.53 3.002 3.002 0 0 0-1.288 1.438c-.251.605-.379 1.44-.379 2.505v7.424h-2.301Zm16.293-8.089h7.575c-.1-1.142-.391-1.998-.867-2.569-.731-.886-1.683-1.329-2.85-1.329-1.058 0-1.944.354-2.666 1.06-.721.707-1.117 1.653-1.192 2.838Zm7.55 3.717 2.379.294c-.375 1.39-1.072 2.467-2.084 3.233-1.012.768-2.309 1.15-3.887 1.15-1.984 0-3.557-.61-4.719-1.833-1.163-1.223-1.744-2.938-1.744-5.143 0-2.283.586-4.056 1.764-5.316 1.172-1.261 2.7-1.891 4.573-1.891 1.814 0 3.297.617 4.444 1.852 1.152 1.235 1.728 2.974 1.728 5.214 0 .136-.005.34-.015.613h-10.119c.085 1.491.506 2.632 1.267 3.425.757.792 1.704 1.188 2.836 1.188.841 0 1.563-.22 2.159-.664.596-.443 1.067-1.15 1.418-2.122Z"/>
</svg>
