<svg xmlns="http://www.w3.org/2000/svg" width="55" height="58" fill="none" viewBox="0 0 55 58">
  <path fill="#254ACE" fill-rule="evenodd" d="M18.333 14.5a4.97 4.97 0 0 1 1.343-3.418 4.466 4.466 0 0 1 3.24-1.415h22.917c1.216 0 2.382.509 3.241 1.415a4.97 4.97 0 0 1 1.343 3.418v16.917a4.97 4.97 0 0 1-1.343 3.417 4.466 4.466 0 0 1-3.24 1.416h-11.46L20.93 46.883a6.644 6.644 0 0 1-4.125 1.45h-9.93c-.608 0-1.19-.254-1.62-.707a2.485 2.485 0 0 1-.672-1.71c0-.64.242-1.255.672-1.708a2.233 2.233 0 0 1 1.62-.708h9.93c.496 0 .978-.17 1.375-.483l14.999-11.861-.656-.691a4.48 4.48 0 0 0-2.987-1.41 4.427 4.427 0 0 0-3.118 1.052l-6.652 5.614a2.253 2.253 0 0 1-.794.434 2.177 2.177 0 0 1-1.744-.204 2.326 2.326 0 0 1-.684-.607 2.465 2.465 0 0 1-.412-.837 2.545 2.545 0 0 1 .193-1.84 2.39 2.39 0 0 1 .576-.721l1.432-1.208v-8.811a6.783 6.783 0 0 0-3.355 1.947L8.495 30.71a2.23 2.23 0 0 1-1.612.678 2.234 2.234 0 0 1-1.6-.708 2.484 2.484 0 0 1-.671-1.688 2.489 2.489 0 0 1 .643-1.7l6.478-6.836c1.783-1.878 4.102-3.084 6.6-3.432V14.5Zm4.584 7.25v-2.417c0-.64-.242-1.255-.672-1.708a2.233 2.233 0 0 0-1.62-.708h25.208c.608 0 1.191.254 1.62.708.43.453.672 1.067.672 1.708s-.241 1.256-.671 1.71a2.233 2.233 0 0 1-1.62.707H22.916Z" clip-rule="evenodd"/>
</svg>
