<svg xmlns="http://www.w3.org/2000/svg" width="174" height="45" fill="none" viewBox="0 0 174 45">
  <path fill="#fff" d="M33.456 29.059c-.284.7-.55 1.425-.864 2.128-1.03 2.309-2.453 4.363-4.138 6.234-.721.801-1.559 1.463-2.586 1.848-1.091.408-2.189.362-3.277.029-.754-.232-1.489-.524-2.235-.779-1.033-.35-2.09-.565-3.19-.505-1.002.057-1.964.29-2.896.643-.866.327-1.725.661-2.635.85-1.388.286-2.607-.081-3.715-.906-1.137-.846-2.022-1.928-2.874-3.042-1.17-1.53-2.167-3.161-2.942-4.926-.899-2.053-1.566-4.18-1.882-6.4-.35-2.471-.344-4.939.443-7.34.929-2.844 2.647-5.052 5.367-6.412 1.455-.727 3-1.077 4.627-.984 1.06.059 2.062.395 3.059.74.822.286 1.652.555 2.474.847.676.238 1.315.088 1.959-.133 1.144-.39 2.287-.79 3.443-1.148a9 9 0 0 1 4.058-.324c1.4.21 2.732.593 3.958 1.306 1.105.64 2.013 1.49 2.764 2.558-3.078 1.86-4.66 4.542-4.405 8.162.258 3.61 2.285 5.99 5.487 7.554Z"/>
  <path fill="#fff" d="M25.039.003c0 .537.041 1.065-.007 1.584-.165 1.816-.957 3.366-2.12 4.737-.849.999-1.826 1.853-3.024 2.425-.975.466-2 .687-3.106.596-.098-.546-.071-1.1.005-1.65.272-1.945 1.174-3.583 2.509-4.993.876-.926 1.948-1.577 3.117-2.073a8.167 8.167 0 0 1 2.39-.626c.069-.007.135 0 .236 0ZM49.462 30.42h7.195l-2.215-5.868c-.676-1.783-1.178-3.247-1.506-4.393a26.985 26.985 0 0 1-1.143 4.046l-2.331 6.214Zm-6.124 8.699 8.15-21.186h3.025l8.686 21.186H60l-2.475-6.416h-8.873l-2.332 6.416h-2.982Zm24.132-7.587c0 1.975.4 3.435 1.201 4.378.8.945 1.771 1.416 2.91 1.416 1.159 0 2.15-.489 2.975-1.466.824-.978 1.237-2.493 1.237-4.545 0-1.956-.403-3.42-1.208-4.393-.806-.974-1.77-1.46-2.886-1.46-1.113 0-2.094.518-2.947 1.554-.855 1.036-1.282 2.54-1.282 4.516ZM65.11 45V23.772h2.376v1.994c.557-.78 1.19-1.366 1.894-1.756.704-.39 1.56-.585 2.562-.585 1.313 0 2.473.337 3.475 1.011 1.004.674 1.76 1.626 2.273 2.854.51 1.229.767 2.576.767 4.04 0 1.57-.282 2.984-.848 4.241-.565 1.258-1.384 2.221-2.46 2.89-1.077.67-2.208 1.005-3.393 1.005-.869 0-1.648-.183-2.34-.55a5.317 5.317 0 0 1-1.7-1.387V45H65.11Zm18.847-13.468c0 1.975.403 3.435 1.202 4.378.801.945 1.772 1.417 2.91 1.417 1.158 0 2.15-.49 2.976-1.467.824-.978 1.237-2.493 1.237-4.545 0-1.956-.402-3.42-1.21-4.393-.804-.974-1.769-1.46-2.886-1.46-1.111 0-2.092.518-2.946 1.554-.856 1.035-1.283 2.541-1.283 4.516ZM81.598 45V23.772h2.376v1.994c.56-.78 1.19-1.366 1.897-1.756.704-.39 1.557-.585 2.56-.585 1.313 0 2.473.337 3.476 1.011 1.003.674 1.761 1.626 2.272 2.854.51 1.229.766 2.575.766 4.04 0 1.57-.282 2.984-.845 4.241-.565 1.258-1.386 2.221-2.462 2.89-1.076.67-2.207 1.005-3.395 1.005-.87 0-1.647-.183-2.337-.55a5.31 5.31 0 0 1-1.701-1.386V45h-2.607ZM105.7 32.312l2.651-.23c.124 1.058.416 1.928.875 2.607.459.679 1.169 1.229 2.134 1.647.967.42 2.053.63 3.26.63 1.068 0 2.015-.16 2.835-.478.82-.317 1.432-.753 1.834-1.307.398-.555.6-1.16.6-1.814 0-.665-.193-1.246-.58-1.742-.387-.496-1.022-.912-1.912-1.25-.569-.222-1.827-.566-3.776-1.033-1.949-.468-3.315-.908-4.098-1.322-1.013-.53-1.77-1.188-2.266-1.973-.497-.785-.745-1.664-.745-2.637 0-1.07.303-2.07.912-2.999.609-.929 1.496-1.635 2.662-2.117 1.17-.482 2.466-.722 3.895-.722 1.574 0 2.96.253 4.161.758 1.204.506 2.128 1.25 2.775 2.233.644.983.993 2.095 1.039 3.338l-2.691.203c-.144-1.34-.635-2.351-1.469-3.035-.835-.685-2.068-1.026-3.699-1.026-1.698 0-2.937.31-3.713.931-.777.622-1.164 1.371-1.164 2.248 0 .761.274 1.387.823 1.878.543.492 1.952.995 4.236 1.51 2.281.516 3.849.967 4.698 1.352 1.235.569 2.145 1.289 2.734 2.16.589.872.884 1.877.884 3.014 0 1.127-.324 2.189-.971 3.187-.646.996-1.576 1.771-2.786 2.326-1.21.554-2.575.83-4.088.83-1.921 0-3.532-.28-4.828-.838-1.3-.558-2.316-1.4-3.055-2.521-.739-1.122-1.126-2.392-1.167-3.808Zm26.087 4.48.377 2.297a9.636 9.636 0 0 1-1.968.232c-.946 0-1.679-.15-2.201-.448-.521-.3-.887-.691-1.099-1.178-.215-.486-.321-1.51-.321-3.07v-8.83h-1.909V23.77h1.909v-3.8l2.593-1.561v5.361h2.619v2.023h-2.619v8.974c0 .742.044 1.22.138 1.431.091.212.242.38.448.506.206.125.504.188.89.188a8.49 8.49 0 0 0 1.143-.1Zm4.255-5.347c0 1.965.432 3.437 1.29 4.415.858.977 1.937 1.466 3.242 1.466 1.293 0 2.37-.491 3.228-1.474.861-.982 1.29-2.48 1.29-4.494 0-1.898-.432-3.337-1.296-4.314-.864-.977-1.938-1.467-3.222-1.467-1.305 0-2.384.486-3.242 1.46-.858.973-1.29 2.442-1.29 4.408Zm-2.677 0c0-2.842.791-4.947 2.373-6.316 1.323-1.136 2.935-1.705 4.836-1.705 2.114 0 3.842.691 5.184 2.074 1.341 1.383 2.01 3.292 2.01 5.73 0 1.975-.295 3.528-.891 4.66a6.303 6.303 0 0 1-2.589 2.638 7.557 7.557 0 0 1-3.714.94c-2.153 0-3.893-.69-5.219-2.068-1.327-1.377-1.99-3.362-1.99-5.953Zm17.429 7.674V23.772h2.347v2.326c.597-1.089 1.148-1.806 1.655-2.153a2.898 2.898 0 0 1 1.674-.52c.878 0 1.767.279 2.676.837l-.896 2.414c-.638-.376-1.276-.563-1.911-.563a2.48 2.48 0 0 0-1.534.512c-.454.342-.778.817-.97 1.423-.29.925-.436 1.937-.436 3.036v8.035h-2.605Zm11.871-9.149h8.584c-.116-1.291-.442-2.26-.984-2.904-.829-1.003-1.905-1.504-3.228-1.504-1.198 0-2.203.4-3.02 1.2-.814.8-1.265 1.869-1.352 3.209Zm8.555 4.206 2.693.332c-.426 1.57-1.21 2.79-2.36 3.656-1.147.867-2.613 1.3-4.401 1.3-2.248 0-4.032-.691-5.348-2.073-1.317-1.382-1.976-3.32-1.976-5.817 0-2.582.666-4.586 1.998-6.012 1.333-1.426 3.059-2.138 5.182-2.138 2.056 0 3.735.699 5.038 2.095 1.301 1.397 1.954 3.363 1.954 5.896 0 .155-.007.386-.016.694h-11.463c.096 1.685.573 2.977 1.432 3.873.858.896 1.931 1.343 3.215 1.343.955 0 1.772-.25 2.444-.75.676-.502 1.211-1.302 1.608-2.4ZM44.896 13.638h2.51c.778 0 1.386-.073 1.826-.216.44-.145.793-.349 1.056-.609.37-.369.657-.865.861-1.486.207-.622.31-1.376.31-2.263 0-1.228-.201-2.171-.605-2.832-.404-.659-.896-1.1-1.472-1.327-.418-.16-1.09-.238-2.015-.238h-2.47v8.971Zm-1.557 1.386V3.28h4.053c.913 0 1.611.054 2.094.167a4.007 4.007 0 0 1 1.725.84c.62.524 1.085 1.194 1.393 2.008.307.815.46 1.746.46 2.793 0 .892-.103 1.68-.313 2.37-.209.688-.475 1.258-.802 1.71a4.312 4.312 0 0 1-1.07 1.066 4.442 4.442 0 0 1-1.405.59c-.55.133-1.18.199-1.89.199h-4.245Zm12.629-4.254c0 1.089.239 1.906.715 2.45.476.54 1.075.811 1.798.811.715 0 1.312-.274 1.788-.817.476-.546.716-1.375.716-2.492 0-1.05-.24-1.848-.718-2.39-.481-.544-1.076-.813-1.786-.813-.723 0-1.322.27-1.798.807-.476.541-.715 1.356-.715 2.444Zm-1.484 0c0-1.576.439-2.743 1.318-3.5.73-.63 1.624-.945 2.68-.945 1.17 0 2.127.382 2.87 1.15.746.766 1.116 1.824 1.116 3.175 0 1.096-.164 1.956-.494 2.584a3.493 3.493 0 0 1-1.435 1.46 4.19 4.19 0 0 1-2.058.521c-1.194 0-2.158-.382-2.894-1.144-.735-.764-1.103-1.865-1.103-3.3Zm11.252 4.254-2.61-8.507h1.494l1.354 4.91.506 1.826c.023-.09.169-.676.441-1.753l1.357-4.983h1.484l1.276 4.933.426 1.627.49-1.642 1.46-4.918h1.404l-2.664 8.507h-1.5l-1.356-5.096-.33-1.448-1.725 6.544h-1.507Zm10.294-.001V6.515h1.301v1.209c.627-.932 1.528-1.4 2.71-1.4.516 0 .987.09 1.418.275.43.185.753.425.967.726a2.8 2.8 0 0 1 .45 1.067c.053.265.08.733.08 1.4v5.231H81.51V9.848c0-.587-.055-1.026-.169-1.316a1.368 1.368 0 0 0-.597-.697 1.896 1.896 0 0 0-1.008-.262 2.34 2.34 0 0 0-1.592.587c-.447.388-.669 1.127-.669 2.217v4.646H76.03Zm9.108 0V3.28h1.445v11.743h-1.445Zm4.631-4.253c0 1.089.237 1.905.714 2.447a2.285 2.285 0 0 0 1.796.813c.717 0 1.314-.273 1.788-.816.477-.546.715-1.377.715-2.493 0-1.051-.238-1.848-.717-2.39-.48-.543-1.074-.813-1.786-.813-.722 0-1.322.27-1.796.808-.477.54-.714 1.355-.714 2.443Zm-1.486 0c0-1.576.439-2.743 1.317-3.501.733-.63 1.624-.945 2.68-.945 1.171 0 2.128.383 2.872 1.15.744.766 1.115 1.824 1.115 3.176 0 1.094-.163 1.956-.493 2.583a3.49 3.49 0 0 1-1.437 1.462 4.19 4.19 0 0 1-2.058.52c-1.194 0-2.156-.381-2.892-1.145-.736-.763-1.104-1.864-1.104-3.3Zm15.119-.016c-.525.213-1.31.394-2.358.545-.595.085-1.015.18-1.263.287a1.233 1.233 0 0 0-.768 1.153c0 .386.145.707.437.963.292.256.718.384 1.279.384.557 0 1.052-.121 1.486-.364.431-.243.751-.576.954-.998.155-.325.233-.806.233-1.441v-.53Zm.12 3.22c-.534.454-1.051.774-1.544.961a4.466 4.466 0 0 1-1.593.28c-.938 0-1.655-.228-2.159-.684-.503-.457-.754-1.04-.754-1.75a2.37 2.37 0 0 1 1.03-1.97 3.564 3.564 0 0 1 1.04-.474c.284-.074.712-.147 1.285-.217 1.165-.138 2.025-.303 2.575-.495.003-.198.009-.324.009-.378 0-.587-.139-1-.412-1.242-.367-.325-.915-.487-1.644-.487-.678 0-1.182.118-1.505.356-.322.238-.564.658-.717 1.262l-1.413-.193c.128-.603.34-1.09.634-1.462.295-.371.72-.656 1.277-.857.556-.2 1.199-.3 1.933-.3.729 0 1.318.085 1.772.257.456.17.79.385 1.004.643.214.26.364.588.45.982.048.245.073.69.073 1.33v1.922c0 1.34.03 2.188.091 2.544.062.355.184.695.365 1.021h-1.508a3.027 3.027 0 0 1-.289-1.05Zm4.541-3.196c0 1.089.229 1.903.691 2.443.459.54 1.004.809 1.627.809.632 0 1.168-.258 1.61-.774.442-.514.663-1.301.663-2.358 0-1.165-.224-2.02-.674-2.563-.451-.545-1.004-.818-1.661-.818-.644 0-1.179.262-1.61.785-.431.524-.646 1.349-.646 2.476Zm4.566 4.245V13.95c-.542.844-1.335 1.266-2.384 1.266a3.358 3.358 0 0 1-1.874-.561c-.569-.374-1.009-.896-1.323-1.566-.312-.67-.468-1.44-.468-2.311 0-.85.142-1.62.425-2.312.284-.69.709-1.22 1.276-1.59a3.418 3.418 0 0 1 1.902-.552c.513 0 .969.108 1.372.324.399.217.728.498.977.845V3.28h1.438v11.743h-1.341Zm9.125-4.254c0 1.09.237 1.906.713 2.448a2.29 2.29 0 0 0 1.797.813c.716 0 1.315-.273 1.788-.817.477-.545.716-1.376.716-2.492 0-1.051-.239-1.848-.719-2.391-.479-.542-1.072-.813-1.785-.813-.722 0-1.321.27-1.797.809-.476.54-.713 1.354-.713 2.443Zm-1.484 0c0-1.575.438-2.742 1.314-3.5.734-.63 1.628-.945 2.68-.945 1.172 0 2.13.383 2.872 1.15.746.766 1.117 1.824 1.117 3.175 0 1.095-.164 1.957-.494 2.584a3.5 3.5 0 0 1-1.435 1.462 4.2 4.2 0 0 1-2.06.52c-1.192 0-2.156-.382-2.893-1.145-.736-.764-1.101-1.864-1.101-3.301Zm9.676 4.255V6.516h1.3v1.21c.624-.934 1.529-1.402 2.713-1.402.511 0 .985.092 1.416.277.431.184.753.425.967.725.214.299.363.653.449 1.065.054.267.08.734.08 1.401v5.232h-1.446V9.848c0-.587-.056-1.026-.166-1.317a1.39 1.39 0 0 0-.598-.697 1.907 1.907 0 0 0-1.009-.26c-.615 0-1.145.195-1.591.585-.446.39-.67 1.129-.67 2.218v4.647h-1.445Zm16.857-1.29.21 1.274a5.369 5.369 0 0 1-1.09.128c-.526 0-.933-.082-1.221-.248a1.4 1.4 0 0 1-.611-.653c-.115-.27-.176-.837-.176-1.702V7.638h-1.06V6.516h1.06V4.41l1.437-.864v2.971h1.451v1.122h-1.451v4.974c0 .412.024.676.075.794.052.118.134.21.25.28.115.07.279.104.495.104.161 0 .37-.018.631-.056Zm1.415 1.29V3.28h1.445v4.213c.673-.779 1.522-1.169 2.55-1.169.63 0 1.179.125 1.646.373.466.248.799.592.997 1.029.203.438.302 1.074.302 1.907v5.39h-1.445v-5.39c0-.721-.157-1.246-.469-1.574-.312-.33-.756-.493-1.327-.493-.429 0-.831.11-1.207.332-.38.222-.646.523-.809.902-.158.38-.238.902-.238 1.57v4.654h-1.445Zm10.231-5.071h4.757c-.063-.716-.245-1.253-.544-1.61-.46-.556-1.057-.833-1.79-.833-.664 0-1.221.221-1.674.664-.453.443-.701 1.036-.749 1.779Zm4.741 2.33 1.495.185c-.236.87-.674 1.546-1.309 2.026-.636.481-1.45.722-2.441.722-1.246 0-2.234-.384-2.964-1.15-.73-.767-1.095-1.841-1.095-3.224 0-1.431.369-2.542 1.108-3.332.736-.791 1.695-1.186 2.872-1.186 1.139 0 2.07.387 2.79 1.161.724.774 1.086 1.864 1.086 3.269 0 .085-.003.213-.01.384h-6.354c.053.934.317 1.65.796 2.147.475.497 1.069.745 1.78.745.529 0 .982-.138 1.356-.417.374-.277.67-.72.89-1.33Z"/>
</svg>
