<svg width="278" height="73" viewBox="0 0 278 73" fill="none" xmlns="http://www.w3.org/2000/svg">
<path d="M54.1852 46.6884C53.7342 47.8065 53.3093 48.962 52.8098 50.0839C51.1699 53.7663 48.9038 57.0425 46.2202 60.028C45.0722 61.3064 43.7379 62.3612 42.1017 62.9758C40.3648 63.6262 38.6167 63.5527 36.8836 63.0213C35.6835 62.6523 34.5131 62.186 33.3242 61.7797C31.6805 61.2207 29.9958 60.8778 28.244 60.9747C26.6488 61.0641 25.1169 61.4369 23.6335 61.9997C22.2544 62.5207 20.8866 63.0541 19.4367 63.3541C17.2265 63.8122 15.2846 63.2259 13.5216 61.9102C11.7102 60.561 10.3014 58.8353 8.94468 57.0574C7.08109 54.6161 5.4933 52.0145 4.2596 49.2005C2.82837 45.9243 1.7661 42.5326 1.26294 38.9917C0.703858 35.0484 0.715054 31.1125 1.96739 27.281C3.44708 22.745 6.18282 19.2228 10.5138 17.0536C12.8321 15.8944 15.2921 15.3354 17.8825 15.4844C19.5709 15.5776 21.1661 16.1143 22.7539 16.6659C24.0621 17.1207 25.3853 17.5493 26.6935 18.0152C27.7707 18.3954 28.7882 18.1568 29.8131 17.8027C31.6357 17.1803 33.4546 16.543 35.2958 15.9727C37.4054 15.3167 39.5523 15.1229 41.7588 15.4546C43.9876 15.79 46.1084 16.4013 48.0614 17.5381C49.8207 18.5594 51.2668 19.9161 52.4632 21.6194C47.562 24.5862 45.0424 28.865 45.4487 34.6384C45.8587 40.3969 49.0864 44.1949 54.1852 46.6884Z" fill="black"/>
<path d="M40.7819 0.339434C40.7819 1.19609 40.8476 2.03816 40.771 2.86566C40.5085 5.76372 39.2472 8.23526 37.3954 10.4225C36.043 12.0155 34.4864 13.3789 32.5799 14.2902C31.027 15.0339 29.3938 15.3875 27.6331 15.2416C27.4764 14.3704 27.5201 13.4882 27.6404 12.6097C28.0742 9.50749 29.5105 6.89377 31.6357 4.64459C33.0319 3.16822 34.7379 2.12928 36.6007 1.33824C37.8219 0.824244 39.0832 0.467021 40.4065 0.339434C40.5158 0.328497 40.6215 0.339434 40.7819 0.339434Z" fill="black"/>
<path d="M79.6737 48.8585H91.1324L87.6048 39.4987C86.528 36.6553 85.7285 34.3194 85.2062 32.4921C84.7763 34.6573 84.1696 36.81 83.3861 38.9454L79.6737 48.8585ZM69.9226 62.7358L82.9 28.9404H87.7173L101.55 62.7358H96.4559L92.5145 52.501H78.384L74.6716 62.7358H69.9226Z" fill="black"/>
<path d="M108.351 50.6331C108.351 53.7849 108.989 56.1125 110.264 57.618C111.539 59.1251 113.085 59.8768 114.897 59.8768C116.743 59.8768 118.323 59.0968 119.635 57.5384C120.948 55.9783 121.606 53.5611 121.606 50.2877C121.606 47.1671 120.964 44.8316 119.681 43.2795C118.398 41.7269 116.864 40.9515 115.085 40.9515C113.314 40.9515 111.752 41.7769 110.393 43.4295C109.031 45.0821 108.351 47.483 108.351 50.6331ZM104.593 72.1177V38.2547H108.376V41.4361C109.264 40.1902 110.272 39.2568 111.393 38.6347C112.514 38.0126 113.877 37.7013 115.473 37.7013C117.564 37.7013 119.41 38.2393 121.006 39.3148C122.606 40.3902 123.81 41.9082 124.627 43.867C125.44 45.8275 125.848 47.9755 125.848 50.311C125.848 52.8157 125.398 55.0712 124.498 57.0771C123.598 59.0826 122.294 60.6198 120.581 61.6873C118.864 62.7553 117.064 63.2899 115.177 63.2899C113.793 63.2899 112.552 62.9974 111.452 62.4127C110.351 61.8294 109.451 61.0918 108.743 60.2005V72.1177H104.593Z" fill="black"/>
<path d="M134.607 50.633C134.607 53.7846 135.248 56.1126 136.52 57.6179C137.797 59.1248 139.342 59.877 141.155 59.877C142.999 59.877 144.578 59.0967 145.894 57.5382C147.206 55.978 147.863 53.5613 147.863 50.2877C147.863 47.1673 147.223 44.8315 145.937 43.2795C144.656 41.7271 143.12 40.9515 141.341 40.9515C139.571 40.9515 138.009 41.7768 136.65 43.4292C135.286 45.0816 134.607 47.4832 134.607 50.633ZM130.85 72.1177V38.2548H134.633V41.4362C135.524 40.1902 136.529 39.2567 137.654 38.6348C138.775 38.0124 140.134 37.7013 141.731 37.7013C143.821 37.7013 145.669 38.2392 147.266 39.3147C148.863 40.3902 150.071 41.9084 150.884 43.8672C151.698 45.8273 152.105 47.9753 152.105 50.311C152.105 52.8156 151.655 55.0713 150.759 57.0769C149.859 59.0829 148.551 60.6197 146.838 61.6874C145.124 62.7551 143.323 63.2896 141.432 63.2896C140.047 63.2896 138.809 62.9975 137.71 62.4128C136.611 61.8293 135.706 61.0915 135.001 60.2008V72.1177H130.85Z" fill="black"/>
<path d="M169.231 51.8787L173.452 51.5099C173.65 53.1997 174.115 54.5865 174.846 55.6698C175.577 56.7531 176.708 57.6299 178.244 58.2976C179.784 58.9666 181.513 59.3013 183.435 59.3013C185.136 59.3013 186.644 59.0466 187.95 58.5399C189.256 58.0337 190.231 57.3379 190.87 56.4547C191.504 55.5695 191.826 54.6049 191.826 53.5607C191.826 52.5008 191.518 51.5739 190.902 50.783C190.286 49.9917 189.274 49.3273 187.858 48.7898C186.952 48.4348 184.948 47.8858 181.844 47.1404C178.74 46.3946 176.565 45.6925 175.319 45.0313C173.705 44.1857 172.501 43.1364 171.71 41.8844C170.919 40.6324 170.523 39.23 170.523 37.6777C170.523 35.9718 171.006 34.3772 171.976 32.8939C172.947 31.4119 174.358 30.2863 176.216 29.5171C178.078 28.7478 180.143 28.3648 182.419 28.3648C184.925 28.3648 187.132 28.7685 189.044 29.575C190.962 30.3815 192.433 31.5683 193.463 33.1362C194.488 34.7041 195.045 36.4785 195.118 38.4607L190.833 38.7844C190.603 36.6472 189.821 35.0338 188.493 33.9427C187.164 32.8516 185.2 32.3062 182.603 32.3062C179.899 32.3062 177.926 32.8015 176.689 33.7928C175.453 34.7837 174.836 35.9796 174.836 37.3774C174.836 38.5922 175.273 39.5909 176.147 40.3744C177.011 41.1588 179.255 41.9612 182.892 42.7834C186.525 43.6055 189.021 44.3246 190.373 44.9394C192.341 45.8461 193.79 46.9947 194.728 48.386C195.666 49.776 196.135 51.3784 196.135 53.1919C196.135 54.9897 195.62 56.6841 194.59 58.276C193.56 59.8655 192.079 61.1024 190.153 61.987C188.226 62.8703 186.051 63.3113 183.642 63.3113C180.584 63.3113 178.018 62.8657 175.954 61.9746C173.885 61.0835 172.266 59.7423 171.089 57.9523C169.912 56.1622 169.296 54.1377 169.231 51.8787Z" fill="black"/>
<path d="M210.773 59.0245L211.373 62.6886C210.205 62.9359 209.159 63.0579 208.239 63.0579C206.733 63.0579 205.565 62.82 204.735 62.3433C203.904 61.8662 203.323 61.2413 202.985 60.4644C202.642 59.6889 202.474 58.0553 202.474 55.5664V41.481H199.433V38.2542H202.474V32.1918L206.602 29.7011V38.2542H210.773V41.481H206.602V55.7963C206.602 56.9795 206.672 57.7409 206.823 58.0787C206.968 58.416 207.207 58.6849 207.536 58.8852C207.864 59.0856 208.338 59.1855 208.953 59.1855C209.412 59.1855 210.022 59.132 210.773 59.0245Z" fill="black"/>
<path d="M217.549 50.4944C217.549 53.629 218.237 55.9768 219.603 57.5371C220.969 59.0959 222.689 59.8758 224.767 59.8758C226.825 59.8758 228.54 59.0925 229.906 57.5245C231.277 55.9584 231.96 53.5679 231.96 50.3554C231.96 47.3289 231.272 45.0338 229.897 43.475C228.521 41.9152 226.811 41.1349 224.767 41.1349C222.689 41.1349 220.969 41.9104 219.603 43.4629C218.237 45.0149 217.549 47.3584 217.549 50.4944ZM213.287 50.4944C213.287 45.9609 214.546 42.6031 217.065 40.4204C219.172 38.6073 221.739 37.7005 224.767 37.7005C228.133 37.7005 230.885 38.8025 233.021 41.0085C235.157 43.2139 236.223 46.2593 236.223 50.1491C236.223 53.2991 235.753 55.7768 234.804 57.5826C233.859 59.388 232.483 60.7903 230.681 61.7896C228.874 62.7884 226.903 63.2888 224.767 63.2888C221.337 63.2888 218.567 62.1897 216.455 59.9915C214.343 57.7938 213.287 54.6278 213.287 50.4944Z" fill="black"/>
<path d="M241.042 62.7358V38.2545H244.778V41.9654C245.729 40.2287 246.606 39.0845 247.414 38.531C248.222 37.9775 249.109 37.701 250.08 37.701C251.477 37.701 252.894 38.1465 254.341 39.0374L252.914 42.8881C251.898 42.2875 250.882 41.9892 249.872 41.9892C248.965 41.9892 248.147 42.2612 247.429 42.8068C246.705 43.3524 246.19 44.109 245.883 45.0767C245.422 46.5524 245.189 48.1658 245.189 49.9184V62.7358H241.042Z" fill="black"/>
<path d="M259.945 48.1431H273.614C273.431 46.0826 272.91 44.5383 272.048 43.5095C270.727 41.9101 269.014 41.1114 266.907 41.1114C265 41.1114 263.398 41.7489 262.098 43.025C260.802 44.3006 260.083 46.0061 259.945 48.1431ZM273.568 54.8515L277.858 55.3814C277.179 57.8856 275.93 59.8304 274.099 61.2141C272.273 62.5957 269.937 63.2883 267.091 63.2883C263.511 63.2883 260.67 62.1846 258.574 59.9803C256.477 57.775 255.427 54.6827 255.427 50.7009C255.427 46.583 256.488 43.3861 258.609 41.1114C260.731 38.8367 263.48 37.7004 266.861 37.7004C270.136 37.7004 272.808 38.8148 274.884 41.0426C276.955 43.2704 277.995 46.4065 277.995 50.4474C277.995 50.6943 277.985 51.0635 277.97 51.5542H259.716C259.869 54.243 260.629 56.3035 261.996 57.7326C263.363 59.1612 265.071 59.8757 267.116 59.8757C268.636 59.8757 269.937 59.4769 271.008 58.6782C272.084 57.878 272.936 56.6024 273.568 54.8515Z" fill="black"/>
<path d="M72.4041 22.0901H76.4012C77.6395 22.0901 78.6075 21.9725 79.3089 21.7453C80.0104 21.5141 80.5708 21.1888 80.9901 20.7734C81.5779 20.1856 82.0364 19.394 82.3616 18.4026C82.6908 17.4111 82.8554 16.2081 82.8554 14.7934C82.8554 12.834 82.5341 11.3293 81.8914 10.2751C81.2487 9.22489 80.465 8.51952 79.548 8.15899C78.8818 7.90427 77.812 7.77886 76.3385 7.77886H72.4041V22.0901ZM69.9235 24.3003V5.56867H76.3777C77.8316 5.56867 78.9445 5.65488 79.7125 5.83514C80.7863 6.08202 81.6994 6.52877 82.4596 7.17536C83.4471 8.01005 84.1878 9.07988 84.6776 10.377C85.1675 11.678 85.4104 13.1632 85.4104 14.8326C85.4104 16.2551 85.2458 17.513 84.9127 18.6142C84.5796 19.7115 84.1564 20.6206 83.6352 21.3416C83.114 22.0627 82.5458 22.627 81.9306 23.0424C81.3114 23.4539 80.5668 23.7674 79.693 23.9829C78.8191 24.1945 77.8159 24.3003 76.6834 24.3003H69.9235Z" fill="black"/>
<path d="M90.0348 17.5149C90.0348 19.2515 90.4158 20.555 91.1738 21.4213C91.9319 22.2836 92.8864 22.7167 94.0374 22.7167C95.1765 22.7167 96.127 22.2796 96.885 21.4133C97.643 20.543 98.024 19.2195 98.024 17.4388C98.024 15.7623 97.643 14.4909 96.881 13.6246C96.1149 12.7583 95.1684 12.3292 94.0374 12.3292C92.8864 12.3292 91.9319 12.7583 91.1738 13.6166C90.4158 14.4789 90.0348 15.7783 90.0348 17.5149ZM87.6726 17.5149C87.6726 15.0003 88.3704 13.1393 89.7701 11.9321C90.9332 10.9255 92.357 10.4242 94.0374 10.4242C95.9024 10.4242 97.4264 11.0338 98.6096 12.257C99.7967 13.4803 100.386 15.1687 100.386 17.3224C100.386 19.0711 100.126 20.4427 99.6002 21.4453C99.0748 22.444 98.3168 23.2221 97.3141 23.7755C96.3115 24.329 95.2206 24.6057 94.0374 24.6057C92.1364 24.6057 90.6003 23.9961 89.4292 22.7809C88.2581 21.5616 87.6726 19.805 87.6726 17.5149Z" fill="black"/>
<path d="M105.589 24.3003L101.433 10.7299H103.813L105.969 18.5628L106.775 21.4753C106.812 21.3307 107.043 20.3971 107.477 18.6784L109.638 10.7299H112.001L114.034 18.6L114.711 21.1944L115.492 18.5752L117.818 10.7299H120.053L115.81 24.3003H113.422L111.261 16.1708L110.737 13.8614L107.99 24.3003H105.589Z" fill="black"/>
<path d="M121.983 24.2993V10.7271H124.054V12.6557C125.052 11.1693 126.488 10.424 128.37 10.424C129.192 10.424 129.941 10.5671 130.627 10.8619C131.314 11.1566 131.828 11.5398 132.169 12.0199C132.51 12.4957 132.745 13.0641 132.884 13.721C132.969 14.1442 133.011 14.8899 133.011 15.9544V24.2993H130.712V16.0437C130.712 15.1072 130.623 14.4069 130.442 13.9442C130.265 13.4768 129.945 13.1062 129.491 12.8325C129.036 12.5546 128.501 12.4157 127.886 12.4157C126.909 12.4157 126.063 12.7273 125.351 13.3505C124.64 13.9695 124.286 15.1493 124.286 16.8879V24.2993H121.983Z" fill="black"/>
<path d="M136.486 24.2993V5.5667H138.788V24.2993H136.486Z" fill="black"/>
<path d="M143.861 17.5137C143.861 19.2518 144.238 20.5541 144.998 21.4187C145.753 22.2834 146.708 22.7149 147.859 22.7149C149 22.7149 149.951 22.2799 150.706 21.4126C151.466 20.5432 151.844 19.2175 151.844 17.4369C151.844 15.7596 151.466 14.4886 150.702 13.6226C149.938 12.7579 148.992 12.3265 147.859 12.3265C146.708 12.3265 145.753 12.7566 144.998 13.6161C144.238 14.4778 143.861 15.777 143.861 17.5137ZM141.495 17.5137C141.495 15.0013 142.194 13.1395 143.592 11.9292C144.759 10.9243 146.179 10.4225 147.859 10.4225C149.725 10.4225 151.249 11.0337 152.434 12.2561C153.619 13.4785 154.209 15.1671 154.209 17.3227C154.209 19.069 153.949 20.4434 153.424 21.4439C152.898 22.4445 152.139 23.2228 151.136 23.7762C150.133 24.3297 149.044 24.6062 147.859 24.6062C145.957 24.6062 144.425 23.9968 143.253 22.7787C142.081 21.5611 141.495 19.8053 141.495 17.5137Z" fill="black"/>
<path d="M165.572 17.4884C164.735 17.8294 163.486 18.1182 161.816 18.3578C160.868 18.4938 160.199 18.6466 159.805 18.8171C159.415 18.9877 159.114 19.2379 158.901 19.5644C158.689 19.8926 158.583 20.2571 158.583 20.6571C158.583 21.2718 158.813 21.783 159.278 22.1909C159.743 22.6006 160.421 22.804 161.315 22.804C162.201 22.804 162.99 22.6113 163.681 22.2237C164.367 21.8361 164.877 21.3046 165.2 20.6323C165.448 20.1132 165.572 19.3456 165.572 18.3326V17.4884ZM165.762 22.6254C164.912 23.3492 164.088 23.8603 163.304 24.1593C162.516 24.4578 161.67 24.6062 160.766 24.6062C159.273 24.6062 158.131 24.2421 157.329 23.5135C156.527 22.7849 156.129 21.8547 156.129 20.7213C156.129 20.0569 156.279 19.4505 156.581 18.9C156.882 18.3512 157.28 17.9105 157.768 17.5774C158.259 17.2461 158.813 16.9945 159.424 16.824C159.876 16.7053 160.558 16.5897 161.47 16.4785C163.326 16.2579 164.695 15.9939 165.572 15.6874C165.576 15.3716 165.585 15.1714 165.585 15.0855C165.585 14.1491 165.364 13.4896 164.93 13.1047C164.345 12.5861 163.472 12.3265 162.312 12.3265C161.231 12.3265 160.43 12.5156 159.916 12.8952C159.402 13.2739 159.017 13.9445 158.773 14.9075L156.523 14.601C156.727 13.638 157.063 12.8611 157.533 12.2685C158.002 11.6759 158.68 11.221 159.566 10.9007C160.452 10.5818 161.475 10.4224 162.644 10.4224C163.805 10.4224 164.744 10.5584 165.466 10.8321C166.192 11.1041 166.724 11.4464 167.065 11.8588C167.406 12.2734 167.645 12.7956 167.782 13.4254C167.857 13.8161 167.897 14.5243 167.897 15.547V18.6125C167.897 20.751 167.946 22.1032 168.043 22.6711C168.141 23.2367 168.336 23.7793 168.624 24.2997H166.223C165.984 23.8231 165.829 23.265 165.762 22.6254Z" fill="black"/>
<path d="M172.993 17.5272C172.993 19.2641 173.359 20.5632 174.094 21.4249C174.825 22.2847 175.692 22.7145 176.685 22.7145C177.692 22.7145 178.545 22.3033 179.249 21.4809C179.953 20.6602 180.305 19.405 180.305 17.7182C180.305 15.8607 179.949 14.4976 179.231 13.63C178.513 12.7607 177.633 12.326 176.586 12.326C175.561 12.326 174.708 12.7435 174.022 13.5786C173.336 14.4132 172.993 15.7294 172.993 17.5272ZM180.265 24.2997V22.5876C179.402 23.9336 178.139 24.6062 176.468 24.6062C175.39 24.6062 174.392 24.3074 173.485 23.712C172.578 23.1148 171.878 22.283 171.377 21.2136C170.88 20.1443 170.632 18.9157 170.632 17.5272C170.632 16.1722 170.858 14.9431 171.309 13.8395C171.761 12.7372 172.438 11.8918 173.34 11.3036C174.243 10.7159 175.254 10.4221 176.369 10.4221C177.186 10.4221 177.913 10.5941 178.554 10.9394C179.19 11.2851 179.714 11.7338 180.111 12.2872V5.56662H182.4V24.2997H180.265Z" fill="black"/>
<path d="M194.796 17.5132C194.796 19.2516 195.173 20.5541 195.931 21.4182C196.69 22.2828 197.644 22.7146 198.793 22.7146C199.933 22.7146 200.887 22.28 201.641 21.4122C202.4 20.5429 202.781 19.2172 202.781 17.4368C202.781 15.7593 202.4 14.4885 201.636 13.6221C200.873 12.7579 199.929 12.3261 198.793 12.3261C197.644 12.3261 196.69 12.7561 195.931 13.616C195.173 14.4773 194.796 15.7765 194.796 17.5132ZM192.432 17.5132C192.432 15.0013 193.13 13.139 194.526 11.9292C195.694 10.9241 197.118 10.4219 198.793 10.4219C200.659 10.4219 202.186 11.0334 203.367 12.2558C204.554 13.4783 205.145 15.1669 205.145 17.3224C205.145 19.0687 204.884 20.4429 204.359 21.4434C203.833 22.4438 203.074 23.2223 202.074 23.7761C201.069 24.3293 199.98 24.6062 198.793 24.6062C196.895 24.6062 195.359 23.9961 194.186 22.7784C193.014 21.5606 192.432 19.8049 192.432 17.5132Z" fill="black"/>
<path d="M207.841 24.3003V10.7292H209.911V12.6583C210.906 11.1684 212.346 10.4227 214.232 10.4227C215.046 10.4227 215.8 10.5695 216.487 10.8637C217.174 11.1575 217.685 11.5422 218.026 12.0202C218.367 12.4972 218.604 13.0629 218.742 13.7195C218.827 14.145 218.87 14.8907 218.87 15.9552V24.3003H216.567V16.0442C216.567 15.1081 216.477 14.4074 216.302 13.9431C216.122 13.4789 215.804 13.1084 215.35 12.8317C214.895 12.555 214.359 12.4158 213.744 12.4158C212.763 12.4158 211.92 12.727 211.209 13.349C210.498 13.9716 210.143 15.1502 210.143 16.8884V24.3003H207.841Z" fill="black"/>
<path d="M234.686 22.2432L235.02 24.2756C234.371 24.4115 233.796 24.4788 233.283 24.4788C232.446 24.4788 231.798 24.3477 231.339 24.0831C230.879 23.819 230.555 23.4723 230.367 23.0423C230.183 22.6123 230.086 21.7069 230.086 20.3265V12.5178H228.398V10.7293H230.086V7.3683L232.374 5.9894V10.7293H234.686V12.5178H232.374V20.4532C232.374 21.11 232.413 21.5318 232.495 21.7194C232.577 21.9071 232.708 22.0556 232.891 22.1668C233.075 22.2776 233.336 22.3322 233.68 22.3322C233.936 22.3322 234.27 22.3027 234.686 22.2432Z" fill="black"/>
<path d="M236.939 24.3003V5.56723H239.24V12.2876C240.312 11.0448 241.663 10.423 243.301 10.423C244.303 10.423 245.179 10.6215 245.921 11.0168C246.663 11.4125 247.194 11.9612 247.509 12.6583C247.833 13.3569 247.991 14.3716 247.991 15.7004V24.3003H245.69V15.7004C245.69 14.5501 245.439 13.7133 244.943 13.1897C244.446 12.6647 243.738 12.4036 242.829 12.4036C242.145 12.4036 241.506 12.5801 240.906 12.9336C240.302 13.2866 239.879 13.7669 239.618 14.3716C239.368 14.9768 239.24 15.8116 239.24 16.8764V24.3003H236.939Z" fill="black"/>
<path d="M253.232 16.2109H260.806C260.706 15.0697 260.416 14.213 259.94 13.6424C259.208 12.7562 258.256 12.3139 257.089 12.3139C256.032 12.3139 255.145 12.6671 254.424 13.3739C253.703 14.0803 253.307 15.0261 253.232 16.2109ZM260.781 19.9286L263.161 20.2227C262.785 21.6124 262.089 22.6895 261.077 23.4555C260.065 24.223 258.767 24.6062 257.189 24.6062C255.206 24.6062 253.632 23.995 252.47 22.7721C251.308 21.5498 250.727 19.8349 250.727 17.6292C250.727 15.3467 251.313 13.5738 252.49 12.3139C253.663 11.0524 255.191 10.4222 257.064 10.4222C258.878 10.4222 260.361 11.0399 261.508 12.2748C262.66 13.5097 263.236 15.2481 263.236 17.4884C263.236 17.6242 263.231 17.829 263.221 18.1011H253.101C253.187 19.5925 253.607 20.7337 254.369 21.5262C255.125 22.3187 256.072 22.7145 257.204 22.7145C258.046 22.7145 258.767 22.4941 259.364 22.0502C259.96 21.6079 260.431 20.901 260.781 19.9286Z" fill="black"/>
</svg>
