<svg xmlns="http://www.w3.org/2000/svg" width="280" height="69" fill="none" viewBox="0 0 280 69">
  <path fill="#6EEC83" d="M34.927 34.008 17.481 19.38 0 4.72V3.239C.001.774 2.646-.784 4.8.41l27.937 15.483L45.8 23.136 34.927 34.008Z"/>
  <path fill="#DE4551" d="M.001 64.838v-1.48l17.48-14.661 17.375-14.569 10.86 10.859-12.98 7.194L4.802 67.668C2.645 68.862.001 67.3.001 64.838Z"/>
  <path fill="#000" d="M0 63.358V4.719l17.483 14.66 17.444 14.629.036.03-.108.09-17.372 14.569L0 63.357Z"/>
  <path fill="#5FD0FA" d="M0 63.358V4.719l17.483 14.66 17.444 14.629.036.03-.108.09-17.372 14.569L0 63.357Z"/>
  <path fill="#F6C644" d="M45.714 44.987 34.856 34.13l.106-.091-.034-.03 10.873-10.873 14.568 8.075c2.222 1.232 2.222 4.426 0 5.656l-14.655 8.121Z"/>
  <path fill="#000" d="m34.855 34.128-.021-.024.093-.095.036.03-.108.09Zm50.057 17.196v-4.372H96.21v10.34c-1.098 1.062-2.69 1.997-4.773 2.805-2.085.81-4.193 1.213-6.329 1.213-2.716 0-5.083-.569-7.1-1.708-2.02-1.138-3.536-2.767-4.554-4.887-1.014-2.119-1.52-4.423-1.52-6.915 0-2.702.566-5.105 1.7-7.207 1.133-2.1 2.791-3.71 4.975-4.833 1.663-.862 3.735-1.293 6.217-1.293 3.222 0 5.74.677 7.55 2.028 1.813 1.352 2.979 3.22 3.496 5.604l-5.203.974c-.37-1.274-1.054-2.281-2.064-3.019s-2.272-1.107-3.779-1.107c-2.291 0-4.113.726-5.465 2.178-1.353 1.452-2.025 3.607-2.025 6.463 0 3.081.684 5.392 2.053 6.933 1.368 1.54 3.162 2.31 5.381 2.31 1.098 0 2.2-.215 3.302-.647 1.105-.43 2.052-.952 2.844-1.566v-3.294h-6.003Zm20.041.143c0 1.865.445 3.294 1.331 4.285.885.99 1.977 1.487 3.274 1.487 1.302 0 2.389-.496 3.266-1.487.882-.991 1.319-2.432 1.319-4.321 0-1.842-.437-3.258-1.319-4.25-.877-.99-1.964-1.487-3.266-1.487-1.297 0-2.389.497-3.274 1.488-.886.99-1.331 2.42-1.331 4.285Zm-5.1-.266c0-1.652.409-3.251 1.224-4.8.816-1.545 1.969-2.726 3.46-3.54 1.495-.815 3.163-1.22 5.005-1.22 2.842 0 5.177.921 6.994 2.77 1.816 1.847 2.726 4.18 2.726 7.003 0 2.845-.918 5.202-2.751 7.074-1.837 1.87-4.148 2.806-6.936 2.806-1.722 0-3.366-.39-4.931-1.17-1.565-.778-2.751-1.92-3.567-3.425-.815-1.505-1.223-3.337-1.223-5.498Zm27.252.266c0 1.865.446 3.294 1.331 4.285.885.99 1.975 1.487 3.272 1.487 1.302 0 2.392-.496 3.268-1.487.881-.991 1.319-2.433 1.319-4.321 0-1.842-.438-3.258-1.319-4.25-.876-.99-1.966-1.488-3.268-1.488-1.297 0-2.387.498-3.272 1.489-.885.991-1.331 2.42-1.331 4.285Zm-5.098-.266c0-1.652.409-3.252 1.221-4.8.817-1.545 1.97-2.726 3.464-3.54 1.493-.815 3.161-1.221 4.999-1.221 2.847 0 5.179.922 6.995 2.77 1.822 1.848 2.728 4.182 2.728 7.004 0 2.845-.919 5.203-2.753 7.074-1.834 1.871-4.144 2.806-6.931 2.806a10.9 10.9 0 0 1-4.932-1.17c-1.566-.778-2.753-1.92-3.57-3.425-.812-1.505-1.221-3.337-1.221-5.498Zm27.286-.123c0 1.995.386 3.455 1.157 4.382.776.927 1.728 1.39 2.863 1.39 1.215 0 2.241-.475 3.078-1.426.842-.95 1.259-2.358 1.259-4.222 0-1.948-.399-3.394-1.202-4.339-.802-.944-1.819-1.416-3.047-1.416-1.192 0-2.175.463-2.951 1.39-.771.927-1.157 2.34-1.157 4.241Zm-4.442 11.031 5.683.691c.092.661.311 1.115.653 1.363.473.354 1.214.532 2.232.532 1.297 0 2.271-.196 2.92-.585.438-.26.767-.679.995-1.257.153-.413.228-1.175.228-2.284v-2.745c-1.486 2.03-3.363 3.045-5.63 3.045-2.525 0-4.529-1.068-6.002-3.205-1.158-1.688-1.736-3.789-1.736-6.303 0-3.152.758-5.56 2.275-7.224 1.517-1.665 3.403-2.496 5.656-2.496 2.328 0 4.244 1.02 5.757 3.062v-2.639h4.656V58.94c0 2.218-.184 3.877-.548 4.975-.368 1.098-.881 1.96-1.543 2.585-.662.625-1.543 1.116-2.644 1.47-1.105.355-2.499.531-4.191.531-3.188 0-5.446-.545-6.779-1.638-1.333-1.091-2.004-2.476-2.004-4.152 0-.166.009-.366.022-.602Zm22.61-1.24V34.912h4.974v25.957h-4.974Zm21.249-11.014c-.037-1.44-.407-2.534-1.116-3.285-.71-.748-1.57-1.123-2.586-1.123-1.084 0-1.981.395-2.69 1.186-.71.791-1.057 1.865-1.048 3.222h7.44Zm-.284 5.03 4.956.831c-.636 1.818-1.643 3.202-3.02 4.152-1.373.95-3.093 1.426-5.157 1.426-3.272 0-5.692-1.068-7.262-3.205-1.24-1.712-1.858-3.872-1.858-6.481 0-3.116.815-5.556 2.444-7.321 1.629-1.765 3.688-2.647 6.177-2.647 2.801 0 5.006.922 6.626 2.77 1.615 1.848 2.389 4.678 2.315 8.49h-12.464c.037 1.476.439 2.624 1.203 3.444.769.821 1.725 1.23 2.869 1.23.778 0 1.437-.21 1.968-.635.531-.426.929-1.11 1.203-2.055Zm24.628-15.582v7.365h2.87c2.067 0 3.445-.134 4.143-.407.694-.271 1.244-.697 1.637-1.275.397-.578.593-1.25.593-2.018 0-.945-.278-1.723-.832-2.337-.555-.615-1.259-.998-2.106-1.151-.626-.119-1.885-.177-3.77-.177h-2.535Zm-5.239 21.566V34.912h8.411c3.186 0 5.262.13 6.234.39 1.483.389 2.731 1.236 3.731 2.54 1.005 1.305 1.507 2.989 1.507 5.056 0 1.592-.287 2.932-.866 4.019-.578 1.086-1.315 1.938-2.205 2.559-.89.619-1.799 1.029-2.718 1.23-1.253.247-3.061.372-5.434.372h-3.421v9.791h-5.239Zm24.152.001V34.911h4.976v25.957h-4.976Zm20.45-9.03c-.637.212-1.646.465-3.029.76-1.382.296-2.282.585-2.71.868-.646.46-.974 1.044-.974 1.752 0 .698.258 1.3.78 1.806.522.508 1.184.762 1.984.762.895 0 1.756-.294 2.566-.885.602-.449 1-.998 1.189-1.646.129-.426.194-1.234.194-2.427v-.99Zm-6.659-4.039-4.515-.814c.507-1.818 1.383-3.163 2.621-4.037 1.238-.874 3.083-1.31 5.524-1.31 2.218 0 3.874.263 4.958.788s1.85 1.191 2.292 2.001c.443.808.666 2.292.666 4.453l-.054 5.807c0 1.653.079 2.872.238 3.657.16.784.458 1.626.896 2.523h-4.923c-.13-.33-.289-.82-.478-1.47a10.01 10.01 0 0 0-.179-.584c-.845.827-1.755 1.446-2.725 1.86a7.809 7.809 0 0 1-3.097.619c-1.94 0-3.466-.525-4.58-1.576-1.114-1.05-1.671-2.38-1.671-3.983 0-1.063.254-2.01.761-2.842.507-.834 1.218-1.47 2.133-1.913.915-.443 2.233-.829 3.958-1.16 2.327-.437 3.938-.843 4.834-1.221v-.496c0-.957-.234-1.639-.707-2.045-.472-.408-1.367-.61-2.675-.61-.885 0-1.576.173-2.073.521-.498.349-.895.958-1.204 1.832Zm14.1-5.737h5.294l4.498 13.352 4.392-13.352h5.151l-6.641 18.097-1.188 3.276c-.434 1.098-.852 1.936-1.244 2.514a5.467 5.467 0 0 1-1.367 1.407c-.515.361-1.143.641-1.892.841-.75.202-1.597.302-2.545.302-.954 0-1.893-.1-2.811-.302l-.443-3.895c.78.154 1.479.23 2.106.23 1.158 0 2.015-.338 2.565-1.018.556-.679.98-1.544 1.275-2.594l-7.15-18.858ZM79.398 18.41v-2.142l6.305-.013v6.75c-.967.94-1.965 1.649-2.998 2.124a7.532 7.532 0 0 1-3.181.711c-1.452 0-2.751-.363-3.89-1.09-1.139-.726-2.043-1.79-2.704-3.185-.665-1.397-.998-3.074-.998-5.032 0-1.981.333-3.71 1.002-5.179.67-1.47 1.546-2.555 2.626-3.253 1.08-.699 2.363-1.047 3.838-1.047 1.092 0 2.043.202 2.861.606.818.405 1.49.979 2.02 1.722.527.742.927 1.763 1.189 3.059l-1.773.594c-.239-1.024-.54-1.79-.9-2.298a3.798 3.798 0 0 0-1.44-1.195c-.595-.289-1.26-.432-2.007-.432-1.08 0-2.012.26-2.79.786-.78.525-1.41 1.341-1.883 2.448-.477 1.108-.712 2.46-.712 4.054 0 2.429.509 4.249 1.522 5.459 1.018 1.211 2.337 1.816 3.964 1.816.775 0 1.57-.186 2.383-.556.814-.372 1.46-.815 1.941-1.326V18.41H79.4Zm9.215 7.121V7.376h10.762v2.142h-8.79v5.548h8.234v2.144h-8.234v6.18h9.138v2.141h-11.11Zm17.649-.001V9.516h-4.902V7.375h11.8v2.142h-4.927v16.012h-1.971Zm14.686.001V7.376h1.971v18.155h-1.971Zm9.226 0V9.518h-4.901V7.377h11.801v2.141h-4.93v16.013h-1.97Zm15.794-8.811c0 2.239.493 3.977 1.482 5.212.985 1.237 2.183 1.853 3.595 1.853 1.447 0 2.658-.623 3.634-1.872.981-1.247 1.469-3.081 1.469-5.503 0-1.562-.253-2.957-.754-4.19-.392-.942-.972-1.696-1.752-2.261-.78-.566-1.634-.85-2.558-.85-1.49 0-2.71.62-3.673 1.86-.963 1.24-1.443 3.156-1.443 5.75Zm-2.03-.031c0-3.097.679-5.477 2.043-7.14 1.36-1.663 3.059-2.495 5.09-2.495 1.312 0 2.51.37 3.591 1.115 1.081.742 1.939 1.822 2.571 3.237.632 1.417.946 3.103.946 5.06 0 2.691-.61 4.883-1.831 6.576-1.346 1.866-3.111 2.798-5.29 2.798-2.196 0-3.961-.956-5.303-2.873-1.212-1.734-1.817-3.826-1.817-6.278Zm16.679 8.841V7.374h2.018l7.831 14.282V7.375h1.88v18.154h-2.017l-7.814-14.285v14.285h-1.898Z"/>
</svg>
