<svg xmlns="http://www.w3.org/2000/svg" width="175" height="43" fill="none" viewBox="0 0 175 43">
  <path fill="#6EEC83" d="m21.893 21.348-10.936-9.183L.001 2.963v-.93C.001.485 1.659-.493 3.008.256l17.512 9.72 8.188 4.546-6.815 6.825Z"/>
  <path fill="#DE4551" d="M0 40.7v-.929l10.957-9.203 10.89-9.145 6.808 6.817-8.136 4.516-17.51 9.72C1.66 43.227 0 42.248 0 40.7Z"/>
  <path fill="#fff" d="M0 39.771V2.962l10.959 9.202 10.933 9.184.023.018-.068.057-10.888 9.145L0 39.771Z"/>
  <path fill="#5FD0FA" d="M0 39.771V2.962l10.959 9.202 10.933 9.184.023.018-.068.057-10.888 9.145L0 39.771Z"/>
  <path fill="#F6C644" d="m28.654 28.24-6.806-6.817.067-.057-.022-.018 6.815-6.825 9.132 5.068c1.392.773 1.392 2.778 0 3.55l-9.186 5.099Z"/>
  <path fill="#fff" d="m21.848 21.423-.014-.015.058-.06.023.019-.067.056Zm31.376 10.795v-2.745h7.08v6.49c-.688.668-1.685 1.254-2.991 1.762a10.853 10.853 0 0 1-3.967.761c-1.703 0-3.186-.357-4.45-1.072-1.267-.715-2.217-1.737-2.855-3.068-.636-1.33-.952-2.776-.952-4.34 0-1.697.354-3.205 1.064-4.524.71-1.32 1.75-2.33 3.12-3.034 1.041-.541 2.34-.812 3.896-.812 2.02 0 3.598.425 4.732 1.273 1.137.849 1.867 2.021 2.191 3.518l-3.26.611c-.232-.8-.661-1.432-1.294-1.895-.634-.463-1.424-.695-2.369-.695-1.436 0-2.578.456-3.426 1.367-.847.912-1.269 2.264-1.269 4.057 0 1.934.43 3.385 1.287 4.352.857.967 1.982 1.45 3.373 1.45.688 0 1.379-.135 2.07-.406a7.043 7.043 0 0 0 1.782-.983v-2.067h-3.762Zm12.561.089c0 1.17.28 2.068.834 2.69.555.622 1.24.933 2.053.933.816 0 1.497-.311 2.047-.933.553-.622.826-1.527.826-2.712 0-1.156-.273-2.046-.826-2.668-.55-.622-1.231-.934-2.047-.934-.813 0-1.498.312-2.053.934-.555.622-.834 1.52-.834 2.69Zm-3.196-.167c0-1.037.256-2.04.767-3.012a5.27 5.27 0 0 1 2.169-2.223c.937-.511 1.982-.766 3.136-.766 1.782 0 3.246.579 4.385 1.739 1.138 1.16 1.709 2.624 1.709 4.396 0 1.786-.576 3.266-1.725 4.44-1.151 1.175-2.6 1.762-4.348 1.762a6.836 6.836 0 0 1-3.09-.734 5.023 5.023 0 0 1-2.236-2.15c-.511-.945-.767-2.096-.767-3.452Zm17.081.167c0 1.17.28 2.068.835 2.69.555.622 1.237.933 2.05.933.817 0 1.5-.311 2.05-.933.551-.622.826-1.527.826-2.713 0-1.156-.275-2.044-.827-2.667-.55-.622-1.232-.934-2.048-.934-.814 0-1.496.312-2.051.934-.555.623-.835 1.52-.835 2.69Zm-3.195-.167c0-1.037.256-2.04.766-3.012a5.27 5.27 0 0 1 2.17-2.223c.937-.512 1.982-.767 3.134-.767 1.784 0 3.246.58 4.385 1.74 1.141 1.16 1.71 2.624 1.71 4.396 0 1.786-.577 3.266-1.726 4.44-1.15 1.175-2.598 1.762-4.345 1.762a6.824 6.824 0 0 1-3.09-.734 5.027 5.027 0 0 1-2.239-2.15c-.509-.945-.765-2.096-.765-3.452Zm17.103-.077c0 1.252.242 2.169.725 2.75.487.583 1.083.873 1.795.873.761 0 1.404-.298 1.93-.895.527-.597.788-1.48.788-2.65 0-1.223-.25-2.13-.753-2.724-.503-.592-1.14-.889-1.91-.889-.748 0-1.363.29-1.85.873-.483.582-.725 1.469-.725 2.662Zm-2.784 6.924 3.562.434c.057.415.195.7.409.856.297.222.761.334 1.399.334.813 0 1.424-.123 1.83-.368.275-.162.481-.425.624-.788.096-.26.143-.738.143-1.434v-1.724c-.932 1.275-2.108 1.912-3.529 1.912-1.583 0-2.839-.67-3.762-2.012-.726-1.06-1.088-2.378-1.088-3.956 0-1.979.475-3.49 1.426-4.535.95-1.045 2.133-1.567 3.545-1.567 1.46 0 2.66.64 3.609 1.922v-1.656h2.918v10.593c0 1.393-.115 2.434-.343 3.123-.231.69-.553 1.23-.968 1.623-.415.392-.967.7-1.657.922-.692.223-1.566.334-2.627.334-1.998 0-3.413-.342-4.249-1.029-.835-.684-1.256-1.554-1.256-2.606 0-.104.006-.23.014-.378Zm14.172-.778V21.915h3.118V38.21h-3.118Zm13.319-6.913c-.023-.904-.255-1.591-.7-2.063a2.148 2.148 0 0 0-1.621-.705c-.679 0-1.241.248-1.686.745-.445.497-.663 1.17-.657 2.023h4.664Zm-.178 3.156 3.106.522c-.399 1.142-1.03 2.01-1.893 2.607-.86.596-1.939.895-3.232.895-2.051 0-3.568-.67-4.552-2.012-.777-1.075-1.164-2.43-1.164-4.069 0-1.955.51-3.487 1.531-4.595 1.021-1.108 2.312-1.662 3.872-1.662 1.755 0 3.138.58 4.153 1.74 1.013 1.16 1.497 2.936 1.452 5.33h-7.813c.023.925.275 1.646.754 2.16.482.516 1.081.773 1.798.773.488 0 .901-.132 1.234-.4.332-.266.582-.696.754-1.289Zm15.437-9.78v4.623h1.799c1.295 0 2.159-.085 2.597-.255a2.16 2.16 0 0 0 1.026-.801 2.19 2.19 0 0 0 .371-1.267c0-.593-.174-1.081-.521-1.467a2.272 2.272 0 0 0-1.32-.723c-.393-.074-1.181-.11-2.363-.11h-1.589Zm-3.284 13.537V21.915h5.272c1.997 0 3.299.082 3.907.245.93.244 1.713.776 2.339 1.594.63.82.945 1.877.945 3.174 0 1-.18 1.841-.543 2.523-.363.682-.824 1.217-1.382 1.606a4.783 4.783 0 0 1-1.704.773c-.785.155-1.919.233-3.406.233h-2.144v6.146h-3.284Zm15.138.001V21.914h3.12V38.21h-3.12Zm12.819-5.67c-.399.135-1.032.293-1.899.479-.866.185-1.43.367-1.698.544-.405.289-.611.656-.611 1.1 0 .438.162.816.489 1.134.327.319.742.478 1.244.478.561 0 1.1-.184 1.608-.556.377-.281.627-.626.745-1.033.081-.267.122-.774.122-1.523v-.622Zm-4.174-2.534-2.83-.511c.318-1.142.867-1.986 1.643-2.534.776-.549 1.932-.822 3.462-.822 1.391 0 2.428.164 3.108.494.679.33 1.159.748 1.437 1.256.277.508.417 1.439.417 2.795l-.034 3.646c0 1.037.05 1.803.15 2.295.099.493.286 1.02.561 1.584h-3.086a11.514 11.514 0 0 1-.299-.922 7.642 7.642 0 0 0-.112-.367 5.587 5.587 0 0 1-1.708 1.167 4.893 4.893 0 0 1-1.942.389c-1.216 0-2.173-.33-2.871-.99-.698-.659-1.047-1.493-1.047-2.5 0-.667.159-1.261.477-1.784a3.122 3.122 0 0 1 1.337-1.2c.574-.279 1.4-.52 2.481-.729 1.459-.274 2.469-.529 3.03-.766v-.312c0-.6-.147-1.028-.443-1.283-.296-.256-.857-.384-1.677-.384-.555 0-.988.11-1.3.328-.311.219-.561.602-.754 1.15Zm8.838-3.601h3.318l2.82 8.381 2.752-8.381H175l-4.162 11.36-.745 2.056c-.272.69-.534 1.215-.78 1.578-.25.363-.534.658-.857.883a3.708 3.708 0 0 1-1.186.529 6.13 6.13 0 0 1-1.595.189 8.175 8.175 0 0 1-1.762-.19l-.278-2.445c.489.097.927.145 1.321.145.725 0 1.262-.213 1.608-.64.348-.426.613-.968.799-1.627l-4.482-11.838ZM49.767 11.556v-1.344l3.952-.008v4.236c-.606.591-1.231 1.036-1.879 1.334a4.715 4.715 0 0 1-1.994.447c-.91 0-1.724-.228-2.438-.685-.714-.456-1.28-1.123-1.695-2-.417-.876-.625-1.929-.625-3.157 0-1.245.208-2.33.628-3.251.419-.924.968-1.605 1.645-2.043.677-.438 1.482-.657 2.407-.657.684 0 1.28.126 1.792.38a3.36 3.36 0 0 1 1.266 1.081c.331.466.581 1.107.746 1.92l-1.111.373c-.15-.642-.339-1.123-.564-1.442a2.38 2.38 0 0 0-.903-.75 2.83 2.83 0 0 0-1.258-.272c-.677 0-1.261.164-1.75.494-.487.33-.882.842-1.179 1.537-.3.695-.446 1.543-.446 2.544 0 1.525.319 2.667.954 3.427.638.76 1.464 1.14 2.484 1.14.486 0 .984-.117 1.494-.349.51-.233.915-.511 1.217-.832v-2.123h-2.742Zm5.777 4.47V4.63h6.745v1.345h-5.51v3.482h5.161v1.346h-5.16v3.879h5.727v1.344h-6.963Zm11.062 0V5.974h-3.073V4.63h7.396v1.344h-3.088v10.052h-1.235Zm9.204 0V4.63h1.236v11.396h-1.235Zm5.784 0V5.975h-3.072V4.63h7.397v1.345h-3.09v10.051h-1.235Zm9.9-5.531c0 1.406.309 2.497.929 3.272.617.777 1.368 1.163 2.253 1.163.907 0 1.666-.39 2.278-1.175.615-.783.92-1.934.92-3.454 0-.98-.158-1.856-.472-2.63a3.249 3.249 0 0 0-1.098-1.42 2.67 2.67 0 0 0-1.603-.533c-.934 0-1.7.389-2.303 1.167s-.904 1.981-.904 3.61Zm-1.273-.019c0-1.944.426-3.438 1.281-4.482.852-1.044 1.918-1.566 3.19-1.566a3.88 3.88 0 0 1 2.251.7c.678.466 1.216 1.144 1.612 2.032.396.89.593 1.948.593 3.176 0 1.69-.383 3.065-1.148 4.128-.844 1.172-1.95 1.757-3.316 1.757-1.376 0-2.483-.601-3.324-1.804-.76-1.088-1.139-2.402-1.139-3.941Zm10.455 5.55V4.629h1.265l4.908 8.966V4.629h1.179v11.397h-1.265l-4.898-8.968v8.968h-1.189Z"/>
</svg>
