<svg xmlns="http://www.w3.org/2000/svg" width="58" height="58" fill="none" viewBox="0 0 58 58">
  <path fill="#011034" d="M7.576 54.375a3.625 3.625 0 0 0 3.625-3.625V29a3.625 3.625 0 0 0-7.25 0v21.75a3.625 3.625 0 0 0 3.625 3.625Zm13.322-7.25h-6.072V29c2.404 0 4.415-1.69 5.64-3.76a14.499 14.499 0 0 1 4.924-4.99c1.732-1.06 3.287-2.56 3.585-4.568v-.022a32.62 32.62 0 0 0 0-9.577c-.102-.704.174-1.429.812-1.737A7.25 7.25 0 0 1 40.2 10.875a43.222 43.222 0 0 1-.852 8.595 1.886 1.886 0 0 0 1.82 2.28h6.282c4.002 0 7.286 3.255 6.891 7.239a72.504 72.504 0 0 1-3.919 17.353c-.978 2.711-3.617 4.408-6.499 4.408h-9.798a7.175 7.175 0 0 1-2.291-.373l-8.642-2.879a7.25 7.25 0 0 0-2.295-.373Z"/>
</svg>
