<svg xmlns="http://www.w3.org/2000/svg" width="35" height="35" fill="none" viewBox="0 0 35 35">
  <g clip-path="url(#a)">
    <path fill="#000" d="M17.5 31.53a.972.972 0 0 1-.593-.205c-5.406-4.2-9.13-7.817-11.735-11.385-3.325-4.56-4.083-8.77-2.255-12.512 1.302-2.674 5.046-4.861 9.42-3.588A9.596 9.596 0 0 1 17.5 7.505a9.596 9.596 0 0 1 5.163-3.665c4.365-1.254 8.118.914 9.42 3.588 1.828 3.743 1.07 7.952-2.255 12.512-2.606 3.568-6.33 7.185-11.735 11.385a.973.973 0 0 1-.593.204ZM9.849 5.424a5.736 5.736 0 0 0-5.182 2.849c-1.507 3.091-.827 6.533 2.08 10.51A55.415 55.415 0 0 0 17.5 29.321a55.416 55.416 0 0 0 10.753-10.529c2.916-3.986 3.587-7.428 2.08-10.51-.972-1.944-3.888-3.49-7.136-2.576a7.778 7.778 0 0 0-4.802 4.083.972.972 0 0 1-1.8 0 7.709 7.709 0 0 0-4.802-4.083 7.098 7.098 0 0 0-1.944-.282Z"/>
  </g>
  <defs>
    <clipPath id="a">
      <path fill="#fff" d="M0 0h35v35H0z"/>
    </clipPath>
  </defs>
</svg>
