<svg xmlns="http://www.w3.org/2000/svg" width="25" height="25" fill="none" viewBox="0 0 25 25">
  <path fill="#000" fill-rule="evenodd" d="M19.76 3.811a2.343 2.343 0 0 0-3.314 0L5.05 15.207a3.906 3.906 0 0 0 5.525 5.524l8.014-8.013a.781.781 0 0 1 1.104 1.104l-8.014 8.013a5.469 5.469 0 1 1-7.733-7.733L15.34 2.706a3.906 3.906 0 0 1 5.524 5.525L9.476 19.62l-.008.008-.008.007-.002.002-.003.003a2.344 2.344 0 0 1-3.299-3.328l8.136-8.135a.781.781 0 0 1 1.105 1.104L7.26 17.417a.781.781 0 1 0 1.098 1.112L19.76 7.125a2.345 2.345 0 0 0 0-3.314Z" clip-rule="evenodd"/>
</svg>
