<svg xmlns="http://www.w3.org/2000/svg" width="58" height="58" fill="none" viewBox="0 0 58 58">
  <path fill="#011034" d="M14.5 48.333c-1.33 0-2.467-.473-3.412-1.418-.946-.946-1.42-2.084-1.421-3.415V25.677L7.25 27.55a2.35 2.35 0 0 1-1.781.483c-.664-.08-1.198-.402-1.602-.966a2.202 2.202 0 0 1-.452-1.752 2.388 2.388 0 0 1 .935-1.571L26.1 7.069a5.03 5.03 0 0 1 2.96-.967c.522 0 1.026.08 1.51.242.486.16.949.402 1.39.725l18.065 13.835c.765.564.957 1.289.575 2.175-.382.886-1.037 1.269-1.965 1.148a12.816 12.816 0 0 0-3.17.032 14.032 14.032 0 0 0-3.173.814c-2.417-.927-4.904-1.138-7.463-.633-2.558.504-4.803 1.722-6.735 3.654-1.932 1.931-3.15 4.177-3.657 6.737-.506 2.56-.294 5.047.636 7.46a17.791 17.791 0 0 0-.604 1.934 10.825 10.825 0 0 0-.302 1.994 2.413 2.413 0 0 1-.633 1.481 1.828 1.828 0 0 1-1.421.633H14.5Zm27.792 5.74c-1.692 1.168-3.554 1.662-5.588 1.481-2.033-.18-3.775-.996-5.227-2.448-1.451-1.451-2.267-3.193-2.445-5.225-.18-2.031.314-3.895 1.479-5.59-1.169-1.691-1.662-3.553-1.48-5.587.183-2.033.998-3.775 2.446-5.227 1.448-1.452 3.19-2.267 5.227-2.446 2.037-.178 3.9.315 5.588 1.48 1.691-1.169 3.555-1.662 5.59-1.48 2.034.182 3.776.998 5.224 2.446 1.449 1.448 2.265 3.19 2.448 5.227.184 2.037-.31 3.9-1.481 5.588 1.168 1.691 1.662 3.555 1.481 5.59-.18 2.034-.996 3.776-2.448 5.224-1.451 1.449-3.193 2.265-5.224 2.448-2.032.184-3.895-.31-5.59-1.481Zm0-8.76c.846 0 1.56-.293 2.146-.878.585-.585.876-1.3.874-2.143-.001-.845-.293-1.56-.877-2.146-.583-.587-1.297-.878-2.143-.875-.846.003-1.561.295-2.146.877-.585.582-.877 1.296-.875 2.144.002.847.294 1.562.877 2.146.583.583 1.298.874 2.144.874Z"/>
</svg>
