<svg xmlns="http://www.w3.org/2000/svg" width="25" height="25" fill="none" viewBox="0 0 25 25">
  <path fill="#000" d="M18.75 16.75c-.792 0-1.5.313-2.042.802L9.281 13.23c.052-.24.094-.479.094-.729s-.042-.49-.094-.73l7.344-4.28c.563.52 1.302.843 2.125.843a3.12 3.12 0 0 0 3.125-3.125 3.12 3.12 0 0 0-3.125-3.125 3.12 3.12 0 0 0-3.125 3.125c0 .25.042.49.094.73l-7.344 4.28a3.111 3.111 0 0 0-2.125-.843A3.12 3.12 0 0 0 3.125 12.5a3.12 3.12 0 0 0 3.125 3.125 3.11 3.11 0 0 0 2.125-.844l7.417 4.334a2.938 2.938 0 0 0-.084.677 3.045 3.045 0 0 0 3.042 3.041 3.045 3.045 0 0 0 3.042-3.041 3.045 3.045 0 0 0-3.042-3.042Z"/>
</svg>
