<svg width="40" height="40" viewBox="0 0 40 40" fill="none" xmlns="http://www.w3.org/2000/svg">
<path d="M28.4167 33.8C26.7833 35.3833 25 35.1333 23.2833 34.3833C21.4667 33.6167 19.8 33.5833 17.8833 34.3833C15.4833 35.4167 14.2167 35.1167 12.7833 33.8C4.64999 25.4167 5.84999 12.65 15.0833 12.1833C17.3333 12.3 18.9 13.4167 20.2167 13.5167C22.1833 13.1167 24.0667 11.9667 26.1667 12.1167C28.6833 12.3167 30.5833 13.3167 31.8333 15.1167C26.6333 18.2333 27.8667 25.0833 32.6333 27C31.6833 29.5 30.45 31.9833 28.4 33.8167L28.4167 33.8ZM20.05 12.0833C19.8 8.36667 22.8167 5.3 26.2833 5C26.7667 9.3 22.3833 12.5 20.05 12.0833Z" fill="black"/>
</svg>
