<svg xmlns="http://www.w3.org/2000/svg" width="25" height="25" fill="none" viewBox="0 0 25 25">
  <path fill="#000" d="M18.75 16.75c-.792 0-1.5.312-2.042.802l-7.427-4.323c.052-.24.094-.48.094-.73s-.042-.489-.094-.728l7.344-4.282a3.112 3.112 0 0 0 2.125.844 3.12 3.12 0 0 0 3.125-3.125 3.12 3.12 0 0 0-3.125-3.125 3.12 3.12 0 0 0-3.125 3.125c0 .25.042.49.094.73l-7.344 4.28a3.111 3.111 0 0 0-2.125-.843A3.12 3.12 0 0 0 3.125 12.5a3.12 3.12 0 0 0 3.125 3.125 3.11 3.11 0 0 0 2.125-.844l7.417 4.333a2.938 2.938 0 0 0-.084.678 3.045 3.045 0 0 0 3.042 3.041 3.045 3.045 0 0 0 3.042-3.041 3.045 3.045 0 0 0-3.042-3.042Z"/>
</svg>
