<svg xmlns="http://www.w3.org/2000/svg" width="40" height="40" fill="none" viewBox="0 0 40 40">
  <path fill="#000" d="M28.417 33.8c-1.634 1.583-3.417 1.333-5.134.583-1.816-.766-3.483-.8-5.4 0-2.4 1.034-3.666.734-5.1-.583-8.133-8.383-6.933-21.15 2.3-21.617 2.25.117 3.817 1.234 5.134 1.334 1.966-.4 3.85-1.55 5.95-1.4 2.516.2 4.416 1.2 5.666 3-5.2 3.116-3.966 9.966.8 11.883-.95 2.5-2.183 4.983-4.233 6.817l.017-.017ZM20.05 12.083C19.8 8.367 22.817 5.3 26.283 5c.484 4.3-3.9 7.5-6.233 7.083Z"/>
</svg>
