<svg xmlns="http://www.w3.org/2000/svg" width="30" height="30" fill="none" viewBox="0 0 30 30">
  <path fill="#fff" d="M17.279 15.293c-.02.437-.163.86-.414 1.218a2.13 2.13 0 0 1-1.036.804c-.418.17-.877.209-1.317.11a2.254 2.254 0 0 1-1.157-.645 2.365 2.365 0 0 1-.585-1.22 2.193 2.193 0 0 1 .159-1.304c.18-.409.475-.757.852-1a2.446 2.446 0 0 1 1.28-.365 2.37 2.37 0 0 1 1.573.719 2.316 2.316 0 0 1 .645 1.683Z"/>
  <path fill="#fff" d="M21.581 10.002a2.827 2.827 0 0 0-1.56-1.56 3.205 3.205 0 0 0-1.108-.218H11.21A2.888 2.888 0 0 0 8.334 11.1v7.849a2.865 2.865 0 0 0 .852 2.035 2.9 2.9 0 0 0 2.024.841h7.703a2.9 2.9 0 0 0 2.653-1.774c.146-.349.222-.724.223-1.102V11.11a3.188 3.188 0 0 0-.208-1.109Zm-3.046 6.802a3.67 3.67 0 0 1-.805 1.219c-.35.353-.764.637-1.219.84a3.91 3.91 0 0 1-3.107-.034 3.85 3.85 0 0 1-2.207-4.207 4.02 4.02 0 0 1 1.037-1.987 3.888 3.888 0 0 1 4.192-.865 3.743 3.743 0 0 1 1.73 1.426c.422.619.651 1.348.659 2.097a3.58 3.58 0 0 1-.28 1.51Zm1.34-6.021a.694.694 0 1 1-1.378 0 .697.697 0 1 1 1.378 0Z"/>
  <path fill="#fff" d="M21.094 2.813H8.906a6.094 6.094 0 0 0-6.094 6.093v12.188a6.093 6.093 0 0 0 6.094 6.093h12.188a6.092 6.092 0 0 0 6.093-6.093V8.906a6.093 6.093 0 0 0-6.093-6.094Zm2.583 16.015a4.628 4.628 0 0 1-.353 1.863 4.875 4.875 0 0 1-2.62 2.62 4.656 4.656 0 0 1-1.865.354h-7.495c-.64.01-1.274-.11-1.865-.352a5.009 5.009 0 0 1-1.573-1.05 4.876 4.876 0 0 1-1.047-1.572 4.656 4.656 0 0 1-.39-1.865v-7.553c-.01-.64.11-1.274.353-1.865A4.875 4.875 0 0 1 9.42 6.763a4.875 4.875 0 0 1 1.925-.33H18.9a4.753 4.753 0 0 1 3.413 1.402c.446.452.8.987 1.047 1.573.244.59.365 1.225.354 1.865l-.037 7.555Z"/>
</svg>
