<svg width="25" height="25" viewBox="0 0 25 25" fill="none" xmlns="http://www.w3.org/2000/svg">
<path d="M12.5 11.9791C11.8093 11.9791 11.147 11.7047 10.6586 11.2163C10.1702 10.728 9.89583 10.0656 9.89583 9.37492C9.89583 8.68425 10.1702 8.02187 10.6586 7.53349C11.147 7.04512 11.8093 6.77075 12.5 6.77075C13.1907 6.77075 13.853 7.04512 14.3414 7.53349C14.8298 8.02187 15.1042 8.68425 15.1042 9.37492C15.1042 9.7169 15.0368 10.0555 14.9059 10.3715C14.7751 10.6874 14.5832 10.9745 14.3414 11.2163C14.0996 11.4582 13.8125 11.65 13.4966 11.7809C13.1806 11.9117 12.842 11.9791 12.5 11.9791ZM12.5 2.08325C10.5661 2.08325 8.71146 2.85148 7.34401 4.21893C5.97656 5.58638 5.20833 7.44105 5.20833 9.37492C5.20833 14.8437 12.5 22.9166 12.5 22.9166C12.5 22.9166 19.7917 14.8437 19.7917 9.37492C19.7917 7.44105 19.0234 5.58638 17.656 4.21893C16.2885 2.85148 14.4339 2.08325 12.5 2.08325Z" fill="black"/>
</svg>
