<svg xmlns="http://www.w3.org/2000/svg" width="55" height="58" fill="none" viewBox="0 0 55 58">
  <g clip-path="url(#a)">
    <path fill="#000" stroke="#000" d="m31.862 4.792.006-.005.005-.005C34.11 2.484 37.99.796 41.244.529c.195 3.082-1.268 6.115-3.488 8.434-2.278 2.272-5.863 4.066-9.46 3.96-.25-2.962 1.483-6.117 3.566-8.13Zm-14.72 9.97h.002c2.15-.034 4.229.568 6.155 1.202l.753.251c.687.23 1.355.454 1.98.634.853.244 1.675.42 2.428.42.75 0 1.618-.206 2.544-.483a64.519 64.519 0 0 0 1.697-.546c.453-.15.921-.305 1.394-.454 2.24-.708 4.797-1.364 7.535-1.232 2.127.133 7.954.652 11.885 5.133a17.018 17.018 0 0 0-3.462 2.638c-1.892 1.88-3.765 4.717-3.722 8.574.043 4.593 2.433 7.651 4.79 9.55a17.338 17.338 0 0 0 4.275 2.514c-.458 1.176-1.825 4.36-4.472 7.615-2.92 3.608-5.754 6.898-10.21 6.963-2.131.032-3.555-.487-5.115-1.056a43.55 43.55 0 0 0-.11-.04c-1.618-.589-3.375-1.206-6.092-1.206-2.69 0-4.485.58-6.125 1.163l-.333.118c-1.497.536-2.874 1.028-4.8 1.09-2.123.064-4.017-.813-5.76-2.18-1.749-1.37-3.306-3.202-4.752-4.989l-.002-.002C4.72 46.89 2.15 41.876 1.063 36.667-.025 31.457.38 26.113 3.333 21.83l.003-.005c2.873-4.283 8.13-6.997 13.806-7.064Z"/>
  </g>
  <defs>
    <clipPath id="a">
      <path fill="#fff" d="M0 0h55v58H0z"/>
    </clipPath>
  </defs>
</svg>
