<svg xmlns="http://www.w3.org/2000/svg" width="33" height="25" fill="none" viewBox="0 0 33 25">
  <g clip-path="url(#a)">
    <path fill="#000" d="M5.851 24.876V23.22c0-.634-.386-1.048-1.048-1.048-.33 0-.69.11-.937.469-.193-.303-.47-.469-.883-.469a.89.89 0 0 0-.772.386v-.33h-.58v2.647h.58v-1.462c0-.469.248-.69.634-.69s.58.249.58.69v1.462h.579v-1.462c0-.469.275-.69.634-.69.386 0 .579.249.579.69v1.462h.634Zm8.577-2.648h-.938v-.8h-.579v.8h-.524v.524h.524v1.214c0 .607.248.965.91.965.249 0 .524-.083.718-.193l-.166-.497a.907.907 0 0 1-.496.138c-.276 0-.386-.165-.386-.44v-1.187h.937v-.524Zm4.91-.055a.777.777 0 0 0-.69.386v-.33h-.58v2.647h.58v-1.49c0-.44.193-.689.551-.689.11 0 .248.028.359.055l.165-.551c-.11-.028-.276-.028-.386-.028m-7.418.276c-.276-.193-.662-.276-1.076-.276-.662 0-1.103.331-1.103.855 0 .442.33.69.91.772l.276.028c.303.055.469.138.469.276 0 .193-.221.33-.607.33s-.69-.137-.883-.275l-.276.441c.304.22.718.331 1.131.331.772 0 1.214-.358 1.214-.855 0-.469-.359-.717-.91-.8l-.276-.027c-.248-.028-.441-.083-.441-.248 0-.193.193-.304.496-.304.33 0 .662.138.827.22l.248-.468Zm15.388-.276a.777.777 0 0 0-.69.386v-.33h-.578v2.647h.579v-1.49c0-.44.193-.689.551-.689.11 0 .249.028.359.055l.165-.551c-.11-.028-.275-.028-.386-.028Zm-7.39 1.38c0 .799.55 1.378 1.406 1.378.386 0 .662-.083.937-.303l-.275-.47c-.221.166-.442.25-.69.25-.469 0-.8-.332-.8-.856 0-.496.331-.827.8-.855.248 0 .469.083.69.248l.275-.468c-.275-.221-.551-.304-.937-.304-.855 0-1.407.58-1.407 1.38Zm5.35 0v-1.325h-.58v.331c-.193-.248-.469-.386-.827-.386-.745 0-1.324.58-1.324 1.38 0 .799.58 1.378 1.324 1.378.386 0 .662-.138.827-.386v.33h.58v-1.323Zm-2.124 0c0-.47.303-.856.8-.856.468 0 .8.359.8.855 0 .469-.331.855-.8.855-.497-.028-.8-.386-.8-.855Zm-6.922-1.38c-.773 0-1.324.552-1.324 1.38 0 .826.551 1.378 1.351 1.378.386 0 .772-.11 1.076-.358l-.276-.414c-.22.165-.496.276-.772.276-.359 0-.717-.166-.8-.635h1.958v-.22c.028-.855-.469-1.407-1.213-1.407Zm0 .497c.358 0 .606.22.662.634h-1.38c.056-.358.304-.634.718-.634Zm14.368.882V21.18h-.58v1.38c-.192-.249-.468-.387-.826-.387-.745 0-1.324.58-1.324 1.38 0 .799.579 1.378 1.323 1.378.387 0 .662-.138.828-.386v.33h.579v-1.323Zm-2.123 0c0-.469.303-.855.8-.855.468 0 .799.359.799.855 0 .469-.33.855-.8.855-.496-.028-.8-.386-.8-.855Zm-19.36 0v-1.324h-.58v.331c-.193-.248-.469-.386-.827-.386-.745 0-1.324.58-1.324 1.38 0 .799.58 1.378 1.324 1.378.386 0 .662-.138.827-.386v.33h.58v-1.323Zm-2.152 0c0-.469.304-.855.8-.855.469 0 .8.359.8.855 0 .469-.331.855-.8.855-.496-.028-.8-.386-.8-.855Z"/>
    <path fill="#FF5F00" d="M11.726 2.124h8.687v15.609h-8.688V2.123Z"/>
    <path fill="#EB001B" d="M12.277 9.928a9.955 9.955 0 0 1 3.778-7.805A9.867 9.867 0 0 0 9.933 0 9.922 9.922 0 0 0 .005 9.928a9.922 9.922 0 0 0 9.928 9.928c2.316 0 4.44-.8 6.122-2.123a9.913 9.913 0 0 1-3.778-7.805Z"/>
    <path fill="#F79E1B" d="M32.133 9.928a9.922 9.922 0 0 1-9.928 9.928c-2.316 0-4.44-.8-6.122-2.123a9.872 9.872 0 0 0 3.778-7.805 9.955 9.955 0 0 0-3.778-7.805A9.867 9.867 0 0 1 22.205 0c5.488 0 9.928 4.468 9.928 9.928Z"/>
  </g>
  <defs>
    <clipPath id="a">
      <path fill="#fff" d="M0 0h32.17v25H0z"/>
    </clipPath>
  </defs>
</svg>
