<svg xmlns="http://www.w3.org/2000/svg" width="55" height="58" fill="none" viewBox="0 0 55 58">
  <g clip-path="url(#a)">
    <mask id="b" fill="#fff">
      <path d="M10.004 57.712v-3.84c0-1.471-.66-2.43-1.792-2.43-.566 0-1.179.255-1.603 1.087-.33-.704-.802-1.088-1.509-1.088-.472 0-.943.192-1.32.896v-.768h-.99v6.143h.99V54.32c0-1.087.424-1.599 1.085-1.599.66 0 .99.576.99 1.6v3.39h.99v-3.39c0-1.088.471-1.6 1.084-1.6.66 0 .99.576.99 1.6v3.39h1.085Zm14.663-6.143h-1.603v-1.855h-.99v1.855h-.896v1.216h.896V55.6c0 1.408.424 2.24 1.556 2.24.425 0 .896-.192 1.226-.448l-.283-1.152c-.283.256-.613.32-.849.32-.471 0-.66-.384-.66-1.024v-2.751h1.603V51.57Zm8.393-.128c-.566 0-.943.384-1.179.896v-.768h-.99v6.143h.99v-3.455c0-1.024.33-1.6.943-1.6.189 0 .425.064.613.128l.283-1.28c-.188-.064-.471-.064-.66-.064m-12.683.64c-.472-.447-1.132-.64-1.84-.64-1.13 0-1.885.768-1.885 1.984 0 1.024.566 1.6 1.556 1.792l.471.064c.519.128.802.32.802.64 0 .447-.377.767-1.038.767-.66 0-1.178-.32-1.508-.64l-.472 1.024c.519.512 1.226.768 1.933.768 1.32 0 2.075-.832 2.075-1.984 0-1.087-.613-1.663-1.556-1.855l-.471-.064c-.425-.064-.755-.192-.755-.576 0-.448.33-.703.849-.703.566 0 1.131.32 1.414.511l.425-1.087Zm26.31-.64c-.566 0-.944.385-1.18.896v-.767h-.99v6.142h.99v-3.455c0-1.024.33-1.6.944-1.6.188 0 .424.065.613.128l.282-1.28c-.188-.063-.47-.063-.66-.063Zm-12.637 3.2c0 1.855.943 3.199 2.405 3.199.66 0 1.131-.192 1.603-.704l-.472-1.087c-.377.383-.754.575-1.178.575-.802 0-1.368-.768-1.368-1.983 0-1.152.566-1.92 1.368-1.983.424 0 .801.191 1.178.575l.472-1.087c-.472-.512-.943-.704-1.603-.704-1.462 0-2.405 1.343-2.405 3.199Zm9.147 0V51.57h-.99v.767c-.33-.575-.801-.895-1.414-.895-1.273 0-2.264 1.343-2.264 3.199 0 1.855.99 3.199 2.264 3.199.66 0 1.131-.32 1.414-.896v.768h.99V54.64Zm-3.63 0c0-1.088.518-1.983 1.367-1.983.802 0 1.367.831 1.367 1.983 0 1.088-.565 1.983-1.367 1.983-.849-.064-1.367-.895-1.367-1.983Zm-11.835-3.2c-1.32 0-2.263 1.28-2.263 3.2 0 1.92.943 3.199 2.31 3.199.66 0 1.32-.256 1.84-.832l-.473-.96c-.377.384-.848.64-1.32.64-.613 0-1.226-.384-1.367-1.471h3.348v-.512c.047-1.984-.802-3.263-2.075-3.263Zm0 1.152c.613 0 1.037.512 1.131 1.472h-2.357c.094-.832.519-1.472 1.226-1.472Zm24.565 2.048v-5.503h-.99v3.2c-.33-.576-.802-.896-1.415-.896-1.273 0-2.263 1.343-2.263 3.199 0 1.855.99 3.199 2.263 3.199.66 0 1.132-.32 1.415-.896v.768h.99V54.64Zm-3.63 0c0-1.088.518-1.983 1.367-1.983.802 0 1.367.831 1.367 1.983 0 1.088-.566 1.983-1.367 1.983-.849-.064-1.367-.895-1.367-1.983Zm-33.1 0V51.57h-.99v.767c-.33-.575-.802-.895-1.415-.895-1.273 0-2.263 1.343-2.263 3.199 0 1.855.99 3.199 2.263 3.199.66 0 1.132-.32 1.415-.896v.768h.99V54.64Zm-3.678 0c0-1.088.52-1.983 1.368-1.983.801 0 1.367.831 1.367 1.983 0 1.088-.566 1.983-1.367 1.983-.849-.064-1.368-.895-1.368-1.983Z"/>
    </mask>
    <path fill="#000" d="M10.004 57.712v-3.84c0-1.471-.66-2.43-1.792-2.43-.566 0-1.179.255-1.603 1.087-.33-.704-.802-1.088-1.509-1.088-.472 0-.943.192-1.32.896v-.768h-.99v6.143h.99V54.32c0-1.087.424-1.599 1.085-1.599.66 0 .99.576.99 1.6v3.39h.99v-3.39c0-1.088.471-1.6 1.084-1.6.66 0 .99.576.99 1.6v3.39h1.085Zm14.663-6.143h-1.603v-1.855h-.99v1.855h-.896v1.216h.896V55.6c0 1.408.424 2.24 1.556 2.24.425 0 .896-.192 1.226-.448l-.283-1.152c-.283.256-.613.32-.849.32-.471 0-.66-.384-.66-1.024v-2.751h1.603V51.57Zm8.393-.128c-.566 0-.943.384-1.179.896v-.768h-.99v6.143h.99v-3.455c0-1.024.33-1.6.943-1.6.189 0 .425.064.613.128l.283-1.28c-.188-.064-.471-.064-.66-.064m-12.683.64c-.472-.447-1.132-.64-1.84-.64-1.13 0-1.885.768-1.885 1.984 0 1.024.566 1.6 1.556 1.792l.471.064c.519.128.802.32.802.64 0 .447-.377.767-1.038.767-.66 0-1.178-.32-1.508-.64l-.472 1.024c.519.512 1.226.768 1.933.768 1.32 0 2.075-.832 2.075-1.984 0-1.087-.613-1.663-1.556-1.855l-.471-.064c-.425-.064-.755-.192-.755-.576 0-.448.33-.703.849-.703.566 0 1.131.32 1.414.511l.425-1.087Zm26.31-.64c-.566 0-.944.385-1.18.896v-.767h-.99v6.142h.99v-3.455c0-1.024.33-1.6.944-1.6.188 0 .424.065.613.128l.282-1.28c-.188-.063-.47-.063-.66-.063Zm-12.637 3.2c0 1.855.943 3.199 2.405 3.199.66 0 1.131-.192 1.603-.704l-.472-1.087c-.377.383-.754.575-1.178.575-.802 0-1.368-.768-1.368-1.983 0-1.152.566-1.92 1.368-1.983.424 0 .801.191 1.178.575l.472-1.087c-.472-.512-.943-.704-1.603-.704-1.462 0-2.405 1.343-2.405 3.199Zm9.147 0V51.57h-.99v.767c-.33-.575-.801-.895-1.414-.895-1.273 0-2.264 1.343-2.264 3.199 0 1.855.99 3.199 2.264 3.199.66 0 1.131-.32 1.414-.896v.768h.99V54.64Zm-3.63 0c0-1.088.518-1.983 1.367-1.983.802 0 1.367.831 1.367 1.983 0 1.088-.565 1.983-1.367 1.983-.849-.064-1.367-.895-1.367-1.983Zm-11.835-3.2c-1.32 0-2.263 1.28-2.263 3.2 0 1.92.943 3.199 2.31 3.199.66 0 1.32-.256 1.84-.832l-.473-.96c-.377.384-.848.64-1.32.64-.613 0-1.226-.384-1.367-1.471h3.348v-.512c.047-1.984-.802-3.263-2.075-3.263Zm0 1.152c.613 0 1.037.512 1.131 1.472h-2.357c.094-.832.519-1.472 1.226-1.472Zm24.565 2.048v-5.503h-.99v3.2c-.33-.576-.802-.896-1.415-.896-1.273 0-2.263 1.343-2.263 3.199 0 1.855.99 3.199 2.263 3.199.66 0 1.132-.32 1.415-.896v.768h.99V54.64Zm-3.63 0c0-1.088.518-1.983 1.367-1.983.802 0 1.367.831 1.367 1.983 0 1.088-.566 1.983-1.367 1.983-.849-.064-1.367-.895-1.367-1.983Zm-33.1 0V51.57h-.99v.767c-.33-.575-.802-.895-1.415-.895-1.273 0-2.263 1.343-2.263 3.199 0 1.855.99 3.199 2.263 3.199.66 0 1.132-.32 1.415-.896v.768h.99V54.64Zm-3.678 0c0-1.088.52-1.983 1.368-1.983.801 0 1.367.831 1.367 1.983 0 1.088-.566 1.983-1.367 1.983-.849-.064-1.368-.895-1.368-1.983Z"/>
    <path fill="#000" d="M10.004 57.712v1h1v-1h-1Zm-3.395-5.183-.906.425.868 1.85.929-1.82-.891-.455Zm-2.83-.192h-1l1.882.473-.881-.473Zm0-.768h1v-1h-1v1Zm-.99 0v-1h-1v1h1Zm0 6.143h-1v1h1v-1Zm.99 0v1h1v-1h-1Zm2.076 0h-1v1h1v-1Zm.99 0v1h1v-1h-1Zm2.074 0h-1v1h1v-1Zm15.748-6.143h1v-1h-1v1Zm-1.603 0h-1v1h1v-1Zm0-1.855h1v-1h-1v1Zm-.99 0v-1h-1v1h1Zm0 1.855v1h1v-1h-1Zm-.896 0v-1h-1v1h1Zm0 1.216h-1v1h1v-1Zm.896 0h1v-1h-1v1Zm2.782 4.607.612.79.514-.398-.155-.63-.971.238Zm-.283-1.152.971-.239-.4-1.626-1.242 1.123.671.742Zm-1.509-3.455v-1h-1v1h1Zm1.603 0v1h1v-1h-1Zm7.214-.448h-1l1.909.419-.909-.419Zm0-.768h1v-1h-1v1Zm-.99 0v-1h-1v1h1Zm0 6.143h-1v1h1v-1Zm.99 0v1h1v-1h-1Zm1.556-4.927-.32.947 1.056.358.24-1.089-.976-.216Zm.283-1.28.977.216.193-.874-.848-.288-.322.947Zm-13.343.577.931.363.245-.626-.488-.463-.688.726Zm-2.17 3.135-.19.982.028.005.028.004.135-.991Zm.472.064.24-.971-.052-.013-.053-.007-.135.99Zm-1.744.768.695-.719-1.013-.981-.59 1.281.908.419Zm-.472 1.023-.908-.418-.294.637.5.493.702-.712Zm2.452-3.07.2-.98-.033-.007-.032-.005-.135.991Zm-.471-.065-.15.989h.007l.008.002.134-.991Zm1.508-.768-.561.828 1.037.704.456-1.168-.932-.364Zm25.556-.831h-1l1.908.418-.908-.419Zm0-.768h1v-1h-1v1Zm-.99 0v-1h-1v1h1Zm0 6.142h-1v1h1v-1Zm.99 0v1h1v-1h-1Zm1.556-4.927-.32.948 1.055.357.241-1.089-.976-.216Zm.282-1.28.977.217.193-.875-.847-.288-.322.947Zm-9.288 5.631.735.678.441-.479-.259-.596-.917.397Zm-.472-1.087.918-.398-.59-1.362-1.04 1.059.712.7Zm-1.178-3.392v-1h-.04l-.04.004.08.996Zm1.178.576-.713.701 1.04 1.06.59-1.363-.917-.398Zm.472-1.087.917.397.259-.596-.44-.479-.736.678Zm5.14-.576h1v-1h-1v1Zm-.99 0v-1h-1v1h1Zm0 .767-.868.498 1.867 3.256v-3.754h-1Zm0 4.607h1l-1.898-.44.897.44Zm0 .768h-1v1h1v-1Zm.99 0v1h1v-1h-1Zm-2.264-1.088-.075.997.037.003h.038v-1Zm-11.316.384.743.67.453-.503-.298-.608-.898.441Zm-.471-.96.897-.44-.622-1.266-.989 1.006.713.7Zm-2.688-.831v-1H25.32l.147 1.129.992-.13Zm3.348 0v1h1v-1h-1Zm0-.512-1-.024v.024h1Zm-.944-.64v1h1.103l-.107-1.097-.996.097Zm-2.357 0-.994-.112-.126 1.112h1.12v-1Zm25.791-4.927h1v-1h-1v1Zm-.99 0v-1h-1v1h1Zm0 3.2-.868.497 1.868 3.256v-3.754h-1Zm0 4.606h1l-1.898-.44.898.44Zm0 .768h-1v1h1v-1Zm.99 0v1h1v-1h-1Zm-2.263-1.088-.075.997.037.003h.038v-1ZM15.567 51.57h1v-1h-1v1Zm-.99 0v-1h-1v1h1Zm0 .767-.867.498 1.867 3.256v-3.754h-1Zm0 4.607h1l-1.898-.44.898.44Zm0 .768h-1v1h1v-1Zm.99 0v1h1v-1h-1Zm-2.31-1.088-.076.997.038.003h.038v-1Zm-2.253 1.088v-3.84h-2v3.84h2Zm0-3.84c0-.868-.193-1.705-.661-2.353a2.561 2.561 0 0 0-2.131-1.078v2c.245 0 .391.086.51.25.144.2.282.579.282 1.182h2Zm-2.792-3.43c-.436 0-.916.1-1.373.376-.458.278-.837.7-1.121 1.257l1.782.909c.14-.275.28-.397.376-.455a.628.628 0 0 1 .336-.088v-2Zm-.698 1.663c-.21-.449-.501-.874-.922-1.186a2.452 2.452 0 0 0-1.492-.477v2c.159 0 .24.038.3.082.074.056.184.174.303.43l1.811-.85ZM5.1 50.442c-.377 0-.802.078-1.214.329-.41.248-.734.621-.987 1.094l1.762.945c.124-.232.224-.306.263-.33a.316.316 0 0 1 .176-.038v-2Zm-.32 1.895v-.768h-2v.768h2Zm-1-1.768h-.99v2h.99v-2Zm-1.99 1v6.143h2v-6.143h-2Zm1 7.143h.99v-2h-.99v2Zm1.99-1V54.32h-2v3.392h2Zm0-3.392c0-.436.089-.599.108-.626.004-.005-.006.01-.031.022-.023.011-.027.005.008.005v-2c-.624 0-1.211.26-1.604.81-.358.501-.481 1.139-.481 1.79h2Zm.085-.599c.015 0-.014.002-.06-.023-.045-.026-.06-.053-.053-.042a.62.62 0 0 1 .062.187c.024.116.04.273.04.477h2c0-.59-.09-1.204-.392-1.702a1.817 1.817 0 0 0-1.597-.897v2Zm-.01.6v3.39h2v-3.39h-2Zm1 4.39h.99v-2h-.99v2Zm1.99-1v-3.39h-2v3.39h2Zm0-3.39c0-.416.092-.58.117-.615.01-.013.006-.003-.015.007-.02.01-.03.008-.018.008v-2c-.616 0-1.19.273-1.577.799-.364.494-.507 1.129-.507 1.8h2Zm.084-.6c.016 0-.014.002-.059-.023-.045-.026-.06-.053-.053-.042.01.015.037.07.061.187.024.115.041.273.041.477h2c0-.59-.09-1.203-.392-1.702a1.817 1.817 0 0 0-1.598-.897v2Zm-.01.6v3.39h2v-3.39h-2Zm1 4.39h1.085v-2H8.919v2Zm15.748-8.142h-1.603v2h1.603v-2Zm-.603 1v-1.855h-2v1.855h2Zm-1-2.855h-.99v2h.99v-2Zm-1.99 1v1.855h2v-1.855h-2Zm1 .855h-.896v2h.896v-2Zm-1.896 1v1.216h2V51.57h-2Zm1 2.216h.896v-2h-.896v2Zm-.104-1V55.6h2v-2.815h-2Zm0 2.815c0 .768.109 1.563.513 2.19.459.71 1.19 1.05 2.043 1.05v-2a.61.61 0 0 1-.271-.046.222.222 0 0 1-.091-.088c-.09-.14-.194-.466-.194-1.106h-2Zm2.556 3.24c.688 0 1.369-.294 1.838-.658l-1.224-1.58c-.191.147-.453.238-.614.238v2Zm2.197-1.687-.283-1.152-1.942.478.283 1.152 1.942-.478ZM23.902 55.5a.259.259 0 0 1-.178.061v2c.404 0 1.001-.11 1.52-.578L23.902 55.5Zm-.178.061a.46.46 0 0 1 .35.212c.022.037.017.046.008 0a1.25 1.25 0 0 1-.018-.236h-2c0 .384.05.86.297 1.268.297.494.797.756 1.363.756v-2Zm.34-.024v-2.751h-2v2.751h2Zm-1-1.751h1.603v-2h-1.603v2Zm2.603-1V51.57h-2v1.215h2Zm7.393-2.344c-1.126 0-1.774.798-2.087 1.478l1.817.837a.815.815 0 0 1 .192-.287.125.125 0 0 1 .036-.022.116.116 0 0 1 .042-.006v-2Zm-.179 1.896v-.768h-2v.768h2Zm-1-1.768h-.99v2h.99v-2Zm-1.99 1v6.143h2V51.57h-2Zm1 7.143h.99v-2h-.99v2Zm1.99-1v-3.455h-2v3.455h2Zm0-3.455c0-.205.017-.364.041-.482a.683.683 0 0 1 .064-.197c.009-.015-.005.014-.055.044a.235.235 0 0 1-.107.035v-2c-.688 0-1.24.357-1.564.911-.288.491-.379 1.096-.379 1.689h2Zm-.057-.6c-.008 0 .018 0 .086.016.062.014.134.035.207.06l.64-1.895c-.201-.069-.57-.18-.933-.18v2Zm1.59-.656.282-1.28-1.952-.431-.283 1.28 1.953.431Zm-.372-2.442c-.38-.13-.851-.117-.982-.117v2c.098 0 .183 0 .262.005a.926.926 0 0 1 .083.009c.02.003.015.004-.007-.004l.644-1.893Zm-12.977.797c-.714-.678-1.654-.914-2.527-.914v2c.541 0 .92.147 1.15.365l1.377-1.45Zm-2.527-.914c-.8 0-1.545.276-2.089.843-.54.564-.797 1.324-.797 2.14h2c0-.4.12-.63.24-.755.116-.12.313-.228.646-.228v-2Zm-2.886 2.983c0 .703.199 1.359.662 1.875.453.506 1.066.775 1.703.899l.381-1.964c-.353-.068-.517-.183-.595-.27-.067-.075-.151-.22-.151-.54h-2Zm2.421 2.783.472.064.27-1.982-.472-.064-.27 1.982Zm.367.044c.096.023.161.045.203.062.042.018.043.024.023.008a.547.547 0 0 1-.185-.401h2c0-.516-.253-.922-.598-1.186-.298-.229-.657-.35-.965-.425l-.478 1.942Zm.04-.331c0-.031.008-.08.034-.133a.314.314 0 0 1 .086-.108c.047-.036.024.008-.157.008v2c.48 0 .976-.115 1.376-.423.424-.326.662-.811.662-1.344h-2Zm-.037-.233c-.323 0-.606-.157-.813-.358l-1.391 1.437c.453.439 1.208.921 2.204.921v-2Zm-2.417-.058-.471 1.024 1.817.836.47-1.023-1.816-.837Zm-.265 2.154c.725.716 1.694 1.056 2.635 1.056v-2c-.473 0-.918-.172-1.23-.48l-1.405 1.424Zm2.635 1.056c.875 0 1.664-.28 2.238-.85.572-.57.837-1.337.837-2.134h-2c0 .355-.112.58-.247.715-.134.133-.382.269-.828.269v2Zm3.075-2.984c0-.74-.214-1.408-.678-1.929-.455-.51-1.063-.78-1.679-.906l-.398 1.96c.327.067.497.18.584.278.078.087.171.25.171.597h2ZM19.05 53.01l-.472-.064-.27 1.982.472.064.27-1.982Zm-.457-.062a1.254 1.254 0 0 1-.161-.032c-.032-.01-.017-.01.02.014a.53.53 0 0 1 .167.185c.057.101.07.194.07.246h-2c0 .552.272.986.674 1.247.325.21.694.282.931.318l.299-1.978Zm.096.413a.287.287 0 0 1-.028.11.401.401 0 0 1-.11.146c-.084.068-.121.04-.013.04v-2c-.411 0-.872.1-1.25.409a1.64 1.64 0 0 0-.599 1.295h2Zm-.151.297c.104 0 .25.031.426.105.17.072.324.164.427.234l1.123-1.655c-.316-.214-1.094-.684-1.976-.684v2Zm2.346-.125.424-1.088-1.863-.727-.424 1.088 1.863.727Zm25.803-3.091c-1.127 0-1.774.797-2.088 1.477l1.817.837a.815.815 0 0 1 .192-.286.129.129 0 0 1 .036-.023.118.118 0 0 1 .043-.005v-2Zm-.18 1.895v-.767h-2v.767h2Zm-1-1.767h-.99v2h.99v-2Zm-1.99 1v6.142h2V51.57h-2Zm1 7.142h.99v-2h-.99v2Zm1.99-1v-3.455h-2v3.455h2Zm0-3.455c0-.204.017-.363.041-.481a.688.688 0 0 1 .064-.198c.01-.015-.004.014-.054.044a.236.236 0 0 1-.108.035v-2c-.688 0-1.24.357-1.564.911-.287.492-.378 1.096-.378 1.689h2Zm-.056-.6c-.009 0 .017 0 .085.016.063.014.134.035.207.06l.641-1.895c-.202-.068-.57-.18-.934-.18v2Zm1.59-.656.282-1.28-1.953-.43-.283 1.279 1.953.43Zm-.372-2.442c-.38-.129-.851-.117-.982-.117v2a4 4 0 0 1 .262.005.98.98 0 0 1 .082.01c.02.002.015.003-.006-.004l.644-1.894ZM33.05 54.641c0 1.085.275 2.109.85 2.888.59.803 1.481 1.31 2.555 1.31v-2c-.388 0-.7-.163-.946-.496-.262-.356-.459-.932-.459-1.702h-2Zm3.405 4.199c.429 0 .854-.063 1.268-.242.416-.18.762-.45 1.07-.784l-1.47-1.355a1.186 1.186 0 0 1-.392.303 1.168 1.168 0 0 1-.476.078v2Zm2.52-2.101-.471-1.088-1.835.795.471 1.088 1.835-.795Zm-2.102-1.391c-.255.26-.391.276-.465.276v2c.774 0 1.393-.367 1.892-.875l-1.427-1.401Zm-.465.276c-.042 0-.092-.005-.166-.11-.092-.13-.202-.408-.202-.873h-2c0 .75.173 1.465.565 2.022.409.582 1.043.961 1.803.961v-2Zm-.368-.983c0-.42.104-.686.202-.825.087-.124.169-.156.245-.162l-.159-1.993c-1.544.123-2.288 1.565-2.288 2.98h2Zm.368-.983c.074 0 .21.016.465.276l1.427-1.401c-.499-.508-1.118-.876-1.892-.876v2Zm2.096-.027.471-1.088-1.835-.795-.471 1.088 1.835.795Zm.29-2.163a3.147 3.147 0 0 0-1.07-.784 3.147 3.147 0 0 0-1.27-.242v2c.232 0 .373.033.477.078.103.044.228.126.391.303l1.472-1.355Zm-2.34-1.026c-1.073 0-1.963.508-2.555 1.31-.574.78-.849 1.803-.849 2.889h2c0-.77.197-1.346.46-1.702.245-.333.557-.497.945-.497v-2Zm7.743 4.199V51.57h-2v3.07h2Zm-1-4.071h-.99v2h.99v-2Zm-1.99 1v.767h2v-.767h-2Zm1.868.27c-.47-.82-1.24-1.398-2.282-1.398v2c.184 0 .357.062.547.393l1.735-.995Zm-2.282-1.398c-1.022 0-1.867.546-2.422 1.321-.55.768-.842 1.781-.842 2.878h2c0-.759.204-1.345.468-1.713.258-.361.544-.486.796-.486v-2Zm-3.264 4.199c0 1.097.292 2.11.842 2.877.555.775 1.4 1.322 2.422 1.322v-2c-.252 0-.538-.125-.796-.486-.264-.368-.468-.954-.468-1.713h-2Zm3.264 4.199c.497 0 .973-.123 1.39-.391.414-.267.715-.643.922-1.064l-1.795-.882a.625.625 0 0 1-.21.264.544.544 0 0 1-.307.073v2Zm.414-1.896v.768h2v-.768h-2Zm1 1.768h.99v-2h-.99v2Zm1.99-1V54.64h-2v3.07h2Zm-3.63-3.071c0-.4.097-.692.202-.852.09-.138.144-.132.165-.132v-2c-.828 0-1.457.455-1.838 1.036-.368.56-.53 1.26-.53 1.948h2Zm.367-.983c.013 0 .07-.007.16.125.102.149.207.434.207.858h2c0-.728-.177-1.434-.558-1.99-.393-.571-1.02-.994-1.809-.994v2Zm.367.983c0 .382-.1.675-.213.842a.434.434 0 0 1-.122.13c-.018.011-.025.011-.032.011v2c.816 0 1.438-.465 1.815-1.026.371-.553.552-1.252.552-1.957h-2Zm-.292.986c-.08-.006-.159-.037-.246-.167-.1-.15-.196-.423-.196-.82h-2c0 1.302.661 2.858 2.292 2.981l.15-1.994Zm-13.277-5.185c-1.02 0-1.874.508-2.44 1.297-.551.77-.823 1.79-.823 2.902h2c0-.807.2-1.388.45-1.737.236-.33.513-.462.813-.462v-2ZM24.47 54.64c0 1.112.272 2.134.833 2.907.578.795 1.445 1.292 2.477 1.292v-2c-.335 0-.623-.143-.859-.468-.252-.346-.451-.923-.451-1.731h-2Zm3.31 4.199c.931 0 1.866-.367 2.582-1.162l-1.486-1.34a1.437 1.437 0 0 1-1.096.502v2Zm2.737-2.273-.472-.96-1.795.883.472.96 1.795-.883Zm-2.083-1.22c-.262.267-.492.341-.607.341v2c.829 0 1.541-.437 2.034-.939l-1.427-1.401Zm-.607.341c-.094 0-.142-.026-.176-.057-.037-.035-.15-.166-.2-.544l-1.983.258c.093.711.357 1.316.815 1.745a2.232 2.232 0 0 0 1.544.598v-2Zm-1.367.529h3.348v-2H26.46v2Zm4.348-1v-.512h-2v.512h2Zm0-.488c.026-1.124-.196-2.155-.701-2.94-.524-.815-1.353-1.347-2.374-1.347v2c.252 0 .485.107.692.429.225.35.404.95.383 1.81l2 .048Zm-3.075-1.136c.01 0-.001.002-.021-.008s-.02-.017-.006.002c.037.046.127.208.163.576l1.99-.195c-.057-.592-.227-1.167-.579-1.616a1.932 1.932 0 0 0-1.547-.759v2Zm1.131-.528h-2.357v2h2.357v-2ZM27.5 54.178c.033-.292.117-.467.177-.545.027-.034.041-.04.039-.039-.006.003-.005 0 .016 0v-2c-.697 0-1.258.33-1.63.808-.353.45-.529 1.011-.59 1.55l1.988.226Zm25.797.463v-5.503h-2v5.503h2Zm-1-6.503h-.99v2h.99v-2Zm-1.99 1v3.2h2v-3.2h-2Zm1.867 2.702c-.47-.82-1.24-1.398-2.282-1.398v2c.185 0 .358.062.547.393l1.735-.995Zm-2.282-1.398c-1.021 0-1.867.546-2.422 1.321-.55.768-.84 1.781-.84 2.878h2c0-.759.203-1.345.466-1.713.259-.361.545-.486.796-.486v-2ZM46.63 54.64c0 1.097.292 2.11.841 2.877.555.775 1.401 1.322 2.422 1.322v-2c-.251 0-.537-.125-.796-.486-.263-.368-.467-.954-.467-1.713h-2Zm3.263 4.199c.498 0 .974-.123 1.39-.391a2.61 2.61 0 0 0 .923-1.064l-1.796-.882a.625.625 0 0 1-.21.264.545.545 0 0 1-.307.073v2Zm.415-1.896v.768h2v-.768h-2Zm1 1.768h.99v-2h-.99v2Zm1.99-1V54.64h-2v3.07h2Zm-3.63-3.071c0-.4.097-.693.201-.852.091-.138.145-.132.166-.132v-2c-.828 0-1.458.455-1.839 1.036-.367.56-.528 1.26-.528 1.948h2Zm.367-.983c.013 0 .069-.007.16.125.102.149.207.434.207.858h2c0-.728-.177-1.434-.559-1.99-.392-.571-1.02-.994-1.808-.994v2Zm.367.983c0 .383-.101.675-.213.842a.43.43 0 0 1-.123.13c-.018.011-.024.011-.031.011v2c.816 0 1.438-.465 1.814-1.026.372-.553.553-1.252.553-1.957h-2Zm-.292.986c-.08-.006-.16-.037-.246-.167-.1-.15-.196-.423-.196-.82h-2c0 1.302.661 2.858 2.292 2.981l.15-1.994Zm-33.542-.986v-3.07h-2v3.07h2Zm-1-4.071h-.99v2h.99v-2Zm-1.99 1v.767h2v-.767h-2Zm1.867.27c-.47-.82-1.24-1.398-2.282-1.398v2c.185 0 .358.062.547.393l1.736-.995Zm-2.282-1.398c-1.02 0-1.867.546-2.421 1.321-.55.768-.842 1.781-.842 2.878h2c0-.759.204-1.345.468-1.713.258-.361.544-.486.795-.486v-2ZM9.9 54.64c0 1.097.292 2.11.842 2.877.554.775 1.4 1.322 2.421 1.322v-2c-.251 0-.537-.125-.796-.486-.263-.368-.467-.954-.467-1.713h-2Zm3.263 4.199c.498 0 .974-.123 1.39-.391a2.61 2.61 0 0 0 .923-1.064l-1.796-.882a.624.624 0 0 1-.21.264.544.544 0 0 1-.307.073v2Zm.415-1.896v.768h2v-.768h-2Zm1 1.768h.99v-2h-.99v2Zm1.99-1V54.64h-2v3.07h2ZM12.89 54.64c0-.4.098-.692.202-.852.09-.138.145-.132.166-.132v-2c-.828 0-1.458.455-1.839 1.036-.367.56-.529 1.26-.529 1.948h2Zm.368-.983c.013 0 .069-.007.16.125.102.149.207.434.207.858h2c0-.728-.177-1.434-.559-1.99-.392-.571-1.02-.994-1.808-.994v2Zm.367.983c0 .382-.101.675-.213.842a.434.434 0 0 1-.123.13c-.018.011-.025.011-.031.011v2c.816 0 1.438-.465 1.814-1.026.372-.553.553-1.252.553-1.957h-2Zm-.292.986c-.08-.006-.16-.037-.246-.167-.1-.15-.197-.423-.197-.82h-2c0 1.302.662 2.858 2.292 2.981l.151-1.994Z" mask="url(#b)"/>
    <path stroke="#000" stroke-width=".126" d="M20.11 4.99h14.726v36.088H20.109V4.989Z"/>
    <path fill="#EB001B" d="M20.99 23.034c0-7.358 2.546-13.885 6.46-18.107C24.572 1.855 20.942 0 16.981 0 7.6 0 .008 10.301.008 23.034c0 12.732 7.59 23.033 16.974 23.033 3.96 0 7.591-1.855 10.467-4.927-3.913-4.158-6.46-10.749-6.46-18.106Z"/>
    <path fill="#F79E1B" d="M54.938 23.034c0 12.732-7.592 23.033-16.974 23.033-3.961 0-7.591-1.855-10.468-4.927 3.96-4.222 6.46-10.749 6.46-18.106 0-7.358-2.546-13.885-6.46-18.107C30.372 1.855 34.003 0 37.964 0c9.383 0 16.974 10.365 16.974 23.034Z"/>
  </g>
  <defs>
    <clipPath id="a">
      <path fill="#fff" d="M0 0h55v58H0z"/>
    </clipPath>
  </defs>
</svg>
