<svg xmlns="http://www.w3.org/2000/svg" width="17" height="20" fill="none" viewBox="0 0 17 20">
  <g clip-path="url(#a)">
    <path fill="#000" d="M11.258 3.211c-.711.841-1.85 1.505-2.987 1.41-.142-1.137.415-2.346 1.067-3.092C10.048.664 11.293.047 12.3 0c.119 1.185-.344 2.346-1.043 3.211Zm1.03 1.636c-1.647-.095-3.057.936-3.839.936-.794 0-1.99-.889-3.294-.865-1.694.023-3.27.983-4.136 2.512-1.777 3.057-.462 7.584 1.256 10.072.842 1.232 1.85 2.583 3.176 2.536 1.256-.048 1.754-.818 3.27-.818 1.53 0 1.968.818 3.295.794 1.374-.024 2.24-1.232 3.08-2.465.96-1.398 1.352-2.76 1.375-2.832-.023-.023-2.654-1.03-2.678-4.064-.023-2.536 2.074-3.745 2.169-3.816-1.185-1.753-3.034-1.943-3.673-1.99Z"/>
  </g>
  <defs>
    <clipPath id="a">
      <path fill="#fff" d="M.17 0h16v20h-16z"/>
    </clipPath>
  </defs>
</svg>
