<svg xmlns="http://www.w3.org/2000/svg" width="25" height="25" fill="none" viewBox="0 0 25 25">
  <path fill="#000" d="M22.917 19.38a.782.782 0 0 1-.782.782h-5.312a3.052 3.052 0 0 1-5.896 0H2.865a.781.781 0 1 1 0-1.563h8.062a3.052 3.052 0 0 1 5.896 0h5.312a.781.781 0 0 1 .782.781Zm0-13.76a.781.781 0 0 1-.782.781h-2.552a3.052 3.052 0 0 1-5.895 0H2.864a.781.781 0 0 1 0-1.562h10.822a3.052 3.052 0 0 1 5.896 0h2.552a.77.77 0 0 1 .782.78Zm0 6.875a.77.77 0 0 1-.782.781H9.948a3.052 3.052 0 0 1-5.896 0H2.865a.78.78 0 1 1 0-1.562h1.187a3.052 3.052 0 0 1 5.896 0h12.187a.781.781 0 0 1 .782.78Z"/>
</svg>
