<svg xmlns="http://www.w3.org/2000/svg" width="25" height="25" fill="none" viewBox="0 0 25 25">
  <path fill="#000" d="M19.792 7.292V5.208h-2.084V3.125h2.084V1.042h2.083v2.083h2.083v2.083h-2.083v2.084h-2.083Zm-8.334 10.937c1.302 0 2.41-.455 3.321-1.366.912-.912 1.367-2.018 1.367-3.321 0-1.303-.456-2.41-1.367-3.32-.91-.91-2.017-1.366-3.32-1.368-1.304-.001-2.41.455-3.32 1.368-.91.913-1.366 2.02-1.368 3.32-.002 1.3.454 2.407 1.368 3.32.913.915 2.02 1.37 3.32 1.367Zm0-2.083c-.729 0-1.345-.252-1.849-.755-.503-.504-.755-1.12-.755-1.85 0-.728.252-1.345.755-1.848.504-.504 1.12-.755 1.85-.755.729 0 1.345.251 1.848.755.504.503.755 1.12.755 1.849 0 .729-.251 1.345-.755 1.849-.503.503-1.12.755-1.849.755Zm-8.333 5.73a2.005 2.005 0 0 1-1.47-.612 2.01 2.01 0 0 1-.613-1.472v-12.5c0-.573.204-1.063.612-1.471a2.011 2.011 0 0 1 1.471-.613h3.281l1.927-2.083h7.292v4.167h2.083v2.083h4.167v10.417c0 .573-.204 1.063-.611 1.472a2.001 2.001 0 0 1-1.472.611H3.125Z"/>
</svg>
