<svg xmlns="http://www.w3.org/2000/svg" width="180" height="180" fill="none" viewBox="0 0 180 180">
  <path fill="#61D85A" d="M77.625 127.5 120 85.125 109.125 74.25l-31.688 31.688-15.75-15.75L51 100.874 77.625 127.5ZM48.75 150c-11.375 0-21.093-3.938-29.152-11.813-8.06-7.875-12.093-17.499-12.098-28.875 0-9.75 2.938-18.437 8.813-26.062s13.562-12.5 23.062-14.625c3.125-11.5 9.375-20.813 18.75-27.938C67.5 33.563 78.125 30 90 30c14.625 0 27.032 5.095 37.222 15.285 10.19 10.19 15.283 22.595 15.278 37.215 8.625 1 15.783 4.72 21.473 11.16 5.689 6.44 8.532 13.97 8.527 22.59 0 9.375-3.28 17.345-9.84 23.91-6.56 6.565-14.53 9.845-23.91 9.84h-90Zm0-15h90c5.25 0 9.687-1.812 13.312-5.438 3.625-3.624 5.438-8.062 5.438-13.312s-1.813-9.688-5.438-13.312C148.437 99.312 144 97.5 138.75 97.5H127.5v-15c0-10.375-3.658-19.22-10.973-26.535C109.212 48.65 100.37 44.995 90 45c-10.37.005-19.213 3.663-26.528 10.972C56.157 63.282 52.5 72.125 52.5 82.5h-3.75c-7.25 0-13.438 2.563-18.563 7.688C25.063 95.311 22.5 101.5 22.5 108.75c0 7.25 2.563 13.438 7.688 18.562C35.313 132.438 41.5 135 48.75 135Z"/>
</svg>
