<svg width="218" height="219" viewBox="0 0 218 219" fill="none" xmlns="http://www.w3.org/2000/svg">
<path d="M115.625 127.5L158 85.125L147.125 74.25L115.437 105.938L99.6875 90.1875L89 100.875L115.625 127.5ZM86.75 150C75.375 150 65.6575 146.062 57.5975 138.187C49.5375 130.312 45.505 120.688 45.5 109.312C45.5 99.5625 48.4375 90.875 54.3125 83.25C60.1875 75.625 67.875 70.75 77.375 68.625C80.5 57.125 86.75 47.8125 96.125 40.6875C105.5 33.5625 116.125 30 128 30C142.625 30 155.032 35.095 165.222 45.285C175.412 55.475 180.505 67.88 180.5 82.5C189.125 83.5 196.283 87.22 201.973 93.66C207.662 100.1 210.505 107.63 210.5 116.25C210.5 125.625 207.22 133.595 200.66 140.16C194.1 146.725 186.13 150.005 176.75 150H86.75ZM86.75 135H176.75C182 135 186.437 133.188 190.062 129.562C193.687 125.938 195.5 121.5 195.5 116.25C195.5 111 193.687 106.562 190.062 102.938C186.437 99.3125 182 97.5 176.75 97.5H165.5V82.5C165.5 72.125 161.842 63.28 154.527 55.965C147.212 48.65 138.37 44.995 128 45C117.63 45.005 108.787 48.6625 101.472 55.9725C94.1575 63.2825 90.5 72.125 90.5 82.5H86.75C79.5 82.5 73.3125 85.0625 68.1875 90.1875C63.0625 95.3125 60.5 101.5 60.5 108.75C60.5 116 63.0625 122.188 68.1875 127.312C73.3125 132.438 79.5 135 86.75 135Z" fill="#61D85A"/>
<path d="M12.5 194L15.3064 202.637H24.3882L17.0409 207.975L19.8473 216.613L12.5 211.275L5.15268 216.613L7.95911 207.975L0.611794 202.637H9.69357L12.5 194Z" fill="#FFC107"/>
<path d="M39.6071 194L42.2131 202.637H50.6462L43.8237 207.975L46.4296 216.613L39.6071 211.275L32.7846 216.613L35.3906 207.975L28.5681 202.637H37.0012L39.6071 194Z" fill="#FFC107"/>
<path d="M66.7143 194L69.5207 202.637H78.6025L71.2552 207.975L74.0616 216.613L66.7143 211.275L59.367 216.613L62.1734 207.975L54.8261 202.637H63.9079L66.7143 194Z" fill="#FFC107"/>
<path d="M94.7143 195.618L97.0452 202.792L97.1574 203.137H97.5207H105.064L98.9613 207.571L98.6674 207.784L98.7797 208.13L101.111 215.304L95.0082 210.87L94.7143 210.657L94.4204 210.87L88.318 215.304L90.6489 208.13L90.7612 207.784L90.4673 207.571L84.3649 203.137H91.9079H92.2711L92.3834 202.792L94.7143 195.618Z" stroke="#737070"/>
<path d="M122.714 195.618L125.045 202.792L125.157 203.137H125.521H133.064L126.961 207.571L126.667 207.784L126.78 208.13L129.111 215.304L123.008 210.87L122.714 210.657L122.42 210.87L116.318 215.304L118.649 208.13L118.761 207.784L118.467 207.571L112.365 203.137H119.908H120.271L120.383 202.792L122.714 195.618Z" stroke="#737070"/>
</svg>
