<svg xmlns="http://www.w3.org/2000/svg" width="35" height="35" fill="none" viewBox="0 0 35 35">
  <path stroke="#000" stroke-width="2" d="m11.455 28.318-.293-.127-.313.066-6.35 1.351-.022.004H4.43l-.032.007h-.003l-.03.004-.025-.002h-.018l-.023-.005-.023-.003-.016-.006-.053-.017-.018-.008-.006-.002-.005-.003-.008-.003-.008-.005-.01-.006-.072-.049-.01-.01-.027-.024v-.001l-.025-.027-.022-.031-.03-.054-.009-.022-.013-.027-.001-.004-.01-.037-.004-.011-.002-.013-.003-.018-.005-.079v-.022l.01-.056v-.012l.002-.005v-.006l.014-.043.009-.03v-.005l1.663-4.986.145-.434-.234-.393-.03-.051-.001-.002C2.55 18.113 3.856 11.9 8.752 8.208l.322-.236c5.317-3.767 12.929-3.45 17.83.73 4.947 4.22 5.598 11.05 1.558 15.954-3.84 4.66-10.83 6.239-16.674 3.806l-.333-.144Z"/>
</svg>
