<svg xmlns="http://www.w3.org/2000/svg" width="25" height="25" fill="none" viewBox="0 0 25 25">
  <path fill="#61D85A" d="m13.118 24.227-.012.002-.074.037-.02.004-.015-.004-.074-.037c-.011-.003-.02-.002-.025.005l-.004.01-.018.447.005.02.01.014.109.077.016.004.012-.004.108-.077.013-.017.004-.017-.018-.445c-.002-.011-.008-.018-.017-.019Zm.276-.118-.014.002-.193.097-.01.01-.003.012.019.448.005.013.008.007.21.097c.013.003.023 0 .03-.009l.004-.014-.035-.64c-.004-.012-.01-.02-.021-.023Zm-.745.002a.02.02 0 0 0-.028.007l-.006.014-.036.64c0 .012.007.02.018.025l.016-.002.209-.097.01-.009.004-.01.018-.449-.003-.012-.01-.01-.192-.097Zm.879-18.131a2.083 2.083 0 1 0-2.052.001l-.01.019c-.683 1.424-1.63 3.464-3.094 4.23-1.202.627-2.927.312-4.208.076a1.563 1.563 0 1 0-1.846 1.646l3.07 7.927a3.125 3.125 0 0 0 2.914 1.996h8.396a3.125 3.125 0 0 0 2.913-1.996l3.07-7.927a1.563 1.563 0 1 0-1.84-1.692c-1.312.17-3.003.387-4.213-.245-1.434-.75-2.396-2.65-3.1-4.036Z"/>
</svg>
