<svg xmlns="http://www.w3.org/2000/svg" width="27" height="32" fill="none" viewBox="0 0 27 32">
  <g clip-path="url(#a)">
    <path fill="#FABC26" d="m25.742 18.347-12.97-2.395C8.905 15.24 6.48 12.104 7.354 8.95c.875-3.154 4.718-5.132 8.584-4.418 3.866.713 6.291 3.848 5.416 7.002-.438 1.579-1.62 2.862-3.177 3.661l-.005.003a.141.141 0 0 0-.076.12c0 .069.058.127.137.142l5.77 1.065a.404.404 0 0 0 .365-.11c1.59-1.715 2.544-3.856 2.544-6.171 0-5.454-5.222-9.91-11.81-10.226a31.463 31.463 0 0 0-.536-.016C11.65-.035 8.693.647 6.121 2.116c-6.494 3.71-8.072 11.01-3.525 16.308l11.539 13.444c.05.055.129.09.218.09.09 0 .17-.036.218-.09l11.332-13.184a.192.192 0 0 0 .046-.123c0-.105-.088-.192-.208-.214Z"/>
  </g>
  <defs>
    <clipPath id="a">
      <path fill="#fff" d="M0 0h27v32H0z"/>
    </clipPath>
  </defs>
</svg>
