<svg xmlns="http://www.w3.org/2000/svg" width="32" height="32" fill="none" viewBox="0 0 32 32">
  <g clip-path="url(#a)">
    <path fill="#ED1C24" fill-rule="evenodd" d="M25.82 9.474c.097-.03.225.03.353.2l5.795 5.686c.339.34.339.853 0 1.105l-5.795 5.773c-.128.17-.256.21-.354.16-.097-.052-.159-.201-.159-.417V9.844c0-.21.062-.34.16-.37ZM15.906 0h.41l.395.164 5.965 5.943c.256.34.169.596-.257.596h-2.472a.76.76 0 0 0-.764.766v4.41c0 .428-.344.767-.857.767h-4.344a.765.765 0 0 1-.769-.766V7.47a.762.762 0 0 0-.77-.767h-2.64c-.426 0-.513-.257-.257-.596l5.97-5.943.39-.164ZM6.562 9.346c.108.051.174.2.174.416v12.389c0 .216-.066.344-.174.385-.102.041-.251 0-.426-.128L.254 16.465c-.339-.252-.339-.766 0-1.105l5.882-5.855c.175-.17.324-.21.426-.16Zm7.423 9.751h4.344c.513 0 .856.34.856.766v4.668c0 .509.339.848.764.848h2.303c.426 0 .595.252.257.509l-5.796 5.855a.857.857 0 0 1-.6.257.846.846 0 0 1-.595-.257l-5.795-5.855c-.344-.257-.175-.51.251-.51h2.472c.431 0 .77-.338.77-.847v-4.668c0-.427.343-.766.769-.766Z" clip-rule="evenodd"/>
  </g>
  <defs>
    <clipPath id="a">
      <path fill="#fff" d="M0 0h32v32H0z"/>
    </clipPath>
  </defs>
</svg>
