<svg width="17" height="17" viewBox="0 0 17 17" fill="none" xmlns="http://www.w3.org/2000/svg">
<g opacity="0.85">
<path d="M1 1L16 16" stroke="black" stroke-linecap="round" stroke-linejoin="round"/>
<path d="M4.53458 4.55906C2.24859 6.10684 1 8.49998 1 8.49998C1 8.49998 3.72727 13.7273 8.5 13.7273C10.0377 13.7273 11.363 13.1847 12.4533 12.4491M7.75 3.31618C7.99405 3.28774 8.2441 3.27271 8.5 3.27271C13.2727 3.27271 16 8.49998 16 8.49998C16 8.49998 15.4812 9.49443 14.5 10.6159" stroke="black" stroke-linecap="round" stroke-linejoin="round"/>
<path d="M10.0909 10.3888C9.65662 10.7689 9.08324 11.0001 8.45455 11.0001C7.0989 11.0001 6 9.92525 6 8.59928C6 7.9401 6.27158 7.34302 6.71126 6.90918" stroke="black" stroke-linecap="round" stroke-linejoin="round"/>
</g>
</svg>
