<svg width="25" height="25" viewBox="0 0 25 25" fill="none" xmlns="http://www.w3.org/2000/svg">
<path d="M11.4902 4.91607C11.5629 4.98863 11.6205 5.07479 11.6598 5.16963C11.6991 5.26447 11.7194 5.36613 11.7194 5.4688C11.7194 5.57147 11.6991 5.67313 11.6598 5.76798C11.6205 5.86282 11.5629 5.94898 11.4902 6.02154L5.792 11.7188L21.0938 11.7188C21.301 11.7188 21.4997 11.8011 21.6462 11.9476C21.7927 12.0941 21.875 12.2929 21.875 12.5001C21.875 12.7073 21.7927 12.906 21.6462 13.0525C21.4997 13.199 21.301 13.2813 21.0938 13.2813L5.792 13.2813L11.4902 18.9786C11.6368 19.1252 11.7192 19.324 11.7192 19.5313C11.7192 19.7386 11.6368 19.9374 11.4902 20.084C11.3436 20.2306 11.1448 20.313 10.9375 20.313C10.7302 20.313 10.5314 20.2306 10.3848 20.084L3.35352 13.0528C3.28088 12.9802 3.22326 12.8941 3.18394 12.7992C3.14463 12.7044 3.12439 12.6027 3.12439 12.5001C3.12439 12.3974 3.14463 12.2957 3.18394 12.2009C3.22326 12.106 3.28088 12.0199 3.35352 11.9473L10.3848 4.91607C10.4573 4.84343 10.5435 4.78581 10.6383 4.74649C10.7332 4.70717 10.8348 4.68694 10.9375 4.68694C11.0402 4.68694 11.1418 4.70717 11.2367 4.74649C11.3315 4.78581 11.4177 4.84343 11.4902 4.91607Z" fill="black"/>
</svg>
