<svg xmlns="http://www.w3.org/2000/svg" width="58" height="58" fill="none" viewBox="0 0 58 58">
  <g clip-path="url(#a)">
    <path fill="#011034" d="M17.846 0a6.692 6.692 0 0 0-6.692 6.692v44.616A6.693 6.693 0 0 0 17.846 58h24.539a6.692 6.692 0 0 0 6.692-6.692V6.692A6.692 6.692 0 0 0 42.385 0H17.846Zm10.039 2.23h4.461a1.115 1.115 0 0 1 0 2.232h-4.461a1.115 1.115 0 0 1 0-2.231ZM16.73 6.693H43.5a1.115 1.115 0 0 1 1.115 1.116V45.73a1.115 1.115 0 0 1-1.115 1.115H16.73a1.116 1.116 0 0 1-1.115-1.115V7.808a1.115 1.115 0 0 1 1.116-1.116Zm16.592 11.154c-.921.06-1.952.63-2.58 1.394-.572.692-1.092 1.716-.906 2.72 1.006.026 2.047-.55 2.65-1.325.562-.723.992-1.745.836-2.789Zm-6.206 3.973c-1.316 0-2.737.861-3.625 2.23-1.253 1.924-1.048 5.486.977 8.576.728 1.102 1.731 2.358 2.998 2.371 1.123.011 1.4-.689 2.927-.698 1.528-.009 1.8.71 2.93.698 1.262-.013 2.342-1.338 3.064-2.44.438-.66.811-1.361 1.116-2.093-2.934-1.108-3.458-5.313-.558-6.902-.883-1.102-2.104-1.74-3.275-1.74-1.55 0-2.2.765-3.277.765-1.11 0-1.934-.767-3.277-.767Zm2.998 27.749a2.862 2.862 0 0 1 2.858 2.857 2.862 2.862 0 0 1-2.858 2.858 2.862 2.862 0 0 1-2.857-2.858 2.862 2.862 0 0 1 2.857-2.857Z"/>
  </g>
  <defs>
    <clipPath id="a">
      <path fill="#fff" d="M0 0h58v58H0z"/>
    </clipPath>
  </defs>
</svg>
