<svg xmlns="http://www.w3.org/2000/svg" width="58" height="58" fill="none" viewBox="0 0 58 58">
  <path fill="#011034" d="M47.173 6.018C41.518.363 31.175 1.498 24.094 8.579c-3.867 3.867-6.09 9.353-6.138 13.195-.049 3.819.628 9.401-3.263 13.292L4.447 45.312l3.431 3.432 10.247-10.246c3.89-3.891 9.473-3.215 13.292-3.263 3.818-.048 9.328-2.272 13.195-6.138 7.056-7.081 8.216-17.425 2.561-23.08ZM24.94 28.227c-3.698-3.698-2.538-11.141 2.562-16.24 5.099-5.1 12.518-6.26 16.24-2.562 3.697 3.697 2.537 11.14-2.562 16.24-5.1 5.1-12.518 6.26-16.24 2.562ZM43.5 41.083c1.28 0 2.513.508 3.407 1.426a4.843 4.843 0 0 1 0 6.84A4.829 4.829 0 0 1 43.5 50.75a4.751 4.751 0 0 1-3.407-1.426 4.843 4.843 0 0 1 0-6.839 4.829 4.829 0 0 1 3.407-1.402Zm0-4.833a9.662 9.662 0 0 0-6.84 16.506 9.663 9.663 0 0 0 6.84 2.827 9.662 9.662 0 0 0 6.84-16.505 9.664 9.664 0 0 0-6.84-2.828Z"/>
</svg>
