<svg xmlns="http://www.w3.org/2000/svg" width="58" height="58" fill="none" viewBox="0 0 58 58">
  <path fill="#011034" fill-rule="evenodd" d="M29 46.54c-9.685 0-17.54-7.854-17.54-17.54 0-9.685 7.855-17.54 17.54-17.54 9.686 0 17.54 7.855 17.54 17.54 0 9.685-7.854 17.54-17.54 17.54Zm26.183-22.556H50.84a22.26 22.26 0 0 0-2.079-5.547l3.352-3.352a2.825 2.825 0 0 0 0-3.984L47.951 6.94a2.825 2.825 0 0 0-3.984 0l-3.072 3.072a22.276 22.276 0 0 0-5.391-2.456V2.818A2.826 2.826 0 0 0 32.687 0H26.8a2.826 2.826 0 0 0-2.817 2.818V7.16a22.24 22.24 0 0 0-5.548 2.08l-3.351-3.352a2.825 2.825 0 0 0-3.984 0L6.94 10.05a2.825 2.825 0 0 0 0 3.984l3.072 3.073a22.315 22.315 0 0 0-2.455 5.39h-4.74A2.825 2.825 0 0 0 0 25.314V31.2a2.825 2.825 0 0 0 2.817 2.817H7.16a22.227 22.227 0 0 0 2.078 5.547l-3.352 3.352a2.825 2.825 0 0 0 0 3.983l4.163 4.162a2.825 2.825 0 0 0 3.983 0l3.074-3.073a22.297 22.297 0 0 0 5.389 2.456v4.739A2.826 2.826 0 0 0 25.313 58H31.2a2.825 2.825 0 0 0 2.816-2.817V50.84a22.234 22.234 0 0 0 5.548-2.08l3.352 3.352a2.826 2.826 0 0 0 3.983 0l4.162-4.162a2.825 2.825 0 0 0 0-3.984l-3.073-3.073a22.268 22.268 0 0 0 2.456-5.39h4.739A2.825 2.825 0 0 0 58 32.688v-5.886a2.825 2.825 0 0 0-2.817-2.817Z" clip-rule="evenodd"/>
  <path fill="#011034" fill-rule="evenodd" d="M38.295 31.64c-.003.405-.388.73-.834.727l-3.183-.025c-.253-.003-.448-.234-.445-.518l.006-.693c.002-.284.2-.545.453-.585l3.188-.498c.446-.07.827.2.823.605l-.008.987Zm-14.107.106c-.002.284-.201.513-.453.51l-3.184-.025c-.446-.004-.826-.335-.822-.74l.008-.988c.003-.406.388-.668.832-.59l3.18.548c.252.044.447.308.444.592l-.005.693Zm-2.329-9.063c.1-.336.235-.66.402-.964v.007l.347-.474a1.333 1.333 0 0 1 1-.43l11.527.093c.954.008 1.526.884 1.72 1.889l.709 3.307-16.648-.135.943-3.293Zm17.638 4.784-.37-.622c1.123-.339 1.747-1.172 1.64-1.784a1.098 1.098 0 0 0-.716-.808c-.502-.164-.919.155-.968.194l-.432.854-.707-3.187c-.293-1.314-1.005-2.468-2.256-2.478l-12.483-.091c-1.25-.01-1.898 1.155-2.293 2.443l-1.004 3.262-.464-.961c-.021-.019-.495-.448-1.046-.238-.373.143-.601.51-.651.819-.1.619.45 1.402 1.427 1.727-2.358 1.622-2.057 4.496-1.853 7.685a1.176 1.176 0 0 0-.002.119l-.014 1.773c0 .424.314.77.707.774l3.025.025c.393.002.713-.339.719-.763l.005-.618 14.345.115-.006.62c0 .423.314.768.707.773l3.034.024c.392.002.713-.338.72-.762l.01-1.375c.269-4.151.425-5.828-1.074-7.52Z" clip-rule="evenodd"/>
</svg>
