<svg width="35" height="35" viewBox="0 0 35 35" fill="none" xmlns="http://www.w3.org/2000/svg">
<path d="M22.3333 14.5833C22.3333 15.8652 21.8241 17.0946 20.9177 18.001C20.0113 18.9074 18.7819 19.4167 17.5 19.4167C16.2181 19.4167 14.9887 18.9074 14.0823 18.001C13.1759 17.0946 12.6667 15.8652 12.6667 14.5833C12.6667 13.3015 13.1759 12.0721 14.0823 11.1657C14.9887 10.2592 16.2181 9.75 17.5 9.75C18.7819 9.75 20.0113 10.2592 20.9177 11.1657C21.8241 12.0721 22.3333 13.3015 22.3333 14.5833Z" stroke="black" stroke-width="2"/>
<path d="M16.9642 31.0735L16.9546 31.0729L16.9451 31.0726C13.4178 30.931 10.2364 29.4438 7.90055 27.1103L9.08626 26.3733C9.02661 26.202 9.0063 26.0195 9.02685 25.8392C9.04741 25.659 9.10828 25.4857 9.20497 25.3322C9.30166 25.1788 9.43167 25.049 9.58535 24.9527L9.05416 24.1054L9.58536 24.9527C9.73888 24.8564 9.91211 24.7959 10.0922 24.7757C15.6963 24.1554 19.3269 24.2105 24.9228 24.7897C25.1012 24.8083 25.273 24.8674 25.4251 24.9624C25.5774 25.0576 25.706 25.1862 25.8011 25.3385C25.8962 25.4909 25.9552 25.6629 25.9738 25.8415C25.9924 26.0201 25.9699 26.2006 25.9082 26.3693L27.0906 27.1193C24.6337 29.569 21.2438 31.0834 17.5 31.0834H17.3002C17.1876 31.0834 17.0756 31.0801 16.9642 31.0735Z" stroke="black" stroke-width="2"/>
</svg>
