<svg xmlns="http://www.w3.org/2000/svg" width="58" height="58" fill="none" viewBox="0 0 58 58">
  <path fill="#011034" d="M11.155 48.333c-1.113 0-2.042-.372-2.786-1.116-.744-.744-1.117-1.674-1.119-2.789V20.822c0-1.113.373-2.042 1.119-2.786.746-.745 1.674-1.118 2.784-1.12H21.75V13.57c0-1.112.373-2.04 1.119-2.787.746-.746 1.675-1.118 2.786-1.116h6.692c1.112 0 2.04.372 2.786 1.116.746.745 1.119 1.673 1.117 2.787v3.347h10.597c1.112 0 2.04.373 2.784 1.119.744.746 1.117 1.674 1.119 2.786v23.609c0 1.111-.373 2.04-1.119 2.786s-1.674 1.118-2.784 1.116H11.155Zm13.012-31.416h9.666V13.57c0-.37-.154-.712-.464-1.023-.309-.31-.65-.465-1.022-.464h-6.694c-.37 0-.711.155-1.022.464-.311.31-.466.65-.464 1.023v3.347Z"/>
</svg>
