<svg xmlns="http://www.w3.org/2000/svg" width="30" height="30" fill="none" viewBox="0 0 30 30">
  <g clip-path="url(#a)">
    <path fill="#fff" fill-rule="evenodd" d="M15 5c1.069 0 2.165.027 3.227.072l1.256.06 1.2.072 1.126.076 1.027.08a4.75 4.75 0 0 1 4.368 4.279l.05.531.093 1.137c.088 1.18.153 2.464.153 3.693s-.065 2.514-.152 3.692l-.094 1.138-.05.531a4.75 4.75 0 0 1-4.369 4.279l-1.025.079-1.125.077-1.202.072-1.256.06c-1.075.046-2.15.07-3.227.072a77.534 77.534 0 0 1-3.227-.073l-1.255-.06-1.202-.07-1.125-.078-1.027-.079a4.75 4.75 0 0 1-4.368-4.279l-.05-.531-.094-1.137A51.246 51.246 0 0 1 2.5 15c0-1.229.065-2.514.152-3.693l.094-1.137.05-.531A4.75 4.75 0 0 1 7.162 5.36l1.027-.08 1.125-.076 1.202-.071 1.255-.06A77.514 77.514 0 0 1 15 5Zm-2.5 6.969v6.062a.75.75 0 0 0 1.125.65l5.25-3.031a.75.75 0 0 0 0-1.3l-5.25-3.03a.75.75 0 0 0-1.125.65v-.001Z" clip-rule="evenodd"/>
  </g>
  <defs>
    <clipPath id="a">
      <path fill="#fff" d="M0 0h30v30H0z"/>
    </clipPath>
  </defs>
</svg>
