<svg xmlns="http://www.w3.org/2000/svg" width="145" height="45" fill="none" viewBox="0 0 145 45">
  <g clip-path="url(#a)">
    <path fill="#2AD81F" d="M45.415 1.718s15.667 9.467 16.39 9.467h5.6c4.297 0 7.394.85 9.292 2.55 1.898 1.701 2.842 4.471 2.833 8.312v.453h17.98c0-7.302-2.344-12.859-7.034-16.67C85.787 2.019 78.97.114 70.023.116H45.962a.894.894 0 0 0-.547 1.602Z"/>
    <path fill="#2AD81F" d="M79.541 22.177c0 3.98-.944 6.85-2.833 8.61-1.89 1.76-4.986 2.641-9.292 2.642h-5.61c-.724 0-16.391 9.811-16.391 9.811-.68.537-.312 1.662.543 1.662h24.07c8.949 0 15.767-1.974 20.453-5.922 4.686-3.947 7.03-9.704 7.034-17.27H79.528c.013.151.013.31.013.467Z"/>
    <path fill="#fff" d="m117.765 9.805 6.04-9.157a1.19 1.19 0 0 1 .988-.532h16.881a1.18 1.18 0 0 1 .926 1.914l-14.704 18.615m0 1.266 16.838 21.066a1.183 1.183 0 0 1-.924 1.92h-17.812a1.184 1.184 0 0 1-.994-.544l-6.371-9.942a1.182 1.182 0 0 0-1.984 0l-6.538 9.961a1.183 1.183 0 0 1-.988.534H91.396a1.183 1.183 0 0 1-.917-1.93l17.064-20.958a1.18 1.18 0 0 0 .015-1.471L93.138 2.032A1.181 1.181 0 0 1 94.07.124h17.092a1.183 1.183 0 0 1 1.023.589l5.405 9.32"/>
    <path fill="#fff" stroke="#fff" stroke-miterlimit="10" d="M.46 1.711s15.667 9.47 16.39 9.47h5.6c4.297 0 7.394.849 9.292 2.548 1.898 1.7 2.842 4.47 2.833 8.311v.454h17.982c0-7.3-2.344-12.857-7.033-16.67C40.834 2.008 34.016.103 25.068.108H1.005A.893.893 0 0 0 .46 1.711ZM34.586 22.96c0 3.842-.944 6.612-2.833 8.311-1.89 1.7-4.986 2.55-9.292 2.551h-5.61c-.724 0-16.391 9.467-16.391 9.467a.894.894 0 0 0 .545 1.602h24.067c8.95 0 15.768-1.905 20.456-5.714 4.688-3.81 7.032-9.367 7.034-16.67H34.58c.006.148.006.3.006.453Z"/>
  </g>
  <defs>
    <clipPath id="a">
      <path fill="#fff" d="M0 0h145v45H0z"/>
    </clipPath>
  </defs>
</svg>
